<?xml version="1.0" encoding="UTF-8" standalone="no"?>
<svg
   class="svglite"
   width="1053.2196pt"
   height="281.29623pt"
   viewBox="0 0 1053.2196 281.29623"
   version="1.1"
   id="svg511"
   sodipodi:docname="04_Sankey_w_IPfromIPFile_v2.svg"
   inkscape:version="1.2.1 (ef4d3fba62, 2022-07-19, custom)"
   inkscape:export-filename="../5a057152/04_Sankey_w_IPfromIPFile_v2.png"
   inkscape:export-xdpi="300"
   inkscape:export-ydpi="300"
   xmlns:inkscape="http://www.inkscape.org/namespaces/inkscape"
   xmlns:sodipodi="http://sodipodi.sourceforge.net/DTD/sodipodi-0.dtd"
   xmlns="http://www.w3.org/2000/svg"
   xmlns:svg="http://www.w3.org/2000/svg">
  <sodipodi:namedview
     id="namedview513"
     pagecolor="#505050"
     bordercolor="#ffffff"
     borderopacity="1"
     inkscape:showpageshadow="0"
     inkscape:pageopacity="0"
     inkscape:pagecheckerboard="1"
     inkscape:deskcolor="#505050"
     inkscape:document-units="pt"
     showgrid="false"
     inkscape:zoom="0.65063645"
     inkscape:cx="445.71742"
     inkscape:cy="19.980436"
     inkscape:window-width="1920"
     inkscape:window-height="1043"
     inkscape:window-x="0"
     inkscape:window-y="0"
     inkscape:window-maximized="1"
     inkscape:current-layer="g509" />
  <defs
     id="defs420">
    <style
       type="text/css"
       id="style418"><![CDATA[
    .svglite line, .svglite polyline, .svglite polygon, .svglite path, .svglite rect, .svglite circle {
      fill: none;
      stroke: #000000;
      stroke-linecap: round;
      stroke-linejoin: round;
      stroke-miterlimit: 10.00;
    }
    .svglite text {
      white-space: pre;
    }
  ]]></style>
  </defs>
  <rect
     style="fill:#ffffff;fill-opacity:1;stroke:#ffffff;stroke-width:1.83327;stroke-linecap:round;stroke-linejoin:round;stroke-miterlimit:10"
     id="rect1114"
     width="1051.3864"
     height="279.46295"
     x="0.91663498"
     y="0.91663498" />
  <rect
     width="100%"
     height="100%"
     style="fill:none;stroke:none"
     id="rect422"
     x="-110.59656"
     y="-6.4000006" />
  <defs
     id="defs427">
    <clipPath
       id="cpMC4wMHwxMDgwLjAwfDAuMDB8Mjg4LjAw">
      <rect
         x="0"
         y="0"
         width="1080"
         height="288"
         id="rect424" />
    </clipPath>
  </defs>
  <g
     clip-path="url(#cpMC4wMHwxMDgwLjAwfDAuMDB8Mjg4LjAw)"
     id="g509"
     transform="translate(-110.59656,-6.4000006)">
    <polygon
       points="130.78,86.34 133.78,86.33 136.71,86.3 139.58,86.27 142.4,86.23 145.16,86.18 147.87,86.13 150.52,86.07 153.12,86 155.67,85.93 158.17,85.85 160.62,85.77 163.03,85.68 165.39,85.59 167.7,85.49 169.98,85.38 172.21,85.27 174.4,85.16 176.55,85.04 178.66,84.91 180.74,84.79 182.78,84.65 184.79,84.52 186.76,84.38 188.71,84.23 190.62,84.08 192.51,83.93 194.36,83.78 196.19,83.62 198,83.46 199.78,83.29 201.54,83.13 203.28,82.96 204.99,82.79 206.69,82.61 208.38,82.44 210.04,82.26 211.69,82.08 213.33,81.9 214.96,81.72 216.57,81.53 218.18,81.35 219.77,81.16 221.36,80.97 222.95,80.79 224.52,80.6 226.1,80.41 227.67,80.22 229.25,80.03 230.82,79.84 232.4,79.65 233.98,79.47 235.56,79.28 237.15,79.09 238.75,78.9 240.35,78.72 241.97,78.54 243.59,78.35 245.23,78.17 246.88,77.99 248.55,77.81 250.23,77.64 251.93,77.46 253.65,77.29 255.38,77.12 257.14,76.96 258.93,76.79 260.73,76.63 262.56,76.47 264.42,76.32 266.3,76.17 268.21,76.02 270.16,75.88 272.13,75.73 274.14,75.6 276.18,75.46 278.26,75.34 280.37,75.21 282.52,75.09 284.71,74.98 286.95,74.87 289.22,74.76 291.53,74.66 293.89,74.57 296.3,74.48 298.75,74.4 301.25,74.32 303.8,74.25 306.4,74.18 309.06,74.12 311.76,74.07 314.52,74.02 317.34,73.98 320.22,73.95 323.15,73.93 326.14,73.91 329.19,73.9 332.31,73.89 332.31,13.09 329.19,13.09 326.14,13.11 323.15,13.12 320.22,13.15 317.34,13.18 314.52,13.22 311.76,13.27 309.06,13.32 306.4,13.38 303.8,13.45 301.25,13.52 298.75,13.6 296.3,13.68 293.89,13.77 291.53,13.86 289.22,13.96 286.95,14.07 284.71,14.18 282.52,14.29 280.37,14.41 278.26,14.54 276.18,14.66 274.14,14.8 272.13,14.93 270.16,15.07 268.21,15.22 266.3,15.37 264.42,15.52 262.56,15.67 260.73,15.83 258.93,15.99 257.14,16.16 255.38,16.32 253.65,16.49 251.93,16.66 250.23,16.84 248.55,17.01 246.88,17.19 245.23,17.37 243.59,17.55 241.97,17.73 240.35,17.92 238.75,18.1 237.15,18.29 235.56,18.48 233.98,18.66 232.4,18.85 230.82,19.04 229.25,19.23 227.67,19.42 226.1,19.61 224.52,19.8 222.95,19.98 221.36,20.17 219.77,20.36 218.18,20.55 216.57,20.73 214.96,20.91 213.33,21.1 211.69,21.28 210.04,21.46 208.38,21.64 206.69,21.81 204.99,21.99 203.28,22.16 201.54,22.33 199.78,22.49 198,22.66 196.19,22.82 194.36,22.98 192.51,23.13 190.62,23.28 188.71,23.43 186.76,23.57 184.79,23.72 182.78,23.85 180.74,23.99 178.66,24.11 176.55,24.24 174.4,24.36 172.21,24.47 169.98,24.58 167.7,24.69 165.39,24.79 163.03,24.88 160.62,24.97 158.17,25.05 155.67,25.13 153.12,25.2 150.52,25.27 147.87,25.33 145.16,25.38 142.4,25.43 139.58,25.47 136.71,25.5 133.78,25.52 130.78,25.54 127.73,25.55 124.62,25.56 124.62,86.36 127.73,86.36 "
       style="fill:#5faacb;fill-opacity:0.55;stroke:none;stroke-width:1.07"
       id="polygon429" />
    <polygon
       points="130.78,274.91 133.78,274.91 136.71,274.91 139.58,274.91 142.4,274.91 145.16,274.91 147.87,274.91 150.52,274.91 153.12,274.91 155.67,274.91 158.17,274.91 160.62,274.91 163.03,274.91 165.39,274.91 167.7,274.91 169.98,274.91 172.21,274.91 174.4,274.91 176.55,274.91 178.66,274.91 180.74,274.91 182.78,274.91 184.79,274.91 186.76,274.91 188.71,274.91 190.62,274.91 192.51,274.91 194.36,274.91 196.19,274.91 198,274.91 199.78,274.91 201.54,274.91 203.28,274.91 204.99,274.91 206.69,274.91 208.38,274.91 210.04,274.91 211.69,274.91 213.33,274.91 214.96,274.91 216.57,274.91 218.18,274.91 219.77,274.91 221.36,274.91 222.95,274.91 224.52,274.91 226.1,274.91 227.67,274.91 229.25,274.91 230.82,274.91 232.4,274.91 233.98,274.91 235.56,274.91 237.15,274.91 238.75,274.91 240.35,274.91 241.97,274.91 243.59,274.91 245.23,274.91 246.88,274.91 248.55,274.91 250.23,274.91 251.93,274.91 253.65,274.91 255.38,274.91 257.14,274.91 258.93,274.91 260.73,274.91 262.56,274.91 264.42,274.91 266.3,274.91 268.21,274.91 270.16,274.91 272.13,274.91 274.14,274.91 276.18,274.91 278.26,274.91 280.37,274.91 282.52,274.91 284.71,274.91 286.95,274.91 289.22,274.91 291.53,274.91 293.89,274.91 296.3,274.91 298.75,274.91 301.25,274.91 303.8,274.91 306.4,274.91 309.06,274.91 311.76,274.91 314.52,274.91 317.34,274.91 320.22,274.91 323.15,274.91 326.14,274.91 329.19,274.91 332.31,274.91 332.31,86.36 329.19,86.36 326.14,86.36 323.15,86.36 320.22,86.36 317.34,86.36 314.52,86.36 311.76,86.36 309.06,86.36 306.4,86.36 303.8,86.36 301.25,86.36 298.75,86.36 296.3,86.36 293.89,86.36 291.53,86.36 289.22,86.36 286.95,86.36 284.71,86.36 282.52,86.36 280.37,86.36 278.26,86.36 276.18,86.36 274.14,86.36 272.13,86.36 270.16,86.36 268.21,86.36 266.3,86.36 264.42,86.36 262.56,86.36 260.73,86.36 258.93,86.36 257.14,86.36 255.38,86.36 253.65,86.36 251.93,86.36 250.23,86.36 248.55,86.36 246.88,86.36 245.23,86.36 243.59,86.36 241.97,86.36 240.35,86.36 238.75,86.36 237.15,86.36 235.56,86.36 233.98,86.36 232.4,86.36 230.82,86.36 229.25,86.36 227.67,86.36 226.1,86.36 224.52,86.36 222.95,86.36 221.36,86.36 219.77,86.36 218.18,86.36 216.57,86.36 214.96,86.36 213.33,86.36 211.69,86.36 210.04,86.36 208.38,86.36 206.69,86.36 204.99,86.36 203.28,86.36 201.54,86.36 199.78,86.36 198,86.36 196.19,86.36 194.36,86.36 192.51,86.36 190.62,86.36 188.71,86.36 186.76,86.36 184.79,86.36 182.78,86.36 180.74,86.36 178.66,86.36 176.55,86.36 174.4,86.36 172.21,86.36 169.98,86.36 167.7,86.36 165.39,86.36 163.03,86.36 160.62,86.36 158.17,86.36 155.67,86.36 153.12,86.36 150.52,86.36 147.87,86.36 145.16,86.36 142.4,86.36 139.58,86.36 136.71,86.36 133.78,86.36 130.78,86.36 127.73,86.36 124.62,86.36 124.62,274.91 127.73,274.91 "
       style="fill:#f3a992;fill-opacity:0.55;stroke:none;stroke-width:1.07"
       id="polygon431" />
    <polygon
       points="338.48,57.5 341.47,57.5 344.4,57.5 347.27,57.5 350.09,57.5 352.85,57.5 355.56,57.5 358.21,57.5 360.81,57.5 363.36,57.5 365.86,57.5 368.32,57.5 370.72,57.5 373.08,57.5 375.4,57.5 377.67,57.5 379.9,57.5 382.09,57.5 384.24,57.5 386.36,57.5 388.43,57.5 390.47,57.5 392.48,57.5 394.46,57.5 396.4,57.5 398.31,57.5 400.2,57.5 402.05,57.5 403.88,57.5 405.69,57.5 407.47,57.5 409.23,57.5 410.97,57.5 412.69,57.5 414.39,57.5 416.07,57.5 417.73,57.5 419.39,57.5 421.02,57.5 422.65,57.5 424.26,57.5 425.87,57.5 427.46,57.5 429.05,57.5 430.64,57.5 432.22,57.5 433.79,57.5 435.37,57.5 436.94,57.5 438.51,57.5 440.09,57.5 441.67,57.5 443.25,57.5 444.84,57.5 446.44,57.5 448.04,57.5 449.66,57.5 451.28,57.5 452.92,57.5 454.57,57.5 456.24,57.5 457.92,57.5 459.62,57.5 461.34,57.5 463.08,57.5 464.84,57.5 466.62,57.5 468.42,57.5 470.25,57.5 472.11,57.5 473.99,57.5 475.91,57.5 477.85,57.5 479.83,57.5 481.83,57.5 483.87,57.5 485.95,57.5 488.07,57.5 490.22,57.5 492.41,57.5 494.64,57.5 496.91,57.5 499.23,57.5 501.59,57.5 503.99,57.5 506.45,57.5 508.95,57.5 511.5,57.5 514.1,57.5 516.75,57.5 519.46,57.5 522.22,57.5 525.03,57.5 527.91,57.5 530.84,57.5 533.83,57.5 536.88,57.5 540,57.5 540,13.09 536.88,13.09 533.83,13.09 530.84,13.09 527.91,13.09 525.03,13.09 522.22,13.09 519.46,13.09 516.75,13.09 514.1,13.09 511.5,13.09 508.95,13.09 506.45,13.09 503.99,13.09 501.59,13.09 499.23,13.09 496.91,13.09 494.64,13.09 492.41,13.09 490.22,13.09 488.07,13.09 485.95,13.09 483.87,13.09 481.83,13.09 479.83,13.09 477.85,13.09 475.91,13.09 473.99,13.09 472.11,13.09 470.25,13.09 468.42,13.09 466.62,13.09 464.84,13.09 463.08,13.09 461.34,13.09 459.62,13.09 457.92,13.09 456.24,13.09 454.57,13.09 452.92,13.09 451.28,13.09 449.66,13.09 448.04,13.09 446.44,13.09 444.84,13.09 443.25,13.09 441.67,13.09 440.09,13.09 438.51,13.09 436.94,13.09 435.37,13.09 433.79,13.09 432.22,13.09 430.64,13.09 429.05,13.09 427.46,13.09 425.87,13.09 424.26,13.09 422.65,13.09 421.02,13.09 419.39,13.09 417.73,13.09 416.07,13.09 414.39,13.09 412.69,13.09 410.97,13.09 409.23,13.09 407.47,13.09 405.69,13.09 403.88,13.09 402.05,13.09 400.2,13.09 398.31,13.09 396.4,13.09 394.46,13.09 392.48,13.09 390.47,13.09 388.43,13.09 386.36,13.09 384.24,13.09 382.09,13.09 379.9,13.09 377.67,13.09 375.4,13.09 373.08,13.09 370.72,13.09 368.32,13.09 365.86,13.09 363.36,13.09 360.81,13.09 358.21,13.09 355.56,13.09 352.85,13.09 350.09,13.09 347.27,13.09 344.4,13.09 341.47,13.09 338.48,13.09 335.42,13.09 332.31,13.09 332.31,57.5 335.42,57.5 "
       style="fill:#5faacb;fill-opacity:0.55;stroke:none;stroke-width:1.07"
       id="polygon433" />
    <polygon
       points="338.48,246.18 341.47,246.14 344.4,246.08 347.27,246 350.09,245.91 352.85,245.8 355.56,245.68 358.21,245.54 360.81,245.39 363.36,245.23 365.86,245.05 368.32,244.85 370.72,244.65 373.08,244.43 375.4,244.2 377.67,243.96 379.9,243.7 382.09,243.44 384.24,243.16 386.36,242.87 388.43,242.57 390.47,242.27 392.48,241.95 394.46,241.62 396.4,241.29 398.31,240.95 400.2,240.6 402.05,240.24 403.88,239.87 405.69,239.5 407.47,239.12 409.23,238.73 410.97,238.34 412.69,237.94 414.39,237.54 416.07,237.14 417.73,236.72 419.39,236.31 421.02,235.89 422.65,235.47 424.26,235.04 425.87,234.61 427.46,234.18 429.05,233.75 430.64,233.31 432.22,232.88 433.79,232.44 435.37,232 436.94,231.57 438.51,231.13 440.09,230.69 441.67,230.26 443.25,229.82 444.84,229.39 446.44,228.96 448.04,228.53 449.66,228.1 451.28,227.68 452.92,227.26 454.57,226.85 456.24,226.43 457.92,226.03 459.62,225.63 461.34,225.23 463.08,224.84 464.84,224.45 466.62,224.07 468.42,223.7 470.25,223.33 472.11,222.97 473.99,222.62 475.91,222.28 477.85,221.95 479.83,221.62 481.83,221.3 483.87,221 485.95,220.7 488.07,220.41 490.22,220.13 492.41,219.87 494.64,219.61 496.91,219.37 499.23,219.14 501.59,218.92 503.99,218.72 506.45,218.52 508.95,218.34 511.5,218.18 514.1,218.03 516.75,217.89 519.46,217.77 522.22,217.66 525.03,217.57 527.91,217.49 530.84,217.43 533.83,217.39 536.88,217.36 540,217.35 540,57.5 536.88,57.5 533.83,57.53 530.84,57.57 527.91,57.63 525.03,57.71 522.22,57.8 519.46,57.91 516.75,58.03 514.1,58.17 511.5,58.32 508.95,58.49 506.45,58.67 503.99,58.86 501.59,59.06 499.23,59.28 496.91,59.51 494.64,59.76 492.41,60.01 490.22,60.28 488.07,60.55 485.95,60.84 483.87,61.14 481.83,61.45 479.83,61.76 477.85,62.09 475.91,62.42 473.99,62.77 472.11,63.12 470.25,63.47 468.42,63.84 466.62,64.21 464.84,64.59 463.08,64.98 461.34,65.37 459.62,65.77 457.92,66.17 456.24,66.58 454.57,66.99 452.92,67.4 451.28,67.82 449.66,68.25 448.04,68.67 446.44,69.1 444.84,69.53 443.25,69.96 441.67,70.4 440.09,70.84 438.51,71.27 436.94,71.71 435.37,72.15 433.79,72.58 432.22,73.02 430.64,73.46 429.05,73.89 427.46,74.32 425.87,74.75 424.26,75.18 422.65,75.61 421.02,76.03 419.39,76.45 417.73,76.87 416.07,77.28 414.39,77.68 412.69,78.09 410.97,78.48 409.23,78.88 407.47,79.26 405.69,79.64 403.88,80.01 402.05,80.38 400.2,80.74 398.31,81.09 396.4,81.43 394.46,81.77 392.48,82.09 390.47,82.41 388.43,82.72 386.36,83.01 384.24,83.3 382.09,83.58 379.9,83.84 377.67,84.1 375.4,84.34 373.08,84.57 370.72,84.79 368.32,85 365.86,85.19 363.36,85.37 360.81,85.54 358.21,85.69 355.56,85.82 352.85,85.95 350.09,86.05 347.27,86.15 344.4,86.22 341.47,86.28 338.48,86.32 335.42,86.35 332.31,86.36 332.31,246.22 335.42,246.21 "
       style="fill:#f3a992;fill-opacity:0.55;stroke:none;stroke-width:1.07"
       id="polygon435" />
    <polygon
       points="338.48,74.1 341.47,74.36 344.4,74.71 347.27,75.17 350.09,75.71 352.85,76.35 355.56,77.09 358.21,77.91 360.81,78.81 363.36,79.8 365.86,80.87 368.32,82.03 370.72,83.26 373.08,84.56 375.4,85.94 377.67,87.39 379.9,88.91 382.09,90.5 384.24,92.15 386.36,93.86 388.43,95.64 390.47,97.47 392.48,99.36 394.46,101.31 396.4,103.31 398.31,105.35 400.2,107.45 402.05,109.59 403.88,111.77 405.69,114 407.47,116.27 409.23,118.57 410.97,120.91 412.69,123.28 414.39,125.68 416.07,128.11 417.73,130.57 419.39,133.05 421.02,135.55 422.65,138.08 424.26,140.62 425.87,143.18 427.46,145.75 429.05,148.34 430.64,150.93 432.22,153.53 433.79,156.14 435.37,158.75 436.94,161.36 438.51,163.97 440.09,166.58 441.67,169.18 443.25,171.77 444.84,174.36 446.44,176.93 448.04,179.49 449.66,182.03 451.28,184.55 452.92,187.06 454.57,189.54 456.24,192 457.92,194.43 459.62,196.83 461.34,199.2 463.08,201.54 464.84,203.84 466.62,206.11 468.42,208.33 470.25,210.52 472.11,212.66 473.99,214.76 475.91,216.8 477.85,218.8 479.83,220.74 481.83,222.64 483.87,224.47 485.95,226.24 488.07,227.96 490.22,229.61 492.41,231.2 494.64,232.72 496.91,234.17 499.23,235.55 501.59,236.85 503.99,238.08 506.45,239.23 508.95,240.31 511.5,241.3 514.1,242.2 516.75,243.02 519.46,243.75 522.22,244.39 525.03,244.94 527.91,245.4 530.84,245.75 533.83,246.01 536.88,246.16 540,246.22 540,229.82 536.88,229.77 533.83,229.61 530.84,229.36 527.91,229 525.03,228.55 522.22,228 519.46,227.36 516.75,226.63 514.1,225.81 511.5,224.9 508.95,223.91 506.45,222.84 503.99,221.69 501.59,220.46 499.23,219.15 496.91,217.77 494.64,216.32 492.41,214.8 490.22,213.22 488.07,211.56 485.95,209.85 483.87,208.07 481.83,206.24 479.83,204.35 477.85,202.4 475.91,200.41 473.99,198.36 472.11,196.26 470.25,194.12 468.42,191.94 466.62,189.71 464.84,187.45 463.08,185.14 461.34,182.81 459.62,180.43 457.92,178.03 456.24,175.6 454.57,173.14 452.92,170.66 451.28,168.16 449.66,165.63 448.04,163.09 446.44,160.53 444.84,157.96 443.25,155.38 441.67,152.78 440.09,150.18 438.51,147.57 436.94,144.96 435.37,142.35 433.79,139.74 432.22,137.14 430.64,134.54 429.05,131.94 427.46,129.36 425.87,126.78 424.26,124.23 422.65,121.68 421.02,119.16 419.39,116.65 417.73,114.17 416.07,111.71 414.39,109.28 412.69,106.88 410.97,104.51 409.23,102.17 407.47,99.87 405.69,97.6 403.88,95.38 402.05,93.19 400.2,91.05 398.31,88.96 396.4,86.91 394.46,84.91 392.48,82.97 390.47,81.08 388.43,79.24 386.36,77.47 384.24,75.75 382.09,74.1 379.9,72.51 377.67,70.99 375.4,69.54 373.08,68.17 370.72,66.86 368.32,65.63 365.86,64.48 363.36,63.41 360.81,62.42 358.21,61.51 355.56,60.69 352.85,59.96 350.09,59.32 347.27,58.77 344.4,58.32 341.47,57.96 338.48,57.7 335.42,57.55 332.31,57.5 332.31,73.89 335.42,73.94 "
       style="fill:#5faacb;fill-opacity:0.55;stroke:none;stroke-width:1.07"
       id="polygon437" />
    <polygon
       points="338.48,274.91 341.47,274.91 344.4,274.91 347.27,274.91 350.09,274.91 352.85,274.91 355.56,274.91 358.21,274.91 360.81,274.91 363.36,274.91 365.86,274.91 368.32,274.91 370.72,274.91 373.08,274.91 375.4,274.91 377.67,274.91 379.9,274.91 382.09,274.91 384.24,274.91 386.36,274.91 388.43,274.91 390.47,274.91 392.48,274.91 394.46,274.91 396.4,274.91 398.31,274.91 400.2,274.91 402.05,274.91 403.88,274.91 405.69,274.91 407.47,274.91 409.23,274.91 410.97,274.91 412.69,274.91 414.39,274.91 416.07,274.91 417.73,274.91 419.39,274.91 421.02,274.91 422.65,274.91 424.26,274.91 425.87,274.91 427.46,274.91 429.05,274.91 430.64,274.91 432.22,274.91 433.79,274.91 435.37,274.91 436.94,274.91 438.51,274.91 440.09,274.91 441.67,274.91 443.25,274.91 444.84,274.91 446.44,274.91 448.04,274.91 449.66,274.91 451.28,274.91 452.92,274.91 454.57,274.91 456.24,274.91 457.92,274.91 459.62,274.91 461.34,274.91 463.08,274.91 464.84,274.91 466.62,274.91 468.42,274.91 470.25,274.91 472.11,274.91 473.99,274.91 475.91,274.91 477.85,274.91 479.83,274.91 481.83,274.91 483.87,274.91 485.95,274.91 488.07,274.91 490.22,274.91 492.41,274.91 494.64,274.91 496.91,274.91 499.23,274.91 501.59,274.91 503.99,274.91 506.45,274.91 508.95,274.91 511.5,274.91 514.1,274.91 516.75,274.91 519.46,274.91 522.22,274.91 525.03,274.91 527.91,274.91 530.84,274.91 533.83,274.91 536.88,274.91 540,274.91 540,246.22 536.88,246.22 533.83,246.22 530.84,246.22 527.91,246.22 525.03,246.22 522.22,246.22 519.46,246.22 516.75,246.22 514.1,246.22 511.5,246.22 508.95,246.22 506.45,246.22 503.99,246.22 501.59,246.22 499.23,246.22 496.91,246.22 494.64,246.22 492.41,246.22 490.22,246.22 488.07,246.22 485.95,246.22 483.87,246.22 481.83,246.22 479.83,246.22 477.85,246.22 475.91,246.22 473.99,246.22 472.11,246.22 470.25,246.22 468.42,246.22 466.62,246.22 464.84,246.22 463.08,246.22 461.34,246.22 459.62,246.22 457.92,246.22 456.24,246.22 454.57,246.22 452.92,246.22 451.28,246.22 449.66,246.22 448.04,246.22 446.44,246.22 444.84,246.22 443.25,246.22 441.67,246.22 440.09,246.22 438.51,246.22 436.94,246.22 435.37,246.22 433.79,246.22 432.22,246.22 430.64,246.22 429.05,246.22 427.46,246.22 425.87,246.22 424.26,246.22 422.65,246.22 421.02,246.22 419.39,246.22 417.73,246.22 416.07,246.22 414.39,246.22 412.69,246.22 410.97,246.22 409.23,246.22 407.47,246.22 405.69,246.22 403.88,246.22 402.05,246.22 400.2,246.22 398.31,246.22 396.4,246.22 394.46,246.22 392.48,246.22 390.47,246.22 388.43,246.22 386.36,246.22 384.24,246.22 382.09,246.22 379.9,246.22 377.67,246.22 375.4,246.22 373.08,246.22 370.72,246.22 368.32,246.22 365.86,246.22 363.36,246.22 360.81,246.22 358.21,246.22 355.56,246.22 352.85,246.22 350.09,246.22 347.27,246.22 344.4,246.22 341.47,246.22 338.48,246.22 335.42,246.22 332.31,246.22 332.31,274.91 335.42,274.91 "
       style="fill:#f3a992;fill-opacity:0.55;stroke:none;stroke-width:1.07"
       id="polygon439" />
    <polygon
       points="546.17,53.4 549.16,53.4 552.09,53.4 554.97,53.4 557.78,53.4 560.54,53.4 563.25,53.4 565.9,53.4 568.5,53.4 571.05,53.4 573.55,53.4 576.01,53.4 578.41,53.4 580.77,53.4 583.09,53.4 585.36,53.4 587.59,53.4 589.78,53.4 591.93,53.4 594.05,53.4 596.13,53.4 598.17,53.4 600.17,53.4 602.15,53.4 604.09,53.4 606.01,53.4 607.89,53.4 609.75,53.4 611.58,53.4 613.38,53.4 615.16,53.4 616.92,53.4 618.66,53.4 620.38,53.4 622.08,53.4 623.76,53.4 625.43,53.4 627.08,53.4 628.72,53.4 630.34,53.4 631.96,53.4 633.56,53.4 635.16,53.4 636.75,53.4 638.33,53.4 639.91,53.4 641.49,53.4 643.06,53.4 644.63,53.4 646.21,53.4 647.78,53.4 649.36,53.4 650.95,53.4 652.54,53.4 654.13,53.4 655.74,53.4 657.35,53.4 658.98,53.4 660.61,53.4 662.27,53.4 663.93,53.4 665.61,53.4 667.31,53.4 669.03,53.4 670.77,53.4 672.53,53.4 674.31,53.4 676.12,53.4 677.95,53.4 679.8,53.4 681.69,53.4 683.6,53.4 685.54,53.4 687.52,53.4 689.53,53.4 691.57,53.4 693.64,53.4 695.76,53.4 697.91,53.4 700.1,53.4 702.33,53.4 704.6,53.4 706.92,53.4 709.28,53.4 711.68,53.4 714.14,53.4 716.64,53.4 719.19,53.4 721.79,53.4 724.44,53.4 727.15,53.4 729.91,53.4 732.73,53.4 735.6,53.4 738.53,53.4 741.52,53.4 744.58,53.4 747.69,53.4 747.69,13.09 744.58,13.09 741.52,13.09 738.53,13.09 735.6,13.09 732.73,13.09 729.91,13.09 727.15,13.09 724.44,13.09 721.79,13.09 719.19,13.09 716.64,13.09 714.14,13.09 711.68,13.09 709.28,13.09 706.92,13.09 704.6,13.09 702.33,13.09 700.1,13.09 697.91,13.09 695.76,13.09 693.64,13.09 691.57,13.09 689.53,13.09 687.52,13.09 685.54,13.09 683.6,13.09 681.69,13.09 679.8,13.09 677.95,13.09 676.12,13.09 674.31,13.09 672.53,13.09 670.77,13.09 669.03,13.09 667.31,13.09 665.61,13.09 663.93,13.09 662.27,13.09 660.61,13.09 658.98,13.09 657.35,13.09 655.74,13.09 654.13,13.09 652.54,13.09 650.95,13.09 649.36,13.09 647.78,13.09 646.21,13.09 644.63,13.09 643.06,13.09 641.49,13.09 639.91,13.09 638.33,13.09 636.75,13.09 635.16,13.09 633.56,13.09 631.96,13.09 630.34,13.09 628.72,13.09 627.08,13.09 625.43,13.09 623.76,13.09 622.08,13.09 620.38,13.09 618.66,13.09 616.92,13.09 615.16,13.09 613.38,13.09 611.58,13.09 609.75,13.09 607.89,13.09 606.01,13.09 604.09,13.09 602.15,13.09 600.17,13.09 598.17,13.09 596.13,13.09 594.05,13.09 591.93,13.09 589.78,13.09 587.59,13.09 585.36,13.09 583.09,13.09 580.77,13.09 578.41,13.09 576.01,13.09 573.55,13.09 571.05,13.09 568.5,13.09 565.9,13.09 563.25,13.09 560.54,13.09 557.78,13.09 554.97,13.09 552.09,13.09 549.16,13.09 546.17,13.09 543.12,13.09 540,13.09 540,53.4 543.12,53.4 "
       style="fill:#5faacb;fill-opacity:0.55;stroke:none;stroke-width:1.07"
       id="polygon441" />
    <polygon
       points="546.17,212.57 549.16,212.57 552.09,212.57 554.97,212.58 557.78,212.58 560.54,212.58 563.25,212.58 565.9,212.59 568.5,212.59 571.05,212.59 573.55,212.6 576.01,212.6 578.41,212.61 580.77,212.61 583.09,212.62 585.36,212.62 587.59,212.63 589.78,212.64 591.93,212.64 594.05,212.65 596.13,212.66 598.17,212.66 600.17,212.67 602.15,212.68 604.09,212.69 606.01,212.7 607.89,212.7 609.75,212.71 611.58,212.72 613.38,212.73 615.16,212.74 616.92,212.75 618.66,212.76 620.38,212.77 622.08,212.78 623.76,212.79 625.43,212.8 627.08,212.81 628.72,212.82 630.34,212.83 631.96,212.84 633.56,212.85 635.16,212.86 636.75,212.87 638.33,212.88 639.91,212.89 641.49,212.9 643.06,212.91 644.63,212.92 646.21,212.93 647.78,212.94 649.36,212.95 650.95,212.96 652.54,212.97 654.13,212.98 655.74,212.99 657.35,213 658.98,213.01 660.61,213.02 662.27,213.03 663.93,213.04 665.61,213.05 667.31,213.06 669.03,213.07 670.77,213.08 672.53,213.09 674.31,213.1 676.12,213.1 677.95,213.11 679.8,213.12 681.69,213.13 683.6,213.14 685.54,213.15 687.52,213.15 689.53,213.16 691.57,213.17 693.64,213.18 695.76,213.18 697.91,213.19 700.1,213.2 702.33,213.2 704.6,213.21 706.92,213.21 709.28,213.22 711.68,213.22 714.14,213.23 716.64,213.23 719.19,213.24 721.79,213.24 724.44,213.24 727.15,213.24 729.91,213.25 732.73,213.25 735.6,213.25 738.53,213.25 741.52,213.25 744.58,213.25 747.69,213.25 747.69,58.18 744.58,58.18 741.52,58.18 738.53,58.18 735.6,58.18 732.73,58.17 729.91,58.17 727.15,58.17 724.44,58.17 721.79,58.16 719.19,58.16 716.64,58.16 714.14,58.15 711.68,58.15 709.28,58.14 706.92,58.14 704.6,58.13 702.33,58.13 700.1,58.12 697.91,58.11 695.76,58.11 693.64,58.1 691.57,58.09 689.53,58.09 687.52,58.08 685.54,58.07 683.6,58.06 681.69,58.05 679.8,58.05 677.95,58.04 676.12,58.03 674.31,58.02 672.53,58.01 670.77,58 669.03,57.99 667.31,57.98 665.61,57.97 663.93,57.96 662.27,57.95 660.61,57.94 658.98,57.93 657.35,57.92 655.74,57.91 654.13,57.9 652.54,57.89 650.95,57.88 649.36,57.87 647.78,57.86 646.21,57.85 644.63,57.84 643.06,57.83 641.49,57.82 639.91,57.81 638.33,57.8 636.75,57.79 635.16,57.78 633.56,57.77 631.96,57.76 630.34,57.75 628.72,57.74 627.08,57.73 625.43,57.72 623.76,57.71 622.08,57.7 620.38,57.69 618.66,57.68 616.92,57.67 615.16,57.66 613.38,57.65 611.58,57.65 609.75,57.64 607.89,57.63 606.01,57.62 604.09,57.61 602.15,57.6 600.17,57.6 598.17,57.59 596.13,57.58 594.05,57.57 591.93,57.57 589.78,57.56 587.59,57.56 585.36,57.55 583.09,57.54 580.77,57.54 578.41,57.53 576.01,57.53 573.55,57.52 571.05,57.52 568.5,57.52 565.9,57.51 563.25,57.51 560.54,57.51 557.78,57.5 554.97,57.5 552.09,57.5 549.16,57.5 546.17,57.5 543.12,57.5 540,57.5 540,212.57 543.12,212.57 "
       style="fill:#f3a992;fill-opacity:0.55;stroke:none;stroke-width:1.07"
       id="polygon443" />
    <polygon
       points="546.17,234.39 549.16,234.13 552.09,233.76 554.97,233.3 557.78,232.74 560.54,232.08 563.25,231.33 565.9,230.49 568.5,229.57 571.05,228.55 573.55,227.46 576.01,226.28 578.41,225.02 580.77,223.68 583.09,222.27 585.36,220.78 587.59,219.23 589.78,217.6 591.93,215.91 594.05,214.16 596.13,212.34 598.17,210.46 600.17,208.53 602.15,206.53 604.09,204.49 606.01,202.39 607.89,200.25 609.75,198.06 611.58,195.82 613.38,193.54 615.16,191.22 616.92,188.86 618.66,186.47 620.38,184.04 622.08,181.58 623.76,179.09 625.43,176.58 627.08,174.04 628.72,171.47 630.34,168.89 631.96,166.29 633.56,163.67 635.16,161.03 636.75,158.39 638.33,155.73 639.91,153.07 641.49,150.4 643.06,147.73 644.63,145.05 646.21,142.38 647.78,139.71 649.36,137.05 650.95,134.4 652.54,131.75 654.13,129.12 655.74,126.5 657.35,123.89 658.98,121.31 660.61,118.74 662.27,116.2 663.93,113.69 665.61,111.2 667.31,108.74 669.03,106.31 670.77,103.92 672.53,101.56 674.31,99.24 676.12,96.96 677.95,94.73 679.8,92.53 681.69,90.39 683.6,88.29 685.54,86.25 687.52,84.26 689.53,82.32 691.57,80.44 693.64,78.63 695.76,76.87 697.91,75.18 700.1,73.55 702.33,72 704.6,70.51 706.92,69.1 709.28,67.77 711.68,66.51 714.14,65.33 716.64,64.23 719.19,63.22 721.79,62.29 724.44,61.45 727.15,60.7 729.91,60.04 732.73,59.48 735.6,59.02 738.53,58.66 741.52,58.39 744.58,58.23 747.69,58.18 747.69,53.4 744.58,53.45 741.52,53.61 738.53,53.87 735.6,54.24 732.73,54.7 729.91,55.26 727.15,55.92 724.44,56.67 721.79,57.51 719.19,58.43 716.64,59.45 714.14,60.54 711.68,61.72 709.28,62.98 706.92,64.32 704.6,65.73 702.33,67.22 700.1,68.77 697.91,70.4 695.76,72.09 693.64,73.84 691.57,75.66 689.53,77.54 687.52,79.47 685.54,81.47 683.6,83.51 681.69,85.61 679.8,87.75 677.95,89.94 676.12,92.18 674.31,94.46 672.53,96.78 670.77,99.14 669.03,101.53 667.31,103.96 665.61,106.42 663.93,108.91 662.27,111.42 660.61,113.96 658.98,116.53 657.35,119.11 655.74,121.71 654.13,124.33 652.54,126.97 650.95,129.61 649.36,132.27 647.78,134.93 646.21,137.6 644.63,140.27 643.06,142.95 641.49,145.62 639.91,148.29 638.33,150.95 636.75,153.6 635.16,156.25 633.56,158.88 631.96,161.5 630.34,164.11 628.72,166.69 627.08,169.26 625.43,171.8 623.76,174.31 622.08,176.8 620.38,179.26 618.66,181.69 616.92,184.08 615.16,186.44 613.38,188.76 611.58,191.04 609.75,193.27 607.89,195.47 606.01,197.61 604.09,199.71 602.15,201.75 600.17,203.74 598.17,205.68 596.13,207.56 594.05,209.37 591.93,211.13 589.78,212.82 587.59,214.45 585.36,216 583.09,217.49 580.77,218.9 578.41,220.23 576.01,221.49 573.55,222.67 571.05,223.77 568.5,224.78 565.9,225.71 563.25,226.55 560.54,227.3 557.78,227.96 554.97,228.52 552.09,228.98 549.16,229.34 546.17,229.61 543.12,229.77 540,229.82 540,234.6 543.12,234.55 "
       style="fill:#5faacb;fill-opacity:0.55;stroke:none;stroke-width:1.07"
       id="polygon445" />
    <polygon
       points="546.17,251.64 549.16,251.59 552.09,251.52 554.97,251.44 557.78,251.33 560.54,251.21 563.25,251.07 565.9,250.91 568.5,250.74 571.05,250.55 573.55,250.35 576.01,250.13 578.41,249.89 580.77,249.64 583.09,249.38 585.36,249.1 587.59,248.81 589.78,248.51 591.93,248.19 594.05,247.86 596.13,247.52 598.17,247.17 600.17,246.81 602.15,246.44 604.09,246.06 606.01,245.66 607.89,245.26 609.75,244.85 611.58,244.44 613.38,244.01 615.16,243.58 616.92,243.14 618.66,242.69 620.38,242.24 622.08,241.78 623.76,241.31 625.43,240.84 627.08,240.37 628.72,239.89 630.34,239.4 631.96,238.92 633.56,238.43 635.16,237.94 636.75,237.44 638.33,236.95 639.91,236.45 641.49,235.95 643.06,235.45 644.63,234.95 646.21,234.45 647.78,233.95 649.36,233.46 650.95,232.96 652.54,232.47 654.13,231.97 655.74,231.48 657.35,231 658.98,230.51 660.61,230.04 662.27,229.56 663.93,229.09 665.61,228.63 667.31,228.17 669.03,227.71 670.77,227.27 672.53,226.83 674.31,226.39 676.12,225.97 677.95,225.55 679.8,225.14 681.69,224.74 683.6,224.35 685.54,223.96 687.52,223.59 689.53,223.23 691.57,222.88 693.64,222.54 695.76,222.21 697.91,221.9 700.1,221.59 702.33,221.3 704.6,221.02 706.92,220.76 709.28,220.51 711.68,220.28 714.14,220.06 716.64,219.85 719.19,219.66 721.79,219.49 724.44,219.33 727.15,219.19 729.91,219.07 732.73,218.96 735.6,218.88 738.53,218.81 741.52,218.76 744.58,218.73 747.69,218.72 747.69,213.25 744.58,213.26 741.52,213.29 738.53,213.34 735.6,213.41 732.73,213.5 729.91,213.6 727.15,213.73 724.44,213.87 721.79,214.02 719.19,214.2 716.64,214.38 714.14,214.59 711.68,214.81 709.28,215.05 706.92,215.3 704.6,215.56 702.33,215.84 700.1,216.13 697.91,216.43 695.76,216.75 693.64,217.07 691.57,217.41 689.53,217.77 687.52,218.13 685.54,218.5 683.6,218.88 681.69,219.27 679.8,219.67 677.95,220.08 676.12,220.5 674.31,220.93 672.53,221.36 670.77,221.8 669.03,222.25 667.31,222.7 665.61,223.16 663.93,223.63 662.27,224.1 660.61,224.57 658.98,225.05 657.35,225.53 655.74,226.02 654.13,226.51 652.54,227 650.95,227.49 649.36,227.99 647.78,228.49 646.21,228.99 644.63,229.49 643.06,229.99 641.49,230.48 639.91,230.98 638.33,231.48 636.75,231.98 635.16,232.47 633.56,232.96 631.96,233.45 630.34,233.94 628.72,234.42 627.08,234.9 625.43,235.38 623.76,235.85 622.08,236.31 620.38,236.77 618.66,237.22 616.92,237.67 615.16,238.11 613.38,238.54 611.58,238.97 609.75,239.39 607.89,239.8 606.01,240.2 604.09,240.59 602.15,240.97 600.17,241.34 598.17,241.71 596.13,242.06 594.05,242.4 591.93,242.72 589.78,243.04 587.59,243.34 585.36,243.63 583.09,243.91 580.77,244.18 578.41,244.43 576.01,244.66 573.55,244.88 571.05,245.09 568.5,245.28 565.9,245.45 563.25,245.61 560.54,245.75 557.78,245.87 554.97,245.97 552.09,246.06 549.16,246.13 546.17,246.18 543.12,246.21 540,246.22 540,251.68 543.12,251.67 "
       style="fill:#f3a992;fill-opacity:0.55;stroke:none;stroke-width:1.07"
       id="polygon447" />
    <polygon
       points="546.17,57.71 549.16,57.98 552.09,58.34 554.97,58.81 557.78,59.38 560.54,60.04 563.25,60.79 565.9,61.64 568.5,62.57 571.05,63.59 573.55,64.7 576.01,65.89 578.41,67.16 580.77,68.5 583.09,69.93 585.36,71.42 587.59,72.99 589.78,74.63 591.93,76.33 594.05,78.1 596.13,79.93 598.17,81.83 600.17,83.78 602.15,85.78 604.09,87.84 606.01,89.95 607.89,92.12 609.75,94.33 611.58,96.58 613.38,98.88 615.16,101.21 616.92,103.59 618.66,106 620.38,108.45 622.08,110.93 623.76,113.43 625.43,115.97 627.08,118.53 628.72,121.11 630.34,123.72 631.96,126.34 633.56,128.98 635.16,131.64 636.75,134.3 638.33,136.98 639.91,139.66 641.49,142.35 643.06,145.04 644.63,147.74 646.21,150.43 647.78,153.12 649.36,155.8 650.95,158.48 652.54,161.15 654.13,163.8 655.74,166.44 657.35,169.06 658.98,171.67 660.61,174.25 662.27,176.81 663.93,179.35 665.61,181.86 667.31,184.33 669.03,186.78 670.77,189.19 672.53,191.57 674.31,193.91 676.12,196.2 677.95,198.46 679.8,200.67 681.69,202.83 683.6,204.94 685.54,207 687.52,209.01 689.53,210.96 691.57,212.85 693.64,214.68 695.76,216.45 697.91,218.15 700.1,219.79 702.33,221.36 704.6,222.86 706.92,224.28 709.28,225.63 711.68,226.89 714.14,228.08 716.64,229.19 719.19,230.21 721.79,231.15 724.44,231.99 727.15,232.75 729.91,233.41 732.73,233.97 735.6,234.44 738.53,234.81 741.52,235.07 744.58,235.23 747.69,235.29 747.69,231.19 744.58,231.13 741.52,230.97 738.53,230.71 735.6,230.34 732.73,229.87 729.91,229.31 727.15,228.65 724.44,227.89 721.79,227.05 719.19,226.11 716.64,225.09 714.14,223.98 711.68,222.8 709.28,221.53 706.92,220.18 704.6,218.76 702.33,217.26 700.1,215.69 697.91,214.06 695.76,212.35 693.64,210.58 691.57,208.75 689.53,206.86 687.52,204.91 685.54,202.9 683.6,200.84 681.69,198.73 679.8,196.57 677.95,194.36 676.12,192.1 674.31,189.81 672.53,187.47 670.77,185.09 669.03,182.68 667.31,180.23 665.61,177.76 663.93,175.25 662.27,172.71 660.61,170.15 658.98,167.57 657.35,164.96 655.74,162.34 654.13,159.7 652.54,157.05 650.95,154.38 649.36,151.7 647.78,149.02 646.21,146.33 644.63,143.64 643.06,140.95 641.49,138.25 639.91,135.56 638.33,132.88 636.75,130.2 635.16,127.54 633.56,124.88 631.96,122.24 630.34,119.62 628.72,117.02 627.08,114.43 625.43,111.87 623.76,109.34 622.08,106.83 620.38,104.35 618.66,101.9 616.92,99.49 615.16,97.11 613.38,94.78 611.58,92.48 609.75,90.23 607.89,88.02 606.01,85.86 604.09,83.74 602.15,81.68 600.17,79.68 598.17,77.73 596.13,75.83 594.05,74 591.93,72.23 589.78,70.53 587.59,68.89 585.36,67.32 583.09,65.83 580.77,64.4 578.41,63.06 576.01,61.79 573.55,60.6 571.05,59.49 568.5,58.47 565.9,57.54 563.25,56.69 560.54,55.94 557.78,55.28 554.97,54.71 552.09,54.24 549.16,53.88 546.17,53.61 543.12,53.45 540,53.4 540,57.5 543.12,57.55 "
       style="fill:#5faacb;fill-opacity:0.55;stroke:none;stroke-width:1.07"
       id="polygon449" />
    <polygon
       points="546.17,217.39 549.16,217.45 552.09,217.52 554.97,217.61 557.78,217.72 560.54,217.84 563.25,217.99 565.9,218.15 568.5,218.33 571.05,218.53 573.55,218.74 576.01,218.97 578.41,219.22 580.77,219.48 583.09,219.75 585.36,220.04 587.59,220.35 589.78,220.66 591.93,220.99 594.05,221.33 596.13,221.69 598.17,222.05 600.17,222.43 602.15,222.82 604.09,223.21 606.01,223.62 607.89,224.04 609.75,224.46 611.58,224.9 613.38,225.34 615.16,225.79 616.92,226.25 618.66,226.72 620.38,227.19 622.08,227.67 623.76,228.15 625.43,228.64 627.08,229.14 628.72,229.64 630.34,230.14 631.96,230.65 633.56,231.16 635.16,231.67 636.75,232.18 638.33,232.7 639.91,233.22 641.49,233.74 643.06,234.26 644.63,234.78 646.21,235.3 647.78,235.82 649.36,236.34 650.95,236.85 652.54,237.37 654.13,237.88 655.74,238.39 657.35,238.9 658.98,239.4 660.61,239.9 662.27,240.39 663.93,240.88 665.61,241.37 667.31,241.84 669.03,242.32 670.77,242.78 672.53,243.24 674.31,243.69 676.12,244.14 677.95,244.57 679.8,245 681.69,245.41 683.6,245.82 685.54,246.22 687.52,246.61 689.53,246.98 691.57,247.35 693.64,247.7 695.76,248.04 697.91,248.37 700.1,248.69 702.33,248.99 704.6,249.28 706.92,249.56 709.28,249.82 711.68,250.06 714.14,250.29 716.64,250.5 719.19,250.7 721.79,250.88 724.44,251.05 727.15,251.19 729.91,251.32 732.73,251.43 735.6,251.52 738.53,251.59 741.52,251.64 744.58,251.67 747.69,251.68 747.69,246.9 744.58,246.89 741.52,246.86 738.53,246.81 735.6,246.74 732.73,246.65 729.91,246.54 727.15,246.41 724.44,246.26 721.79,246.1 719.19,245.92 716.64,245.72 714.14,245.51 711.68,245.28 709.28,245.03 706.92,244.77 704.6,244.5 702.33,244.21 700.1,243.91 697.91,243.59 695.76,243.26 693.64,242.92 691.57,242.57 689.53,242.2 687.52,241.83 685.54,241.44 683.6,241.04 681.69,240.63 679.8,240.22 677.95,239.79 676.12,239.35 674.31,238.91 672.53,238.46 670.77,238 669.03,237.53 667.31,237.06 665.61,236.58 663.93,236.1 662.27,235.61 660.61,235.12 658.98,234.62 657.35,234.11 655.74,233.61 654.13,233.1 652.54,232.58 650.95,232.07 649.36,231.55 647.78,231.03 646.21,230.52 644.63,230 643.06,229.48 641.49,228.96 639.91,228.44 638.33,227.92 636.75,227.4 635.16,226.89 633.56,226.37 631.96,225.86 630.34,225.36 628.72,224.86 627.08,224.36 625.43,223.86 623.76,223.37 622.08,222.89 620.38,222.41 618.66,221.94 616.92,221.47 615.16,221.01 613.38,220.56 611.58,220.12 609.75,219.68 607.89,219.26 606.01,218.84 604.09,218.43 602.15,218.03 600.17,217.65 598.17,217.27 596.13,216.9 594.05,216.55 591.93,216.21 589.78,215.88 587.59,215.56 585.36,215.26 583.09,214.97 580.77,214.7 578.41,214.44 576.01,214.19 573.55,213.96 571.05,213.75 568.5,213.55 565.9,213.37 563.25,213.21 560.54,213.06 557.78,212.93 554.97,212.83 552.09,212.74 549.16,212.66 546.17,212.61 543.12,212.58 540,212.57 540,217.35 543.12,217.36 "
       style="fill:#f3a992;fill-opacity:0.55;stroke:none;stroke-width:1.07"
       id="polygon451" />
    <polygon
       points="546.17,246.22 549.16,246.22 552.09,246.22 554.97,246.22 557.78,246.22 560.54,246.23 563.25,246.23 565.9,246.23 568.5,246.24 571.05,246.24 573.55,246.24 576.01,246.25 578.41,246.25 580.77,246.26 583.09,246.26 585.36,246.27 587.59,246.28 589.78,246.28 591.93,246.29 594.05,246.3 596.13,246.3 598.17,246.31 600.17,246.32 602.15,246.33 604.09,246.33 606.01,246.34 607.89,246.35 609.75,246.36 611.58,246.37 613.38,246.38 615.16,246.38 616.92,246.39 618.66,246.4 620.38,246.41 622.08,246.42 623.76,246.43 625.43,246.44 627.08,246.45 628.72,246.46 630.34,246.47 631.96,246.48 633.56,246.49 635.16,246.5 636.75,246.51 638.33,246.52 639.91,246.53 641.49,246.54 643.06,246.55 644.63,246.56 646.21,246.57 647.78,246.58 649.36,246.59 650.95,246.6 652.54,246.61 654.13,246.63 655.74,246.64 657.35,246.65 658.98,246.66 660.61,246.67 662.27,246.68 663.93,246.68 665.61,246.69 667.31,246.7 669.03,246.71 670.77,246.72 672.53,246.73 674.31,246.74 676.12,246.75 677.95,246.76 679.8,246.77 681.69,246.78 683.6,246.78 685.54,246.79 687.52,246.8 689.53,246.81 691.57,246.81 693.64,246.82 695.76,246.83 697.91,246.83 700.1,246.84 702.33,246.85 704.6,246.85 706.92,246.86 709.28,246.86 711.68,246.87 714.14,246.87 716.64,246.88 719.19,246.88 721.79,246.88 724.44,246.89 727.15,246.89 729.91,246.89 732.73,246.89 735.6,246.9 738.53,246.9 741.52,246.9 744.58,246.9 747.69,246.9 747.69,235.29 744.58,235.29 741.52,235.29 738.53,235.28 735.6,235.28 732.73,235.28 729.91,235.28 727.15,235.28 724.44,235.27 721.79,235.27 719.19,235.27 716.64,235.26 714.14,235.26 711.68,235.25 709.28,235.25 706.92,235.24 704.6,235.24 702.33,235.23 700.1,235.23 697.91,235.22 695.76,235.21 693.64,235.21 691.57,235.2 689.53,235.19 687.52,235.19 685.54,235.18 683.6,235.17 681.69,235.16 679.8,235.15 677.95,235.14 676.12,235.14 674.31,235.13 672.53,235.12 670.77,235.11 669.03,235.1 667.31,235.09 665.61,235.08 663.93,235.07 662.27,235.06 660.61,235.05 658.98,235.04 657.35,235.03 655.74,235.02 654.13,235.01 652.54,235 650.95,234.99 649.36,234.98 647.78,234.97 646.21,234.96 644.63,234.95 643.06,234.94 641.49,234.93 639.91,234.92 638.33,234.91 636.75,234.9 635.16,234.89 633.56,234.88 631.96,234.87 630.34,234.86 628.72,234.85 627.08,234.84 625.43,234.83 623.76,234.82 622.08,234.81 620.38,234.8 618.66,234.79 616.92,234.78 615.16,234.77 613.38,234.76 611.58,234.75 609.75,234.74 607.89,234.74 606.01,234.73 604.09,234.72 602.15,234.71 600.17,234.7 598.17,234.7 596.13,234.69 594.05,234.68 591.93,234.68 589.78,234.67 587.59,234.66 585.36,234.66 583.09,234.65 580.77,234.65 578.41,234.64 576.01,234.64 573.55,234.63 571.05,234.63 568.5,234.62 565.9,234.62 563.25,234.62 560.54,234.61 557.78,234.61 554.97,234.61 552.09,234.61 549.16,234.6 546.17,234.6 543.12,234.6 540,234.6 540,246.22 543.12,246.22 "
       style="fill:#5faacb;fill-opacity:0.55;stroke:none;stroke-width:1.07"
       id="polygon453" />
    <polygon
       points="546.17,274.91 549.16,274.91 552.09,274.91 554.97,274.91 557.78,274.91 560.54,274.91 563.25,274.91 565.9,274.91 568.5,274.91 571.05,274.91 573.55,274.91 576.01,274.91 578.41,274.91 580.77,274.91 583.09,274.91 585.36,274.91 587.59,274.91 589.78,274.91 591.93,274.91 594.05,274.91 596.13,274.91 598.17,274.91 600.17,274.91 602.15,274.91 604.09,274.91 606.01,274.91 607.89,274.91 609.75,274.91 611.58,274.91 613.38,274.91 615.16,274.91 616.92,274.91 618.66,274.91 620.38,274.91 622.08,274.91 623.76,274.91 625.43,274.91 627.08,274.91 628.72,274.91 630.34,274.91 631.96,274.91 633.56,274.91 635.16,274.91 636.75,274.91 638.33,274.91 639.91,274.91 641.49,274.91 643.06,274.91 644.63,274.91 646.21,274.91 647.78,274.91 649.36,274.91 650.95,274.91 652.54,274.91 654.13,274.91 655.74,274.91 657.35,274.91 658.98,274.91 660.61,274.91 662.27,274.91 663.93,274.91 665.61,274.91 667.31,274.91 669.03,274.91 670.77,274.91 672.53,274.91 674.31,274.91 676.12,274.91 677.95,274.91 679.8,274.91 681.69,274.91 683.6,274.91 685.54,274.91 687.52,274.91 689.53,274.91 691.57,274.91 693.64,274.91 695.76,274.91 697.91,274.91 700.1,274.91 702.33,274.91 704.6,274.91 706.92,274.91 709.28,274.91 711.68,274.91 714.14,274.91 716.64,274.91 719.19,274.91 721.79,274.91 724.44,274.91 727.15,274.91 729.91,274.91 732.73,274.91 735.6,274.91 738.53,274.91 741.52,274.91 744.58,274.91 747.69,274.91 747.69,251.68 744.58,251.68 741.52,251.68 738.53,251.68 735.6,251.68 732.73,251.68 729.91,251.68 727.15,251.68 724.44,251.68 721.79,251.68 719.19,251.68 716.64,251.68 714.14,251.68 711.68,251.68 709.28,251.68 706.92,251.68 704.6,251.68 702.33,251.68 700.1,251.68 697.91,251.68 695.76,251.68 693.64,251.68 691.57,251.68 689.53,251.68 687.52,251.68 685.54,251.68 683.6,251.68 681.69,251.68 679.8,251.68 677.95,251.68 676.12,251.68 674.31,251.68 672.53,251.68 670.77,251.68 669.03,251.68 667.31,251.68 665.61,251.68 663.93,251.68 662.27,251.68 660.61,251.68 658.98,251.68 657.35,251.68 655.74,251.68 654.13,251.68 652.54,251.68 650.95,251.68 649.36,251.68 647.78,251.68 646.21,251.68 644.63,251.68 643.06,251.68 641.49,251.68 639.91,251.68 638.33,251.68 636.75,251.68 635.16,251.68 633.56,251.68 631.96,251.68 630.34,251.68 628.72,251.68 627.08,251.68 625.43,251.68 623.76,251.68 622.08,251.68 620.38,251.68 618.66,251.68 616.92,251.68 615.16,251.68 613.38,251.68 611.58,251.68 609.75,251.68 607.89,251.68 606.01,251.68 604.09,251.68 602.15,251.68 600.17,251.68 598.17,251.68 596.13,251.68 594.05,251.68 591.93,251.68 589.78,251.68 587.59,251.68 585.36,251.68 583.09,251.68 580.77,251.68 578.41,251.68 576.01,251.68 573.55,251.68 571.05,251.68 568.5,251.68 565.9,251.68 563.25,251.68 560.54,251.68 557.78,251.68 554.97,251.68 552.09,251.68 549.16,251.68 546.17,251.68 543.12,251.68 540,251.68 540,274.91 543.12,274.91 "
       style="fill:#f3a992;fill-opacity:0.55;stroke:none;stroke-width:1.07"
       id="polygon455" />
    <polygon
       points="753.86,50.66 756.85,50.66 759.78,50.66 762.66,50.66 765.48,50.66 768.24,50.66 770.94,50.66 773.6,50.66 776.2,50.66 778.75,50.66 781.25,50.66 783.7,50.66 786.11,50.66 788.47,50.66 790.78,50.66 793.05,50.66 795.29,50.66 797.48,50.66 799.63,50.66 801.74,50.66 803.82,50.66 805.86,50.66 807.87,50.66 809.84,50.66 811.79,50.66 813.7,50.66 815.58,50.66 817.44,50.66 819.27,50.66 821.07,50.66 822.86,50.66 824.62,50.66 826.35,50.66 828.07,50.66 829.77,50.66 831.45,50.66 833.12,50.66 834.77,50.66 836.41,50.66 838.03,50.66 839.65,50.66 841.25,50.66 842.85,50.66 844.44,50.66 846.02,50.66 847.6,50.66 849.18,50.66 850.75,50.66 852.33,50.66 853.9,50.66 855.48,50.66 857.05,50.66 858.64,50.66 860.23,50.66 861.82,50.66 863.43,50.66 865.04,50.66 866.67,50.66 868.31,50.66 869.96,50.66 871.62,50.66 873.31,50.66 875.01,50.66 876.72,50.66 878.46,50.66 880.22,50.66 882,50.66 883.81,50.66 885.64,50.66 887.49,50.66 889.38,50.66 891.29,50.66 893.24,50.66 895.21,50.66 897.22,50.66 899.26,50.66 901.34,50.66 903.45,50.66 905.6,50.66 907.79,50.66 910.02,50.66 912.3,50.66 914.61,50.66 916.97,50.66 919.38,50.66 921.83,50.66 924.33,50.66 926.88,50.66 929.48,50.66 932.13,50.66 934.84,50.66 937.6,50.66 940.42,50.66 943.29,50.66 946.22,50.66 949.22,50.66 952.27,50.66 955.38,50.66 955.38,13.09 952.27,13.09 949.22,13.09 946.22,13.09 943.29,13.09 940.42,13.09 937.6,13.09 934.84,13.09 932.13,13.09 929.48,13.09 926.88,13.09 924.33,13.09 921.83,13.09 919.38,13.09 916.97,13.09 914.61,13.09 912.3,13.09 910.02,13.09 907.79,13.09 905.6,13.09 903.45,13.09 901.34,13.09 899.26,13.09 897.22,13.09 895.21,13.09 893.24,13.09 891.29,13.09 889.38,13.09 887.49,13.09 885.64,13.09 883.81,13.09 882,13.09 880.22,13.09 878.46,13.09 876.72,13.09 875.01,13.09 873.31,13.09 871.62,13.09 869.96,13.09 868.31,13.09 866.67,13.09 865.04,13.09 863.43,13.09 861.82,13.09 860.23,13.09 858.64,13.09 857.05,13.09 855.48,13.09 853.9,13.09 852.33,13.09 850.75,13.09 849.18,13.09 847.6,13.09 846.02,13.09 844.44,13.09 842.85,13.09 841.25,13.09 839.65,13.09 838.03,13.09 836.41,13.09 834.77,13.09 833.12,13.09 831.45,13.09 829.77,13.09 828.07,13.09 826.35,13.09 824.62,13.09 822.86,13.09 821.07,13.09 819.27,13.09 817.44,13.09 815.58,13.09 813.7,13.09 811.79,13.09 809.84,13.09 807.87,13.09 805.86,13.09 803.82,13.09 801.74,13.09 799.63,13.09 797.48,13.09 795.29,13.09 793.05,13.09 790.78,13.09 788.47,13.09 786.11,13.09 783.7,13.09 781.25,13.09 778.75,13.09 776.2,13.09 773.6,13.09 770.94,13.09 768.24,13.09 765.48,13.09 762.66,13.09 759.78,13.09 756.85,13.09 753.86,13.09 750.81,13.09 747.69,13.09 747.69,50.66 750.81,50.66 "
       style="fill:#5faacb;fill-opacity:0.55;stroke:none;stroke-width:1.07"
       id="polygon457" />
    <polygon
       points="753.86,213.95 756.85,213.95 759.78,213.97 762.66,213.98 765.48,214 768.24,214.03 770.94,214.05 773.6,214.08 776.2,214.11 778.75,214.15 781.25,214.19 783.7,214.23 786.11,214.27 788.47,214.32 790.78,214.37 793.05,214.42 795.29,214.47 797.48,214.53 799.63,214.59 801.74,214.65 803.82,214.71 805.86,214.78 807.87,214.85 809.84,214.92 811.79,214.99 813.7,215.06 815.58,215.13 817.44,215.21 819.27,215.29 821.07,215.37 822.86,215.45 824.62,215.53 826.35,215.62 828.07,215.7 829.77,215.79 831.45,215.87 833.12,215.96 834.77,216.05 836.41,216.14 838.03,216.23 839.65,216.32 841.25,216.41 842.85,216.5 844.44,216.59 846.02,216.69 847.6,216.78 849.18,216.87 850.75,216.97 852.33,217.06 853.9,217.15 855.48,217.24 857.05,217.34 858.64,217.43 860.23,217.52 861.82,217.61 863.43,217.71 865.04,217.8 866.67,217.89 868.31,217.98 869.96,218.06 871.62,218.15 873.31,218.24 875.01,218.32 876.72,218.41 878.46,218.49 880.22,218.57 882,218.66 883.81,218.73 885.64,218.81 887.49,218.89 889.38,218.96 891.29,219.04 893.24,219.11 895.21,219.18 897.22,219.24 899.26,219.31 901.34,219.37 903.45,219.43 905.6,219.49 907.79,219.55 910.02,219.6 912.3,219.66 914.61,219.71 916.97,219.75 919.38,219.8 921.83,219.84 924.33,219.88 926.88,219.91 929.48,219.94 932.13,219.97 934.84,220 937.6,220.02 940.42,220.04 943.29,220.06 946.22,220.07 949.22,220.08 952.27,220.08 955.38,220.09 955.38,64.33 952.27,64.33 949.22,64.32 946.22,64.31 943.29,64.3 940.42,64.28 937.6,64.26 934.84,64.24 932.13,64.21 929.48,64.18 926.88,64.15 924.33,64.12 921.83,64.08 919.38,64.04 916.97,63.99 914.61,63.95 912.3,63.9 910.02,63.85 907.79,63.79 905.6,63.73 903.45,63.68 901.34,63.61 899.26,63.55 897.22,63.49 895.21,63.42 893.24,63.35 891.29,63.28 889.38,63.2 887.49,63.13 885.64,63.05 883.81,62.98 882,62.9 880.22,62.82 878.46,62.73 876.72,62.65 875.01,62.57 873.31,62.48 871.62,62.39 869.96,62.31 868.31,62.22 866.67,62.13 865.04,62.04 863.43,61.95 861.82,61.86 860.23,61.76 858.64,61.67 857.05,61.58 855.48,61.49 853.9,61.39 852.33,61.3 850.75,61.21 849.18,61.11 847.6,61.02 846.02,60.93 844.44,60.84 842.85,60.74 841.25,60.65 839.65,60.56 838.03,60.47 836.41,60.38 834.77,60.29 833.12,60.2 831.45,60.11 829.77,60.03 828.07,59.94 826.35,59.86 824.62,59.77 822.86,59.69 821.07,59.61 819.27,59.53 817.44,59.45 815.58,59.38 813.7,59.3 811.79,59.23 809.84,59.16 807.87,59.09 805.86,59.02 803.82,58.95 801.74,58.89 799.63,58.83 797.48,58.77 795.29,58.71 793.05,58.66 790.78,58.61 788.47,58.56 786.11,58.51 783.7,58.47 781.25,58.43 778.75,58.39 776.2,58.35 773.6,58.32 770.94,58.29 768.24,58.27 765.48,58.24 762.66,58.22 759.78,58.21 756.85,58.2 753.86,58.19 750.81,58.18 747.69,58.18 747.69,213.94 750.81,213.94 "
       style="fill:#f3a992;fill-opacity:0.55;stroke:none;stroke-width:1.07"
       id="polygon459" />
    <polygon
       points="753.86,244.63 756.85,244.36 759.78,243.99 762.66,243.52 765.48,242.94 768.24,242.27 770.94,241.5 773.6,240.65 776.2,239.7 778.75,238.66 781.25,237.54 783.7,236.33 786.11,235.04 788.47,233.67 790.78,232.23 793.05,230.71 795.29,229.12 797.48,227.45 799.63,225.72 801.74,223.93 803.82,222.07 805.86,220.15 807.87,218.17 809.84,216.13 811.79,214.04 813.7,211.89 815.58,209.7 817.44,207.45 819.27,205.17 821.07,202.83 822.86,200.46 824.62,198.05 826.35,195.6 828.07,193.11 829.77,190.6 831.45,188.05 833.12,185.48 834.77,182.88 836.41,180.25 838.03,177.61 839.65,174.95 841.25,172.27 842.85,169.57 844.44,166.86 846.02,164.15 847.6,161.42 849.18,158.69 850.75,155.96 852.33,153.22 853.9,150.49 855.48,147.76 857.05,145.03 858.64,142.31 860.23,139.61 861.82,136.91 863.43,134.23 865.04,131.57 866.67,128.92 868.31,126.3 869.96,123.7 871.62,121.13 873.31,118.58 875.01,116.06 876.72,113.58 878.46,111.13 880.22,108.72 882,106.34 883.81,104.01 885.64,101.72 887.49,99.48 889.38,97.29 891.29,95.14 893.24,93.05 895.21,91.01 897.22,89.03 899.26,87.11 901.34,85.25 903.45,83.45 905.6,81.72 907.79,80.06 910.02,78.47 912.3,76.95 914.61,75.5 916.97,74.14 919.38,72.85 921.83,71.64 924.33,70.52 926.88,69.48 929.48,68.53 932.13,67.67 934.84,66.91 937.6,66.24 940.42,65.66 943.29,65.19 946.22,64.81 949.22,64.55 952.27,64.38 955.38,64.33 955.38,50.66 952.27,50.72 949.22,50.88 946.22,51.15 943.29,51.52 940.42,52 937.6,52.57 934.84,53.24 932.13,54.01 929.48,54.87 926.88,55.82 924.33,56.86 921.83,57.98 919.38,59.19 916.97,60.47 914.61,61.84 912.3,63.29 910.02,64.81 907.79,66.4 905.6,68.06 903.45,69.79 901.34,71.59 899.26,73.45 897.22,75.37 895.21,77.35 893.24,79.39 891.29,81.48 889.38,83.62 887.49,85.82 885.64,88.06 883.81,90.35 882,92.68 880.22,95.05 878.46,97.47 876.72,99.92 875.01,102.4 873.31,104.92 871.62,107.46 869.96,110.04 868.31,112.64 866.67,115.26 865.04,117.91 863.43,120.57 861.82,123.25 860.23,125.94 858.64,128.65 857.05,131.37 855.48,134.09 853.9,136.82 852.33,139.56 850.75,142.29 849.18,145.03 847.6,147.76 846.02,150.48 844.44,153.2 842.85,155.91 841.25,158.6 839.65,161.28 838.03,163.95 836.41,166.59 834.77,169.21 833.12,171.81 831.45,174.39 829.77,176.94 828.07,179.45 826.35,181.94 824.62,184.39 822.86,186.8 821.07,189.17 819.27,191.5 817.44,193.79 815.58,196.03 813.7,198.23 811.79,200.37 809.84,202.47 807.87,204.5 805.86,206.48 803.82,208.41 801.74,210.27 799.63,212.06 797.48,213.79 795.29,215.45 793.05,217.05 790.78,218.57 788.47,220.01 786.11,221.38 783.7,222.67 781.25,223.87 778.75,225 776.2,226.03 773.6,226.98 770.94,227.84 768.24,228.61 765.48,229.28 762.66,229.85 759.78,230.33 756.85,230.7 753.86,230.97 750.81,231.13 747.69,231.19 747.69,244.85 750.81,244.8 "
       style="fill:#5faacb;fill-opacity:0.55;stroke:none;stroke-width:1.07"
       id="polygon461" />
    <polygon
       points="753.86,273.51 756.85,273.47 759.78,273.42 762.66,273.34 765.48,273.26 768.24,273.16 770.94,273.05 773.6,272.92 776.2,272.78 778.75,272.62 781.25,272.46 783.7,272.28 786.11,272.09 788.47,271.88 790.78,271.67 793.05,271.44 795.29,271.21 797.48,270.96 799.63,270.7 801.74,270.44 803.82,270.16 805.86,269.87 807.87,269.58 809.84,269.28 811.79,268.97 813.7,268.65 815.58,268.32 817.44,267.99 819.27,267.65 821.07,267.3 822.86,266.95 824.62,266.59 826.35,266.23 828.07,265.86 829.77,265.48 831.45,265.11 833.12,264.72 834.77,264.34 836.41,263.95 838.03,263.56 839.65,263.16 841.25,262.76 842.85,262.36 844.44,261.96 846.02,261.56 847.6,261.15 849.18,260.75 850.75,260.34 852.33,259.93 853.9,259.53 855.48,259.12 857.05,258.72 858.64,258.31 860.23,257.91 861.82,257.51 863.43,257.11 865.04,256.72 866.67,256.32 868.31,255.93 869.96,255.55 871.62,255.17 873.31,254.79 875.01,254.41 876.72,254.04 878.46,253.68 880.22,253.32 882,252.97 883.81,252.62 885.64,252.28 887.49,251.95 889.38,251.62 891.29,251.31 893.24,251 895.21,250.69 897.22,250.4 899.26,250.11 901.34,249.84 903.45,249.57 905.6,249.31 907.79,249.07 910.02,248.83 912.3,248.6 914.61,248.39 916.97,248.19 919.38,247.99 921.83,247.82 924.33,247.65 926.88,247.49 929.48,247.35 932.13,247.23 934.84,247.11 937.6,247.01 940.42,246.93 943.29,246.86 946.22,246.8 949.22,246.76 952.27,246.74 955.38,246.73 955.38,220.09 952.27,220.09 949.22,220.12 946.22,220.16 943.29,220.21 940.42,220.28 937.6,220.37 934.84,220.47 932.13,220.58 929.48,220.71 926.88,220.85 924.33,221.01 921.83,221.17 919.38,221.35 916.97,221.54 914.61,221.75 912.3,221.96 910.02,222.19 907.79,222.42 905.6,222.67 903.45,222.93 901.34,223.19 899.26,223.47 897.22,223.76 895.21,224.05 893.24,224.35 891.29,224.66 889.38,224.98 887.49,225.31 885.64,225.64 883.81,225.98 882,226.33 880.22,226.68 878.46,227.04 876.72,227.4 875.01,227.77 873.31,228.14 871.62,228.52 869.96,228.9 868.31,229.29 866.67,229.68 865.04,230.07 863.43,230.47 861.82,230.87 860.23,231.27 858.64,231.67 857.05,232.07 855.48,232.48 853.9,232.88 852.33,233.29 850.75,233.7 849.18,234.1 847.6,234.51 846.02,234.91 844.44,235.32 842.85,235.72 841.25,236.12 839.65,236.52 838.03,236.91 836.41,237.31 834.77,237.69 833.12,238.08 831.45,238.46 829.77,238.84 828.07,239.22 826.35,239.58 824.62,239.95 822.86,240.31 821.07,240.66 819.27,241.01 817.44,241.35 815.58,241.68 813.7,242 811.79,242.32 809.84,242.63 807.87,242.94 805.86,243.23 803.82,243.52 801.74,243.79 799.63,244.06 797.48,244.32 795.29,244.56 793.05,244.8 790.78,245.03 788.47,245.24 786.11,245.44 783.7,245.63 781.25,245.81 778.75,245.98 776.2,246.13 773.6,246.28 770.94,246.4 768.24,246.52 765.48,246.62 762.66,246.7 759.78,246.77 756.85,246.83 753.86,246.87 750.81,246.89 747.69,246.9 747.69,273.54 750.81,273.53 "
       style="fill:#f3a992;fill-opacity:0.55;stroke:none;stroke-width:1.07"
       id="polygon463" />
    <polygon
       points="753.86,58.43 756.85,58.74 759.78,59.17 762.66,59.72 765.48,60.38 768.24,61.16 770.94,62.04 773.6,63.04 776.2,64.13 778.75,65.33 781.25,66.63 783.7,68.02 786.11,69.51 788.47,71.09 790.78,72.76 793.05,74.51 795.29,76.35 797.48,78.27 799.63,80.27 801.74,82.35 803.82,84.5 805.86,86.72 807.87,89 809.84,91.36 811.79,93.77 813.7,96.25 815.58,98.79 817.44,101.38 819.27,104.02 821.07,106.71 822.86,109.46 824.62,112.24 826.35,115.07 828.07,117.94 829.77,120.85 831.45,123.79 833.12,126.76 834.77,129.77 836.41,132.8 838.03,135.85 839.65,138.93 841.25,142.03 842.85,145.14 844.44,148.27 846.02,151.41 847.6,154.55 849.18,157.71 850.75,160.87 852.33,164.02 853.9,167.18 855.48,170.34 857.05,173.49 858.64,176.62 860.23,179.75 861.82,182.86 863.43,185.96 865.04,189.04 866.67,192.09 868.31,195.12 869.96,198.13 871.62,201.1 873.31,204.04 875.01,206.95 876.72,209.82 878.46,212.65 880.22,215.43 882,218.18 883.81,220.87 885.64,223.51 887.49,226.1 889.38,228.64 891.29,231.12 893.24,233.53 895.21,235.89 897.22,238.17 899.26,240.39 901.34,242.54 903.45,244.62 905.6,246.62 907.79,248.54 910.02,250.38 912.3,252.13 914.61,253.8 916.97,255.38 919.38,256.87 921.83,258.26 924.33,259.56 926.88,260.76 929.48,261.85 932.13,262.85 934.84,263.73 937.6,264.51 940.42,265.17 943.29,265.72 946.22,266.15 949.22,266.46 952.27,266.65 955.38,266.71 955.38,259.2 952.27,259.13 949.22,258.94 946.22,258.63 943.29,258.2 940.42,257.65 937.6,256.99 934.84,256.22 932.13,255.33 929.48,254.34 926.88,253.24 924.33,252.05 921.83,250.75 919.38,249.35 916.97,247.87 914.61,246.29 912.3,244.62 910.02,242.86 907.79,241.02 905.6,239.1 903.45,237.1 901.34,235.03 899.26,232.88 897.22,230.66 895.21,228.37 893.24,226.02 891.29,223.6 889.38,221.12 887.49,218.59 885.64,216 883.81,213.36 882,210.66 880.22,207.92 878.46,205.13 876.72,202.3 875.01,199.43 873.31,196.53 871.62,193.59 869.96,190.61 868.31,187.61 866.67,184.58 865.04,181.52 863.43,178.45 861.82,175.35 860.23,172.24 858.64,169.11 857.05,165.97 855.48,162.82 853.9,159.67 852.33,156.51 850.75,153.35 849.18,150.19 847.6,147.04 846.02,143.89 844.44,140.75 842.85,137.62 841.25,134.51 839.65,131.41 838.03,128.34 836.41,125.28 834.77,122.25 833.12,119.25 831.45,116.28 829.77,113.33 828.07,110.43 826.35,107.56 824.62,104.73 822.86,101.94 821.07,99.2 819.27,96.51 817.44,93.86 815.58,91.27 813.7,88.74 811.79,86.26 809.84,83.84 807.87,81.49 805.86,79.2 803.82,76.98 801.74,74.83 799.63,72.76 797.48,70.76 795.29,68.84 793.05,67 790.78,65.24 788.47,63.58 786.11,62 783.7,60.51 781.25,59.11 778.75,57.82 776.2,56.62 773.6,55.52 770.94,54.53 768.24,53.64 765.48,52.87 762.66,52.21 759.78,51.66 756.85,51.23 753.86,50.92 750.81,50.73 747.69,50.66 747.69,58.18 750.81,58.24 "
       style="fill:#5faacb;fill-opacity:0.55;stroke:none;stroke-width:1.07"
       id="polygon465" />
    <polygon
       points="753.86,218.79 756.85,218.87 759.78,218.98 762.66,219.13 765.48,219.3 768.24,219.5 770.94,219.74 773.6,220 776.2,220.28 778.75,220.6 781.25,220.94 783.7,221.31 786.11,221.7 788.47,222.11 790.78,222.55 793.05,223.01 795.29,223.5 797.48,224 799.63,224.53 801.74,225.07 803.82,225.64 805.86,226.22 807.87,226.82 809.84,227.44 811.79,228.08 813.7,228.73 815.58,229.4 817.44,230.08 819.27,230.77 821.07,231.48 822.86,232.2 824.62,232.93 826.35,233.68 828.07,234.43 829.77,235.2 831.45,235.97 833.12,236.75 834.77,237.54 836.41,238.34 838.03,239.14 839.65,239.95 841.25,240.76 842.85,241.58 844.44,242.4 846.02,243.23 847.6,244.06 849.18,244.89 850.75,245.72 852.33,246.55 853.9,247.38 855.48,248.21 857.05,249.03 858.64,249.86 860.23,250.68 861.82,251.5 863.43,252.31 865.04,253.12 866.67,253.93 868.31,254.72 869.96,255.51 871.62,256.29 873.31,257.07 875.01,257.83 876.72,258.59 878.46,259.33 880.22,260.06 882,260.78 883.81,261.49 885.64,262.19 887.49,262.87 889.38,263.53 891.29,264.19 893.24,264.82 895.21,265.44 897.22,266.04 899.26,266.62 901.34,267.19 903.45,267.73 905.6,268.26 907.79,268.76 910.02,269.25 912.3,269.71 914.61,270.15 916.97,270.56 919.38,270.96 921.83,271.32 924.33,271.66 926.88,271.98 929.48,272.27 932.13,272.53 934.84,272.76 937.6,272.96 940.42,273.14 943.29,273.28 946.22,273.39 949.22,273.48 952.27,273.53 955.38,273.54 955.38,268.76 952.27,268.74 949.22,268.69 946.22,268.61 943.29,268.5 940.42,268.36 937.6,268.18 934.84,267.98 932.13,267.74 929.48,267.48 926.88,267.2 924.33,266.88 921.83,266.54 919.38,266.17 916.97,265.78 914.61,265.37 912.3,264.93 910.02,264.47 907.79,263.98 905.6,263.48 903.45,262.95 901.34,262.41 899.26,261.84 897.22,261.26 895.21,260.66 893.24,260.04 891.29,259.4 889.38,258.75 887.49,258.09 885.64,257.4 883.81,256.71 882,256 880.22,255.28 878.46,254.55 876.72,253.8 875.01,253.05 873.31,252.28 871.62,251.51 869.96,250.73 868.31,249.94 866.67,249.14 865.04,248.34 863.43,247.53 861.82,246.72 860.23,245.9 858.64,245.08 857.05,244.25 855.48,243.42 853.9,242.59 852.33,241.76 850.75,240.93 849.18,240.1 847.6,239.27 846.02,238.45 844.44,237.62 842.85,236.8 841.25,235.98 839.65,235.17 838.03,234.36 836.41,233.55 834.77,232.76 833.12,231.97 831.45,231.19 829.77,230.41 828.07,229.65 826.35,228.89 824.62,228.15 822.86,227.42 821.07,226.7 819.27,225.99 817.44,225.29 815.58,224.61 813.7,223.95 811.79,223.3 809.84,222.66 807.87,222.04 805.86,221.44 803.82,220.86 801.74,220.29 799.63,219.75 797.48,219.22 795.29,218.72 793.05,218.23 790.78,217.77 788.47,217.33 786.11,216.92 783.7,216.53 781.25,216.16 778.75,215.82 776.2,215.5 773.6,215.21 770.94,214.95 768.24,214.72 765.48,214.52 762.66,214.34 759.78,214.2 756.85,214.09 753.86,214 750.81,213.95 747.69,213.94 747.69,218.72 750.81,218.74 "
       style="fill:#f3a992;fill-opacity:0.55;stroke:none;stroke-width:1.07"
       id="polygon467" />
    <polygon
       points="753.86,246.93 756.85,246.96 759.78,247 762.66,247.06 765.48,247.13 768.24,247.21 770.94,247.31 773.6,247.41 776.2,247.52 778.75,247.65 781.25,247.79 783.7,247.93 786.11,248.09 788.47,248.25 790.78,248.43 793.05,248.61 795.29,248.81 797.48,249.01 799.63,249.22 801.74,249.43 803.82,249.66 805.86,249.89 807.87,250.13 809.84,250.38 811.79,250.63 813.7,250.89 815.58,251.16 817.44,251.43 819.27,251.71 821.07,251.99 822.86,252.28 824.62,252.57 826.35,252.86 828.07,253.16 829.77,253.47 831.45,253.78 833.12,254.09 834.77,254.4 836.41,254.72 838.03,255.04 839.65,255.37 841.25,255.69 842.85,256.02 844.44,256.34 846.02,256.67 847.6,257 849.18,257.33 850.75,257.66 852.33,258 853.9,258.33 855.48,258.66 857.05,258.99 858.64,259.32 860.23,259.64 861.82,259.97 863.43,260.3 865.04,260.62 866.67,260.94 868.31,261.26 869.96,261.57 871.62,261.88 873.31,262.19 875.01,262.5 876.72,262.8 878.46,263.09 880.22,263.39 882,263.67 883.81,263.96 885.64,264.23 887.49,264.5 889.38,264.77 891.29,265.03 893.24,265.28 895.21,265.53 897.22,265.77 899.26,266 901.34,266.23 903.45,266.44 905.6,266.65 907.79,266.86 910.02,267.05 912.3,267.23 914.61,267.41 916.97,267.57 919.38,267.73 921.83,267.88 924.33,268.01 926.88,268.14 929.48,268.25 932.13,268.36 934.84,268.45 937.6,268.53 940.42,268.6 943.29,268.66 946.22,268.7 949.22,268.73 952.27,268.75 955.38,268.76 955.38,266.71 952.27,266.7 949.22,266.68 946.22,266.65 943.29,266.61 940.42,266.55 937.6,266.48 934.84,266.4 932.13,266.31 929.48,266.2 926.88,266.09 924.33,265.96 921.83,265.83 919.38,265.68 916.97,265.52 914.61,265.36 912.3,265.18 910.02,265 907.79,264.81 905.6,264.6 903.45,264.4 901.34,264.18 899.26,263.95 897.22,263.72 895.21,263.48 893.24,263.23 891.29,262.98 889.38,262.72 887.49,262.45 885.64,262.18 883.81,261.91 882,261.62 880.22,261.34 878.46,261.04 876.72,260.75 875.01,260.45 873.31,260.14 871.62,259.83 869.96,259.52 868.31,259.21 866.67,258.89 865.04,258.57 863.43,258.25 861.82,257.92 860.23,257.6 858.64,257.27 857.05,256.94 855.48,256.61 853.9,256.28 852.33,255.95 850.75,255.62 849.18,255.28 847.6,254.95 846.02,254.62 844.44,254.29 842.85,253.97 841.25,253.64 839.65,253.32 838.03,252.99 836.41,252.67 834.77,252.36 833.12,252.04 831.45,251.73 829.77,251.42 828.07,251.12 826.35,250.81 824.62,250.52 822.86,250.23 821.07,249.94 819.27,249.66 817.44,249.38 815.58,249.11 813.7,248.84 811.79,248.58 809.84,248.33 807.87,248.08 805.86,247.84 803.82,247.61 801.74,247.38 799.63,247.17 797.48,246.96 795.29,246.76 793.05,246.56 790.78,246.38 788.47,246.2 786.11,246.04 783.7,245.88 781.25,245.74 778.75,245.6 776.2,245.47 773.6,245.36 770.94,245.26 768.24,245.16 765.48,245.08 762.66,245.01 759.78,244.95 756.85,244.91 753.86,244.88 750.81,244.86 747.69,244.85 747.69,246.9 750.81,246.91 "
       style="fill:#5faacb;fill-opacity:0.55;stroke:none;stroke-width:1.07"
       id="polygon469" />
    <polygon
       points="753.86,274.91 756.85,274.91 759.78,274.91 762.66,274.91 765.48,274.91 768.24,274.91 770.94,274.91 773.6,274.91 776.2,274.91 778.75,274.91 781.25,274.91 783.7,274.91 786.11,274.91 788.47,274.91 790.78,274.91 793.05,274.91 795.29,274.91 797.48,274.91 799.63,274.91 801.74,274.91 803.82,274.91 805.86,274.91 807.87,274.91 809.84,274.91 811.79,274.91 813.7,274.91 815.58,274.91 817.44,274.91 819.27,274.91 821.07,274.91 822.86,274.91 824.62,274.91 826.35,274.91 828.07,274.91 829.77,274.91 831.45,274.91 833.12,274.91 834.77,274.91 836.41,274.91 838.03,274.91 839.65,274.91 841.25,274.91 842.85,274.91 844.44,274.91 846.02,274.91 847.6,274.91 849.18,274.91 850.75,274.91 852.33,274.91 853.9,274.91 855.48,274.91 857.05,274.91 858.64,274.91 860.23,274.91 861.82,274.91 863.43,274.91 865.04,274.91 866.67,274.91 868.31,274.91 869.96,274.91 871.62,274.91 873.31,274.91 875.01,274.91 876.72,274.91 878.46,274.91 880.22,274.91 882,274.91 883.81,274.91 885.64,274.91 887.49,274.91 889.38,274.91 891.29,274.91 893.24,274.91 895.21,274.91 897.22,274.91 899.26,274.91 901.34,274.91 903.45,274.91 905.6,274.91 907.79,274.91 910.02,274.91 912.3,274.91 914.61,274.91 916.97,274.91 919.38,274.91 921.83,274.91 924.33,274.91 926.88,274.91 929.48,274.91 932.13,274.91 934.84,274.91 937.6,274.91 940.42,274.91 943.29,274.91 946.22,274.91 949.22,274.91 952.27,274.91 955.38,274.91 955.38,273.54 952.27,273.54 949.22,273.54 946.22,273.54 943.29,273.54 940.42,273.54 937.6,273.54 934.84,273.54 932.13,273.54 929.48,273.54 926.88,273.54 924.33,273.54 921.83,273.54 919.38,273.54 916.97,273.54 914.61,273.54 912.3,273.54 910.02,273.54 907.79,273.54 905.6,273.54 903.45,273.54 901.34,273.54 899.26,273.54 897.22,273.54 895.21,273.54 893.24,273.54 891.29,273.54 889.38,273.54 887.49,273.54 885.64,273.54 883.81,273.54 882,273.54 880.22,273.54 878.46,273.54 876.72,273.54 875.01,273.54 873.31,273.54 871.62,273.54 869.96,273.54 868.31,273.54 866.67,273.54 865.04,273.54 863.43,273.54 861.82,273.54 860.23,273.54 858.64,273.54 857.05,273.54 855.48,273.54 853.9,273.54 852.33,273.54 850.75,273.54 849.18,273.54 847.6,273.54 846.02,273.54 844.44,273.54 842.85,273.54 841.25,273.54 839.65,273.54 838.03,273.54 836.41,273.54 834.77,273.54 833.12,273.54 831.45,273.54 829.77,273.54 828.07,273.54 826.35,273.54 824.62,273.54 822.86,273.54 821.07,273.54 819.27,273.54 817.44,273.54 815.58,273.54 813.7,273.54 811.79,273.54 809.84,273.54 807.87,273.54 805.86,273.54 803.82,273.54 801.74,273.54 799.63,273.54 797.48,273.54 795.29,273.54 793.05,273.54 790.78,273.54 788.47,273.54 786.11,273.54 783.7,273.54 781.25,273.54 778.75,273.54 776.2,273.54 773.6,273.54 770.94,273.54 768.24,273.54 765.48,273.54 762.66,273.54 759.78,273.54 756.85,273.54 753.86,273.54 750.81,273.54 747.69,273.54 747.69,274.91 750.81,274.91 "
       style="fill:#f3a992;fill-opacity:0.55;stroke:none;stroke-width:1.07"
       id="polygon471" />
    <polygon
       points="129.81,25.56 119.42,25.56 119.42,274.91 129.81,274.91 "
       style="fill:#bbbbbb;stroke-width:1.07"
       id="polygon473" />
    <polygon
       points="337.5,86.36 327.12,86.36 327.12,274.91 337.5,274.91 "
       style="fill:#bbbbbb;stroke-width:1.07"
       id="polygon475" />
    <polygon
       points="337.5,13.09 327.12,13.09 327.12,73.89 337.5,73.89 "
       style="fill:#bbbbbb;stroke-width:1.07"
       id="polygon477" />
    <polygon
       points="545.19,229.82 534.81,229.82 534.81,274.91 545.19,274.91 "
       style="fill:#bbbbbb;stroke-width:1.07"
       id="polygon479" />
    <polygon
       points="545.19,13.09 534.81,13.09 534.81,217.35 545.19,217.35 "
       style="fill:#bbbbbb;stroke-width:1.07"
       id="polygon481" />
    <polygon
       points="752.88,231.19 742.5,231.19 742.5,274.91 752.88,274.91 "
       style="fill:#bbbbbb;stroke-width:1.07"
       id="polygon483" />
    <polygon
       points="752.88,13.09 742.5,13.09 742.5,218.72 752.88,218.72 "
       style="fill:#bbbbbb;stroke-width:1.07"
       id="polygon485" />
    <polygon
       points="960.58,259.2 950.19,259.2 950.19,274.91 960.58,274.91 "
       style="fill:#bbbbbb;stroke-width:1.07"
       id="polygon487" />
    <polygon
       points="960.58,13.09 950.19,13.09 950.19,246.73 960.58,246.73 "
       style="fill:#bbbbbb;stroke-width:1.07"
       id="polygon489" />
    <text
       x="141.23"
       y="156.45"
       style="font-size:17.07px;font-family:Arial"
       textLength="153.17"
       lengthAdjust="spacingAndGlyphs"
       id="text491"
       transform="translate(-4.5)"><tspan
         style="font-style:normal;font-variant:normal;font-weight:normal;font-stretch:normal;font-family:calibri;-inkscape-font-specification:calibri"
         id="tspan534">Microcin Hits: 365</tspan></text>
    <text
       x="348.92001"
       y="186.85001"
       style="font-size:17.07px;font-family:Arial"
       textLength="184.67999"
       lengthAdjust="spacingAndGlyphs"
       id="text493"
       transform="matrix(2,0,0,1,-353.5436,0)"><tspan
         sodipodi:role="line"
         id="tspan873"
         x="348.92001"
         y="186.85001"
         style="font-style:normal;font-variant:normal;font-weight:normal;font-stretch:normal;font-family:Calibri;-inkscape-font-specification:Calibri">Verified + other 100% </tspan><tspan
         sodipodi:role="line"
         id="tspan875"
         x="348.92001"
         y="208.1875"
         style="font-style:normal;font-variant:normal;font-weight:normal;font-stretch:normal;font-family:Calibri;-inkscape-font-specification:Calibri">pident microcins: 276</tspan></text>
    <text
       x="348.92001"
       y="49.709999"
       style="font-size:17.07px;font-family:Arial"
       textLength="157.7"
       lengthAdjust="spacingAndGlyphs"
       id="text495"
       transform="matrix(1.1,0,0,1,-41.129781,0)"><tspan
         style="font-style:normal;font-variant:normal;font-weight:normal;font-stretch:normal;font-family:Calibri;-inkscape-font-specification:Calibri"
         id="tspan532">Novel Microcins: 89</tspan></text>
    <text
       x="556.62"
       y="258.59"
       style="font-size:17.07px;font-family:Arial"
       textLength="140.67"
       lengthAdjust="spacingAndGlyphs"
       id="text497"
       transform="translate(-4.5)"><tspan
         style="font-style:normal;font-variant:normal;font-weight:normal;font-stretch:normal;font-family:Calibri;-inkscape-font-specification:Calibri"
         id="tspan530">PCAT Absent: 66</tspan></text>
    <text
       x="556.62"
       y="121.44"
       style="font-size:17.07px;font-family:Arial"
       textLength="165.02"
       lengthAdjust="spacingAndGlyphs"
       id="text499"
       transform="translate(-4.5)"><tspan
         style="font-style:normal;font-variant:normal;font-weight:normal;font-stretch:normal;font-family:Calibri;-inkscape-font-specification:Calibri"
         id="tspan528">Contains PCAT: 299</tspan></text>
    <text
       x="764.31"
       y="259.26999"
       style="font-size:17.07px;font-family:Arial"
       textLength="132.52"
       lengthAdjust="spacingAndGlyphs"
       id="text501"
       transform="translate(-4.5)"><tspan
         style="font-style:normal;font-variant:normal;font-weight:normal;font-stretch:normal;font-family:calibri;-inkscape-font-specification:calibri"
         id="tspan526">MFP Absent: 64</tspan></text>
    <text
       x="764.31"
       y="122.13"
       style="font-size:17.07px;font-family:Arial"
       textLength="158.75"
       lengthAdjust="spacingAndGlyphs"
       id="text503"
       transform="translate(-4.5)"><tspan
         style="font-style:normal;font-variant:normal;font-weight:normal;font-stretch:normal;font-family:calibri;-inkscape-font-specification:calibri"
         id="tspan524">Contains MFP: 301</tspan></text>
  </g>
  <text
     x="972"
     y="273.26999"
     style="font-size:19.799px;font-family:Arial"
     textLength="113.02"
     lengthAdjust="spacingAndGlyphs"
     id="text505"
     transform="matrix(2.0675343,0,0,0.95603252,-1151.2106,-8.4036065)"><tspan
       sodipodi:role="line"
       id="tspan462"
       x="972"
       y="273.26999"
       style="font-style:normal;font-variant:normal;font-weight:normal;font-stretch:normal;font-size:19.799px;font-family:calibri;-inkscape-font-specification:calibri">Immunity Protein</tspan><tspan
       sodipodi:role="line"
       id="tspan464"
       x="972"
       y="298.01874"
       style="font-style:normal;font-variant:normal;font-weight:normal;font-stretch:normal;font-size:19.799px;font-family:calibri;-inkscape-font-specification:calibri">Absent: 23</tspan></text>
  <text
     x="972"
     y="136.13"
     style="font-size:17.9991px;font-family:Arial"
     textLength="139.24001"
     lengthAdjust="spacingAndGlyphs"
     id="text507"
     transform="matrix(2.42,0,0,1,-1494.5147,-6.4000006)"><tspan
       sodipodi:role="line"
       id="tspan877"
       x="972"
       y="136.13"
       style="font-style:normal;font-variant:normal;font-weight:normal;font-stretch:normal;font-size:17.9991px;font-family:calibri;-inkscape-font-specification:calibri">Contains Putative</tspan><tspan
       sodipodi:role="line"
       id="tspan879"
       x="972"
       y="158.62888"
       style="font-style:normal;font-variant:normal;font-weight:normal;font-stretch:normal;font-size:17.9991px;font-family:calibri;-inkscape-font-specification:calibri">Immunity Protein: 342</tspan></text>
</svg>
