<?xml version="1.0" encoding="UTF-8" standalone="no"?>
<svg
   class="svglite"
   width="3348.4814pt"
   height="1094.1239pt"
   viewBox="0 0 3348.4815 1094.1239"
   version="1.1"
   id="svg103"
   sodipodi:docname="04_sankey_AF_diag_text.svg"
   inkscape:version="1.2 (56b05e47e7, 2022-06-09, custom)"
   inkscape:export-filename="../38fde08a/04_sankey_AF.png"
   inkscape:export-xdpi="300"
   inkscape:export-ydpi="300"
   xmlns:inkscape="http://www.inkscape.org/namespaces/inkscape"
   xmlns:sodipodi="http://sodipodi.sourceforge.net/DTD/sodipodi-0.dtd"
   xmlns="http://www.w3.org/2000/svg"
   xmlns:svg="http://www.w3.org/2000/svg">
  <sodipodi:namedview
     id="namedview105"
     pagecolor="#ffffff"
     bordercolor="#000000"
     borderopacity="0.25"
     inkscape:showpageshadow="2"
     inkscape:pageopacity="0.0"
     inkscape:pagecheckerboard="0"
     inkscape:deskcolor="#d1d1d1"
     inkscape:document-units="pt"
     showgrid="false"
     inkscape:zoom="0.22627417"
     inkscape:cx="2180.9825"
     inkscape:cy="1168.9359"
     inkscape:window-width="1920"
     inkscape:window-height="1016"
     inkscape:window-x="1920"
     inkscape:window-y="27"
     inkscape:window-maximized="1"
     inkscape:current-layer="svg103" />
  <defs
     id="defs20">
    <style
       type="text/css"
       id="style18"><![CDATA[
    .svglite line, .svglite polyline, .svglite polygon, .svglite path, .svglite rect, .svglite circle {
      fill: none;
      stroke: #000000;
      stroke-linecap: round;
      stroke-linejoin: round;
      stroke-miterlimit: 10.00;
    }
    .svglite text {
      white-space: pre;
    }
  ]]></style>
    <clipPath
       clipPathUnits="userSpaceOnUse"
       id="clipPath6908">
      <rect
         x="-1.4990235e-06"
         y="-1.2219238e-06"
         width="3300"
         height="1000.0001"
         id="rect6910"
         style="stroke-width:0.999998" />
    </clipPath>
    <clipPath
       clipPathUnits="userSpaceOnUse"
       id="clipPath6912">
      <rect
         x="-1.4990235e-06"
         y="-1.2219238e-06"
         width="3300"
         height="1000.0001"
         id="rect6914"
         style="stroke-width:0.999998" />
    </clipPath>
    <clipPath
       clipPathUnits="userSpaceOnUse"
       id="clipPath6916">
      <rect
         x="-1.4990235e-06"
         y="-1.2219238e-06"
         width="3300"
         height="1000.0001"
         id="rect6918"
         style="stroke-width:0.999998" />
    </clipPath>
    <clipPath
       clipPathUnits="userSpaceOnUse"
       id="clipPath6920">
      <rect
         x="-1.4990235e-06"
         y="-1.2219238e-06"
         width="3300"
         height="1000.0001"
         id="rect6922"
         style="stroke-width:0.999998" />
    </clipPath>
    <clipPath
       clipPathUnits="userSpaceOnUse"
       id="clipPath6924">
      <rect
         x="-1.4990235e-06"
         y="-1.2219238e-06"
         width="3300"
         height="1000.0001"
         id="rect6926"
         style="stroke-width:0.999998" />
    </clipPath>
    <clipPath
       clipPathUnits="userSpaceOnUse"
       id="clipPath6928">
      <rect
         x="-1.4990235e-06"
         y="-1.2219238e-06"
         width="3300"
         height="1000.0001"
         id="rect6930"
         style="stroke-width:0.999998" />
    </clipPath>
    <clipPath
       clipPathUnits="userSpaceOnUse"
       id="clipPath6932">
      <rect
         x="-1.4990235e-06"
         y="-1.2219238e-06"
         width="3300"
         height="1000.0001"
         id="rect6934"
         style="stroke-width:0.999998" />
    </clipPath>
    <clipPath
       clipPathUnits="userSpaceOnUse"
       id="clipPath6936">
      <rect
         x="-1.4990235e-06"
         y="-1.2219238e-06"
         width="3300"
         height="1000.0001"
         id="rect6938"
         style="stroke-width:0.999998" />
    </clipPath>
    <clipPath
       clipPathUnits="userSpaceOnUse"
       id="clipPath6940">
      <rect
         x="-1.4990235e-06"
         y="-1.2219238e-06"
         width="3300"
         height="1000.0001"
         id="rect6942"
         style="stroke-width:0.999998" />
    </clipPath>
  </defs>
  <rect
     width="100%"
     height="100%"
     style="fill:none;stroke:none"
     id="rect22"
     x="-308.94205"
     y="51.241566" />
  <defs
     id="defs27" />
  <polygon
     points="532.89,428.52 539.46,428.11 545.92,427.68 552.26,427.23 558.5,426.77 564.64,426.29 570.67,425.81 576.61,425.3 582.45,424.79 588.21,424.26 593.88,423.73 599.48,423.18 604.99,422.62 610.44,422.05 615.81,421.47 621.12,420.88 626.37,420.29 631.56,419.68 636.7,419.07 641.79,418.46 646.84,417.83 651.84,417.2 656.81,416.57 661.74,415.93 666.65,415.29 671.53,414.64 676.38,413.99 681.22,413.34 686.05,412.69 690.86,412.03 695.67,411.38 700.48,410.72 705.29,410.06 710.11,409.41 714.93,408.76 719.77,408.1 724.63,407.46 729.51,406.81 734.41,406.17 739.34,405.53 744.31,404.89 749.31,404.26 754.36,403.64 759.45,403.02 764.59,402.41 769.78,401.81 775.03,401.21 780.34,400.63 785.72,400.05 791.16,399.48 796.68,398.92 802.27,398.37 807.94,397.83 813.7,397.31 819.55,396.79 825.48,396.29 831.52,395.8 837.65,395.33 843.89,394.87 850.24,394.42 856.69,393.99 863.27,393.57 869.96,393.18 876.78,392.79 883.72,392.43 890.8,392.08 898.01,391.76 905.36,391.45 912.86,391.16 920.5,390.89 928.29,390.64 936.24,390.41 944.34,390.21 952.61,390.02 961.05,389.86 969.65,389.72 978.44,389.61 987.39,389.52 996.54,389.46 1005.87,389.42 1015.38,389.4 1015.38,45.45 1005.87,45.47 996.54,45.51 987.39,45.57 978.44,45.66 969.65,45.77 961.05,45.91 952.61,46.07 944.34,46.26 936.24,46.46 928.29,46.69 920.5,46.94 912.86,47.21 905.36,47.5 898.01,47.81 890.8,48.13 883.72,48.48 876.78,48.85 869.96,49.23 863.27,49.63 856.69,50.04 850.24,50.47 843.89,50.92 837.65,51.38 831.52,51.85 825.48,52.34 819.55,52.84 813.7,53.36 807.94,53.88 802.27,54.42 796.68,54.97 791.16,55.53 785.72,56.1 780.34,56.68 775.03,57.27 769.78,57.86 764.59,58.46 759.45,59.07 754.36,59.69 749.31,60.32 744.31,60.94 739.34,61.58 734.41,62.22 729.51,62.86 724.63,63.51 719.77,64.16 714.93,64.81 710.11,65.46 705.29,66.12 700.48,66.77 695.67,67.43 690.86,68.08 686.05,68.74 681.22,69.39 676.38,70.04 671.53,70.69 666.65,71.34 661.74,71.98 656.81,72.62 651.84,73.25 646.84,73.88 641.79,74.51 636.7,75.12 631.56,75.73 626.37,76.34 621.12,76.93 615.81,77.52 610.44,78.1 604.99,78.67 599.48,79.23 593.88,79.78 588.21,80.31 582.45,80.84 576.61,81.36 570.67,81.86 564.64,82.35 558.5,82.82 552.26,83.28 545.92,83.73 539.46,84.16 532.89,84.57 526.19,84.97 519.37,85.35 512.43,85.72 505.35,86.06 498.14,86.39 490.79,86.7 483.3,86.99 475.66,87.26 467.86,87.51 459.92,87.74 451.81,87.94 443.54,88.13 435.11,88.29 426.5,88.42 417.72,88.54 408.76,88.63 399.62,88.69 390.29,88.73 380.77,88.74 380.77,432.69 390.29,432.68 399.62,432.64 408.76,432.58 417.72,432.49 426.5,432.37 435.11,432.24 443.54,432.07 451.81,431.89 459.92,431.68 467.86,431.46 475.66,431.21 483.3,430.94 490.79,430.65 498.14,430.34 505.35,430.01 512.43,429.67 519.37,429.3 526.19,428.92 "
     style="fill:#aabbca;fill-opacity:0.55;stroke:none;stroke-width:1.07"
     id="polygon29"
     transform="matrix(1.0808494,0,0,0.99995337,-337.14053,51.264876)"
     clip-path="url(#clipPath6940)" />
  <polygon
     points="532.89,954.55 539.46,954.55 545.92,954.55 552.26,954.55 558.5,954.55 564.64,954.55 570.67,954.55 576.61,954.55 582.45,954.55 588.21,954.55 593.88,954.55 599.48,954.55 604.99,954.55 610.44,954.55 615.81,954.55 621.12,954.55 626.37,954.55 631.56,954.55 636.7,954.55 641.79,954.55 646.84,954.55 651.84,954.55 656.81,954.55 661.74,954.55 666.65,954.55 671.53,954.55 676.38,954.55 681.22,954.55 686.05,954.55 690.86,954.55 695.67,954.55 700.48,954.55 705.29,954.55 710.11,954.55 714.93,954.55 719.77,954.55 724.63,954.55 729.51,954.55 734.41,954.55 739.34,954.55 744.31,954.55 749.31,954.55 754.36,954.55 759.45,954.55 764.59,954.55 769.78,954.55 775.03,954.55 780.34,954.55 785.72,954.55 791.16,954.55 796.68,954.55 802.27,954.55 807.94,954.55 813.7,954.55 819.55,954.55 825.48,954.55 831.52,954.55 837.65,954.55 843.89,954.55 850.24,954.55 856.69,954.55 863.27,954.55 869.96,954.55 876.78,954.55 883.72,954.55 890.8,954.55 898.01,954.55 905.36,954.55 912.86,954.55 920.5,954.55 928.29,954.55 936.24,954.55 944.34,954.55 952.61,954.55 961.05,954.55 969.65,954.55 978.44,954.55 987.39,954.55 996.54,954.55 1005.87,954.55 1015.38,954.55 1015.38,432.69 1005.87,432.69 996.54,432.69 987.39,432.69 978.44,432.69 969.65,432.69 961.05,432.69 952.61,432.69 944.34,432.69 936.24,432.69 928.29,432.69 920.5,432.69 912.86,432.69 905.36,432.69 898.01,432.69 890.8,432.69 883.72,432.69 876.78,432.69 869.96,432.69 863.27,432.69 856.69,432.69 850.24,432.69 843.89,432.69 837.65,432.69 831.52,432.69 825.48,432.69 819.55,432.69 813.7,432.69 807.94,432.69 802.27,432.69 796.68,432.69 791.16,432.69 785.72,432.69 780.34,432.69 775.03,432.69 769.78,432.69 764.59,432.69 759.45,432.69 754.36,432.69 749.31,432.69 744.31,432.69 739.34,432.69 734.41,432.69 729.51,432.69 724.63,432.69 719.77,432.69 714.93,432.69 710.11,432.69 705.29,432.69 700.48,432.69 695.67,432.69 690.86,432.69 686.05,432.69 681.22,432.69 676.38,432.69 671.53,432.69 666.65,432.69 661.74,432.69 656.81,432.69 651.84,432.69 646.84,432.69 641.79,432.69 636.7,432.69 631.56,432.69 626.37,432.69 621.12,432.69 615.81,432.69 610.44,432.69 604.99,432.69 599.48,432.69 593.88,432.69 588.21,432.69 582.45,432.69 576.61,432.69 570.67,432.69 564.64,432.69 558.5,432.69 552.26,432.69 545.92,432.69 539.46,432.69 532.89,432.69 526.19,432.69 519.37,432.69 512.43,432.69 505.35,432.69 498.14,432.69 490.79,432.69 483.3,432.69 475.66,432.69 467.86,432.69 459.92,432.69 451.81,432.69 443.54,432.69 435.11,432.69 426.5,432.69 417.72,432.69 408.76,432.69 399.62,432.69 390.29,432.69 380.77,432.69 380.77,954.55 390.29,954.55 399.62,954.55 408.76,954.55 417.72,954.55 426.5,954.55 435.11,954.55 443.54,954.55 451.81,954.55 459.92,954.55 467.86,954.55 475.66,954.55 483.3,954.55 490.79,954.55 498.14,954.55 505.35,954.55 512.43,954.55 519.37,954.55 526.19,954.55 "
     style="fill:#f4b3a5;fill-opacity:0.55;stroke:none;stroke-width:1.07"
     id="polygon31"
     transform="matrix(1.0808494,0,0,0.99995337,-337.14053,51.264876)" />
  <polygon
     points="1205.29,296.89 1211.22,296.89 1217.07,296.89 1222.83,296.89 1228.5,296.89 1234.09,296.89 1239.61,296.89 1245.05,296.89 1250.43,296.89 1255.74,296.89 1260.99,296.89 1266.18,296.89 1271.32,296.89 1276.41,296.89 1281.45,296.89 1286.46,296.89 1291.43,296.89 1296.36,296.89 1301.26,296.89 1306.14,296.89 1311,296.89 1315.84,296.89 1320.66,296.89 1325.48,296.89 1330.29,296.89 1335.1,296.89 1339.91,296.89 1344.72,296.89 1349.55,296.89 1354.39,296.89 1359.24,296.89 1364.12,296.89 1369.03,296.89 1373.96,296.89 1378.93,296.89 1383.93,296.89 1388.98,296.89 1394.07,296.89 1399.21,296.89 1404.4,296.89 1409.65,296.89 1414.96,296.89 1420.33,296.89 1425.78,296.89 1431.29,296.89 1436.88,296.89 1442.56,296.89 1448.32,296.89 1454.16,296.89 1460.1,296.89 1466.13,296.89 1472.27,296.89 1478.51,296.89 1484.85,296.89 1491.31,296.89 1497.88,296.89 1504.58,296.89 1511.39,296.89 1518.34,296.89 1525.41,296.89 1532.63,296.89 1539.98,296.89 1547.47,296.89 1555.11,296.89 1562.9,296.89 1570.85,296.89 1578.96,296.89 1587.23,296.89 1595.66,296.89 1604.27,296.89 1613.05,296.89 1622.01,296.89 1631.15,296.89 1640.48,296.89 1650,296.89 1650,45.45 1640.48,45.45 1631.15,45.45 1622.01,45.45 1613.05,45.45 1604.27,45.45 1595.66,45.45 1587.23,45.45 1578.96,45.45 1570.85,45.45 1562.9,45.45 1555.11,45.45 1547.47,45.45 1539.98,45.45 1532.63,45.45 1525.41,45.45 1518.34,45.45 1511.39,45.45 1504.58,45.45 1497.88,45.45 1491.31,45.45 1484.85,45.45 1478.51,45.45 1472.27,45.45 1466.13,45.45 1460.1,45.45 1454.16,45.45 1448.32,45.45 1442.56,45.45 1436.88,45.45 1431.29,45.45 1425.78,45.45 1420.33,45.45 1414.96,45.45 1409.65,45.45 1404.4,45.45 1399.21,45.45 1394.07,45.45 1388.98,45.45 1383.93,45.45 1378.93,45.45 1373.96,45.45 1369.03,45.45 1364.12,45.45 1359.24,45.45 1354.39,45.45 1349.55,45.45 1344.72,45.45 1339.91,45.45 1335.1,45.45 1330.29,45.45 1325.48,45.45 1320.66,45.45 1315.84,45.45 1311,45.45 1306.14,45.45 1301.26,45.45 1296.36,45.45 1291.43,45.45 1286.46,45.45 1281.45,45.45 1276.41,45.45 1271.32,45.45 1266.18,45.45 1260.99,45.45 1255.74,45.45 1250.43,45.45 1245.05,45.45 1239.61,45.45 1234.09,45.45 1228.5,45.45 1222.83,45.45 1217.07,45.45 1211.22,45.45 1205.29,45.45 1199.25,45.45 1193.12,45.45 1186.88,45.45 1180.53,45.45 1174.07,45.45 1167.5,45.45 1160.81,45.45 1153.99,45.45 1147.05,45.45 1139.97,45.45 1132.76,45.45 1125.41,45.45 1117.91,45.45 1110.27,45.45 1102.48,45.45 1094.53,45.45 1086.43,45.45 1078.16,45.45 1069.72,45.45 1061.12,45.45 1052.33,45.45 1043.37,45.45 1034.23,45.45 1024.9,45.45 1015.38,45.45 1015.38,296.89 1024.9,296.89 1034.23,296.89 1043.37,296.89 1052.33,296.89 1061.12,296.89 1069.72,296.89 1078.16,296.89 1086.43,296.89 1094.53,296.89 1102.48,296.89 1110.27,296.89 1117.91,296.89 1125.41,296.89 1132.76,296.89 1139.97,296.89 1147.05,296.89 1153.99,296.89 1160.81,296.89 1167.5,296.89 1174.07,296.89 1180.53,296.89 1186.88,296.89 1193.12,296.89 1199.25,296.89 "
     style="fill:#aabbca;fill-opacity:0.55;stroke:none;stroke-width:1.07"
     id="polygon33"
     transform="matrix(1.0808494,0,0,0.99995337,-337.14053,51.264876)"
     clip-path="url(#clipPath6936)" />
  <polygon
     points="1167.5,877.41 1174.07,876.11 1180.53,874.76 1186.88,873.36 1193.12,871.92 1199.25,870.43 1205.29,868.89 1211.22,867.32 1217.07,865.71 1222.83,864.06 1228.5,862.37 1234.09,860.65 1239.61,858.89 1245.05,857.11 1250.43,855.29 1255.74,853.45 1260.99,851.58 1266.18,849.69 1271.32,847.77 1276.41,845.84 1281.45,843.88 1286.46,841.91 1291.43,839.92 1296.36,837.91 1301.26,835.9 1306.14,833.87 1311,831.83 1315.84,829.79 1320.66,827.74 1325.48,825.69 1330.29,823.63 1335.1,821.57 1339.91,819.51 1344.72,817.46 1349.55,815.41 1354.39,813.37 1359.24,811.33 1364.12,809.3 1369.03,807.29 1373.96,805.28 1378.93,803.29 1383.93,801.32 1388.98,799.36 1394.07,797.43 1399.21,795.51 1404.4,793.62 1409.65,791.75 1414.96,789.91 1420.33,788.09 1425.78,786.31 1431.29,784.55 1436.88,782.83 1442.56,781.14 1448.32,779.49 1454.16,777.88 1460.1,776.31 1466.13,774.77 1472.27,773.28 1478.51,771.84 1484.85,770.44 1491.31,769.09 1497.88,767.79 1504.58,766.53 1511.39,765.34 1518.34,764.19 1525.41,763.11 1532.63,762.08 1539.98,761.11 1547.47,760.2 1555.11,759.36 1562.9,758.58 1570.85,757.86 1578.96,757.22 1587.23,756.64 1595.66,756.14 1604.27,755.7 1613.05,755.35 1622.01,755.07 1631.15,754.86 1640.48,754.74 1650,754.7 1650,296.89 1640.48,296.93 1631.15,297.06 1622.01,297.26 1613.05,297.54 1604.27,297.9 1595.66,298.33 1587.23,298.83 1578.96,299.41 1570.85,300.06 1562.9,300.77 1555.11,301.55 1547.47,302.39 1539.98,303.3 1532.63,304.27 1525.41,305.3 1518.34,306.39 1511.39,307.53 1504.58,308.73 1497.88,309.98 1491.31,311.28 1484.85,312.63 1478.51,314.03 1472.27,315.48 1466.13,316.97 1460.1,318.5 1454.16,320.07 1448.32,321.69 1442.56,323.34 1436.88,325.02 1431.29,326.75 1425.78,328.5 1420.33,330.29 1414.96,332.1 1409.65,333.94 1404.4,335.81 1399.21,337.7 1394.07,339.62 1388.98,341.56 1383.93,343.51 1378.93,345.49 1373.96,347.48 1369.03,349.48 1364.12,351.5 1359.24,353.52 1354.39,355.56 1349.55,357.6 1344.72,359.65 1339.91,361.71 1335.1,363.76 1330.29,365.82 1325.48,367.88 1320.66,369.93 1315.84,371.98 1311,374.03 1306.14,376.06 1301.26,378.09 1296.36,380.11 1291.43,382.11 1286.46,384.1 1281.45,386.07 1276.41,388.03 1271.32,389.97 1266.18,391.88 1260.99,393.77 1255.74,395.64 1250.43,397.49 1245.05,399.3 1239.61,401.09 1234.09,402.84 1228.5,404.56 1222.83,406.25 1217.07,407.9 1211.22,409.51 1205.29,411.09 1199.25,412.62 1193.12,414.11 1186.88,415.55 1180.53,416.95 1174.07,418.31 1167.5,419.61 1160.81,420.86 1153.99,422.06 1147.05,423.2 1139.97,424.28 1132.76,425.31 1125.41,426.28 1117.91,427.19 1110.27,428.04 1102.48,428.82 1094.53,429.53 1086.43,430.18 1078.16,430.75 1069.72,431.26 1061.12,431.69 1052.33,432.05 1043.37,432.33 1034.23,432.53 1024.9,432.65 1015.38,432.69 1015.38,890.5 1024.9,890.46 1034.23,890.34 1043.37,890.13 1052.33,889.85 1061.12,889.5 1069.72,889.06 1078.16,888.56 1086.43,887.98 1094.53,887.34 1102.48,886.62 1110.27,885.84 1117.91,885 1125.41,884.09 1132.76,883.12 1139.97,882.09 1147.05,881.01 1153.99,879.86 1160.81,878.66 "
     style="fill:#f4b3a5;fill-opacity:0.55;stroke:none;stroke-width:1.07"
     id="polygon35"
     transform="matrix(1.0808494,0,0,0.99995337,-337.14053,51.264876)" />
  <polygon
     points="1167.5,437.69 1174.07,442.49 1180.53,447.48 1186.88,452.64 1193.12,457.97 1199.25,463.47 1205.29,469.13 1211.22,474.93 1217.07,480.89 1222.83,486.98 1228.5,493.21 1234.09,499.56 1239.61,506.03 1245.05,512.62 1250.43,519.32 1255.74,526.12 1260.99,533.01 1266.18,540 1271.32,547.06 1276.41,554.21 1281.45,561.43 1286.46,568.71 1291.43,576.05 1296.36,583.44 1301.26,590.88 1306.14,598.37 1311,605.88 1315.84,613.42 1320.66,620.99 1325.48,628.57 1330.29,636.16 1335.1,643.75 1339.91,651.34 1344.72,658.92 1349.55,666.48 1354.39,674.02 1359.24,681.54 1364.12,689.02 1369.03,696.46 1373.96,703.85 1378.93,711.19 1383.93,718.48 1388.98,725.69 1394.07,732.84 1399.21,739.91 1404.4,746.89 1409.65,753.79 1414.96,760.59 1420.33,767.28 1425.78,773.87 1431.29,780.34 1436.88,786.7 1442.56,792.92 1448.32,799.01 1454.16,804.97 1460.1,810.78 1466.13,816.43 1472.27,821.93 1478.51,827.26 1484.85,832.42 1491.31,837.41 1497.88,842.21 1504.58,846.83 1511.39,851.25 1518.34,855.46 1525.41,859.48 1532.63,863.27 1539.98,866.85 1547.47,870.2 1555.11,873.32 1562.9,876.19 1570.85,878.83 1578.96,881.21 1587.23,883.34 1595.66,885.2 1604.27,886.79 1613.05,888.11 1622.01,889.15 1631.15,889.89 1640.48,890.35 1650,890.5 1650,797.99 1640.48,797.84 1631.15,797.38 1622.01,796.64 1613.05,795.6 1604.27,794.28 1595.66,792.69 1587.23,790.83 1578.96,788.7 1570.85,786.32 1562.9,783.68 1555.11,780.81 1547.47,777.69 1539.98,774.34 1532.63,770.76 1525.41,766.96 1518.34,762.95 1511.39,758.74 1504.58,754.32 1497.88,749.7 1491.31,744.9 1484.85,739.91 1478.51,734.75 1472.27,729.42 1466.13,723.92 1460.1,718.26 1454.16,712.46 1448.32,706.5 1442.56,700.41 1436.88,694.19 1431.29,687.83 1425.78,681.36 1420.33,674.77 1414.96,668.08 1409.65,661.28 1404.4,654.38 1399.21,647.4 1394.07,640.33 1388.98,633.18 1383.93,625.97 1378.93,618.68 1373.96,611.34 1369.03,603.95 1364.12,596.51 1359.24,589.03 1354.39,581.51 1349.55,573.97 1344.72,566.41 1339.91,558.83 1335.1,551.24 1330.29,543.65 1325.48,536.06 1320.66,528.48 1315.84,520.91 1311,513.37 1306.14,505.85 1301.26,498.37 1296.36,490.93 1291.43,483.54 1286.46,476.2 1281.45,468.92 1276.41,461.7 1271.32,454.55 1266.18,447.49 1260.99,440.5 1255.74,433.61 1250.43,426.81 1245.05,420.11 1239.61,413.52 1234.09,407.05 1228.5,400.7 1222.83,394.47 1217.07,388.38 1211.22,382.42 1205.29,376.62 1199.25,370.96 1193.12,365.46 1186.88,360.13 1180.53,354.97 1174.07,349.98 1167.5,345.18 1160.81,340.56 1153.99,336.15 1147.05,331.93 1139.97,327.92 1132.76,324.12 1125.41,320.54 1117.91,317.19 1110.27,314.08 1102.48,311.2 1094.53,308.56 1086.43,306.18 1078.16,304.05 1069.72,302.19 1061.12,300.6 1052.33,299.28 1043.37,298.25 1034.23,297.5 1024.9,297.04 1015.38,296.89 1015.38,389.4 1024.9,389.56 1034.23,390.01 1043.37,390.76 1052.33,391.79 1061.12,393.11 1069.72,394.7 1078.16,396.56 1086.43,398.69 1094.53,401.07 1102.48,403.71 1110.27,406.59 1117.91,409.7 1125.41,413.06 1132.76,416.63 1139.97,420.43 1147.05,424.44 1153.99,428.66 1160.81,433.07 "
     style="fill:#aabbca;fill-opacity:0.55;stroke:none;stroke-width:1.07"
     id="polygon37"
     transform="matrix(1.0808494,0,0,0.99995337,-337.14053,51.264876)" />
  <polygon
     points="1167.5,954.55 1174.07,954.55 1180.53,954.55 1186.88,954.55 1193.12,954.55 1199.25,954.55 1205.29,954.55 1211.22,954.55 1217.07,954.55 1222.83,954.55 1228.5,954.55 1234.09,954.55 1239.61,954.55 1245.05,954.55 1250.43,954.55 1255.74,954.55 1260.99,954.55 1266.18,954.55 1271.32,954.55 1276.41,954.55 1281.45,954.55 1286.46,954.55 1291.43,954.55 1296.36,954.55 1301.26,954.55 1306.14,954.55 1311,954.55 1315.84,954.55 1320.66,954.55 1325.48,954.55 1330.29,954.55 1335.1,954.55 1339.91,954.55 1344.72,954.55 1349.55,954.55 1354.39,954.55 1359.24,954.55 1364.12,954.55 1369.03,954.55 1373.96,954.55 1378.93,954.55 1383.93,954.55 1388.98,954.55 1394.07,954.55 1399.21,954.55 1404.4,954.55 1409.65,954.55 1414.96,954.55 1420.33,954.55 1425.78,954.55 1431.29,954.55 1436.88,954.55 1442.56,954.55 1448.32,954.55 1454.16,954.55 1460.1,954.55 1466.13,954.55 1472.27,954.55 1478.51,954.55 1484.85,954.55 1491.31,954.55 1497.88,954.55 1504.58,954.55 1511.39,954.55 1518.34,954.55 1525.41,954.55 1532.63,954.55 1539.98,954.55 1547.47,954.55 1555.11,954.55 1562.9,954.55 1570.85,954.55 1578.96,954.55 1587.23,954.55 1595.66,954.55 1604.27,954.55 1613.05,954.55 1622.01,954.55 1631.15,954.55 1640.48,954.55 1650,954.55 1650,890.5 1640.48,890.5 1631.15,890.5 1622.01,890.5 1613.05,890.5 1604.27,890.5 1595.66,890.5 1587.23,890.5 1578.96,890.5 1570.85,890.5 1562.9,890.5 1555.11,890.5 1547.47,890.5 1539.98,890.5 1532.63,890.5 1525.41,890.5 1518.34,890.5 1511.39,890.5 1504.58,890.5 1497.88,890.5 1491.31,890.5 1484.85,890.5 1478.51,890.5 1472.27,890.5 1466.13,890.5 1460.1,890.5 1454.16,890.5 1448.32,890.5 1442.56,890.5 1436.88,890.5 1431.29,890.5 1425.78,890.5 1420.33,890.5 1414.96,890.5 1409.65,890.5 1404.4,890.5 1399.21,890.5 1394.07,890.5 1388.98,890.5 1383.93,890.5 1378.93,890.5 1373.96,890.5 1369.03,890.5 1364.12,890.5 1359.24,890.5 1354.39,890.5 1349.55,890.5 1344.72,890.5 1339.91,890.5 1335.1,890.5 1330.29,890.5 1325.48,890.5 1320.66,890.5 1315.84,890.5 1311,890.5 1306.14,890.5 1301.26,890.5 1296.36,890.5 1291.43,890.5 1286.46,890.5 1281.45,890.5 1276.41,890.5 1271.32,890.5 1266.18,890.5 1260.99,890.5 1255.74,890.5 1250.43,890.5 1245.05,890.5 1239.61,890.5 1234.09,890.5 1228.5,890.5 1222.83,890.5 1217.07,890.5 1211.22,890.5 1205.29,890.5 1199.25,890.5 1193.12,890.5 1186.88,890.5 1180.53,890.5 1174.07,890.5 1167.5,890.5 1160.81,890.5 1153.99,890.5 1147.05,890.5 1139.97,890.5 1132.76,890.5 1125.41,890.5 1117.91,890.5 1110.27,890.5 1102.48,890.5 1094.53,890.5 1086.43,890.5 1078.16,890.5 1069.72,890.5 1061.12,890.5 1052.33,890.5 1043.37,890.5 1034.23,890.5 1024.9,890.5 1015.38,890.5 1015.38,954.55 1024.9,954.55 1034.23,954.55 1043.37,954.55 1052.33,954.55 1061.12,954.55 1069.72,954.55 1078.16,954.55 1086.43,954.55 1094.53,954.55 1102.48,954.55 1110.27,954.55 1117.91,954.55 1125.41,954.55 1132.76,954.55 1139.97,954.55 1147.05,954.55 1153.99,954.55 1160.81,954.55 "
     style="fill:#f4b3a5;fill-opacity:0.55;stroke:none;stroke-width:1.07"
     id="polygon39"
     transform="matrix(1.0808494,0,0,0.99995337,-337.14053,51.264876)" />
  <polygon
     points="1802.12,296.89 1808.69,296.89 1815.15,296.89 1821.49,296.89 1827.73,296.89 1833.87,296.89 1839.9,296.89 1845.84,296.89 1851.68,296.89 1857.44,296.89 1863.12,296.89 1868.71,296.89 1874.22,296.89 1879.67,296.89 1885.04,296.89 1890.35,296.89 1895.6,296.89 1900.79,296.89 1905.93,296.89 1911.02,296.89 1916.07,296.89 1921.07,296.89 1926.04,296.89 1930.97,296.89 1935.88,296.89 1940.76,296.89 1945.61,296.89 1950.45,296.89 1955.28,296.89 1960.09,296.89 1964.9,296.89 1969.71,296.89 1974.52,296.89 1979.34,296.89 1984.16,296.89 1989,296.89 1993.86,296.89 1998.74,296.89 2003.64,296.89 2008.57,296.89 2013.54,296.89 2018.55,296.89 2023.59,296.89 2028.68,296.89 2033.82,296.89 2039.01,296.89 2044.26,296.89 2049.57,296.89 2054.95,296.89 2060.39,296.89 2065.91,296.89 2071.5,296.89 2077.17,296.89 2082.93,296.89 2088.78,296.89 2094.71,296.89 2100.75,296.89 2106.88,296.89 2113.12,296.89 2119.47,296.89 2125.93,296.89 2132.5,296.89 2139.19,296.89 2146.01,296.89 2152.95,296.89 2160.03,296.89 2167.24,296.89 2174.59,296.89 2182.09,296.89 2189.73,296.89 2197.52,296.89 2205.47,296.89 2213.57,296.89 2221.84,296.89 2230.28,296.89 2238.88,296.89 2247.67,296.89 2256.63,296.89 2265.77,296.89 2275.1,296.89 2284.62,296.89 2284.62,45.45 2275.1,45.45 2265.77,45.45 2256.63,45.45 2247.67,45.45 2238.88,45.45 2230.28,45.45 2221.84,45.45 2213.57,45.45 2205.47,45.45 2197.52,45.45 2189.73,45.45 2182.09,45.45 2174.59,45.45 2167.24,45.45 2160.03,45.45 2152.95,45.45 2146.01,45.45 2139.19,45.45 2132.5,45.45 2125.93,45.45 2119.47,45.45 2113.12,45.45 2106.88,45.45 2100.75,45.45 2094.71,45.45 2088.78,45.45 2082.93,45.45 2077.17,45.45 2071.5,45.45 2065.91,45.45 2060.39,45.45 2054.95,45.45 2049.57,45.45 2044.26,45.45 2039.01,45.45 2033.82,45.45 2028.68,45.45 2023.59,45.45 2018.55,45.45 2013.54,45.45 2008.57,45.45 2003.64,45.45 1998.74,45.45 1993.86,45.45 1989,45.45 1984.16,45.45 1979.34,45.45 1974.52,45.45 1969.71,45.45 1964.9,45.45 1960.09,45.45 1955.28,45.45 1950.45,45.45 1945.61,45.45 1940.76,45.45 1935.88,45.45 1930.97,45.45 1926.04,45.45 1921.07,45.45 1916.07,45.45 1911.02,45.45 1905.93,45.45 1900.79,45.45 1895.6,45.45 1890.35,45.45 1885.04,45.45 1879.67,45.45 1874.22,45.45 1868.71,45.45 1863.12,45.45 1857.44,45.45 1851.68,45.45 1845.84,45.45 1839.9,45.45 1833.87,45.45 1827.73,45.45 1821.49,45.45 1815.15,45.45 1808.69,45.45 1802.12,45.45 1795.42,45.45 1788.61,45.45 1781.66,45.45 1774.59,45.45 1767.37,45.45 1760.02,45.45 1752.53,45.45 1744.89,45.45 1737.1,45.45 1729.15,45.45 1721.04,45.45 1712.77,45.45 1704.34,45.45 1695.73,45.45 1686.95,45.45 1677.99,45.45 1668.85,45.45 1659.52,45.45 1650,45.45 1650,296.89 1659.52,296.89 1668.85,296.89 1677.99,296.89 1686.95,296.89 1695.73,296.89 1704.34,296.89 1712.77,296.89 1721.04,296.89 1729.15,296.89 1737.1,296.89 1744.89,296.89 1752.53,296.89 1760.02,296.89 1767.37,296.89 1774.59,296.89 1781.66,296.89 1788.61,296.89 1795.42,296.89 "
     style="fill:#aabbca;fill-opacity:0.55;stroke:none;stroke-width:1.07"
     id="polygon41"
     transform="matrix(1.0808494,0,0,0.99995337,-337.14053,51.264876)"
     clip-path="url(#clipPath6932)" />
  <polygon
     points="1802.12,754.7 1808.69,754.7 1815.15,754.7 1821.49,754.7 1827.73,754.7 1833.87,754.7 1839.9,754.7 1845.84,754.7 1851.68,754.7 1857.44,754.7 1863.12,754.7 1868.71,754.7 1874.22,754.7 1879.67,754.7 1885.04,754.7 1890.35,754.7 1895.6,754.7 1900.79,754.7 1905.93,754.7 1911.02,754.7 1916.07,754.7 1921.07,754.7 1926.04,754.7 1930.97,754.7 1935.88,754.7 1940.76,754.7 1945.61,754.7 1950.45,754.7 1955.28,754.7 1960.09,754.7 1964.9,754.7 1969.71,754.7 1974.52,754.7 1979.34,754.7 1984.16,754.7 1989,754.7 1993.86,754.7 1998.74,754.7 2003.64,754.7 2008.57,754.7 2013.54,754.7 2018.55,754.7 2023.59,754.7 2028.68,754.7 2033.82,754.7 2039.01,754.7 2044.26,754.7 2049.57,754.7 2054.95,754.7 2060.39,754.7 2065.91,754.7 2071.5,754.7 2077.17,754.7 2082.93,754.7 2088.78,754.7 2094.71,754.7 2100.75,754.7 2106.88,754.7 2113.12,754.7 2119.47,754.7 2125.93,754.7 2132.5,754.7 2139.19,754.7 2146.01,754.7 2152.95,754.7 2160.03,754.7 2167.24,754.7 2174.59,754.7 2182.09,754.7 2189.73,754.7 2197.52,754.7 2205.47,754.7 2213.57,754.7 2221.84,754.7 2230.28,754.7 2238.88,754.7 2247.67,754.7 2256.63,754.7 2265.77,754.7 2275.1,754.7 2284.62,754.7 2284.62,296.89 2275.1,296.89 2265.77,296.89 2256.63,296.89 2247.67,296.89 2238.88,296.89 2230.28,296.89 2221.84,296.89 2213.57,296.89 2205.47,296.89 2197.52,296.89 2189.73,296.89 2182.09,296.89 2174.59,296.89 2167.24,296.89 2160.03,296.89 2152.95,296.89 2146.01,296.89 2139.19,296.89 2132.5,296.89 2125.93,296.89 2119.47,296.89 2113.12,296.89 2106.88,296.89 2100.75,296.89 2094.71,296.89 2088.78,296.89 2082.93,296.89 2077.17,296.89 2071.5,296.89 2065.91,296.89 2060.39,296.89 2054.95,296.89 2049.57,296.89 2044.26,296.89 2039.01,296.89 2033.82,296.89 2028.68,296.89 2023.59,296.89 2018.55,296.89 2013.54,296.89 2008.57,296.89 2003.64,296.89 1998.74,296.89 1993.86,296.89 1989,296.89 1984.16,296.89 1979.34,296.89 1974.52,296.89 1969.71,296.89 1964.9,296.89 1960.09,296.89 1955.28,296.89 1950.45,296.89 1945.61,296.89 1940.76,296.89 1935.88,296.89 1930.97,296.89 1926.04,296.89 1921.07,296.89 1916.07,296.89 1911.02,296.89 1905.93,296.89 1900.79,296.89 1895.6,296.89 1890.35,296.89 1885.04,296.89 1879.67,296.89 1874.22,296.89 1868.71,296.89 1863.12,296.89 1857.44,296.89 1851.68,296.89 1845.84,296.89 1839.9,296.89 1833.87,296.89 1827.73,296.89 1821.49,296.89 1815.15,296.89 1808.69,296.89 1802.12,296.89 1795.42,296.89 1788.61,296.89 1781.66,296.89 1774.59,296.89 1767.37,296.89 1760.02,296.89 1752.53,296.89 1744.89,296.89 1737.1,296.89 1729.15,296.89 1721.04,296.89 1712.77,296.89 1704.34,296.89 1695.73,296.89 1686.95,296.89 1677.99,296.89 1668.85,296.89 1659.52,296.89 1650,296.89 1650,754.7 1659.52,754.7 1668.85,754.7 1677.99,754.7 1686.95,754.7 1695.73,754.7 1704.34,754.7 1712.77,754.7 1721.04,754.7 1729.15,754.7 1737.1,754.7 1744.89,754.7 1752.53,754.7 1760.02,754.7 1767.37,754.7 1774.59,754.7 1781.66,754.7 1788.61,754.7 1795.42,754.7 "
     style="fill:#f4b3a5;fill-opacity:0.55;stroke:none;stroke-width:1.07"
     id="polygon43"
     transform="matrix(1.0808494,0,0,0.99995337,-337.14053,51.264876)" />
  <polygon
     points="1802.12,890.5 1808.69,890.5 1815.15,890.5 1821.49,890.5 1827.73,890.5 1833.87,890.5 1839.9,890.5 1845.84,890.5 1851.68,890.5 1857.44,890.5 1863.12,890.5 1868.71,890.5 1874.22,890.5 1879.67,890.5 1885.04,890.5 1890.35,890.5 1895.6,890.5 1900.79,890.5 1905.93,890.5 1911.02,890.5 1916.07,890.5 1921.07,890.5 1926.04,890.5 1930.97,890.5 1935.88,890.5 1940.76,890.5 1945.61,890.5 1950.45,890.5 1955.28,890.5 1960.09,890.5 1964.9,890.5 1969.71,890.5 1974.52,890.5 1979.34,890.5 1984.16,890.5 1989,890.5 1993.86,890.5 1998.74,890.5 2003.64,890.5 2008.57,890.5 2013.54,890.5 2018.55,890.5 2023.59,890.5 2028.68,890.5 2033.82,890.5 2039.01,890.5 2044.26,890.5 2049.57,890.5 2054.95,890.5 2060.39,890.5 2065.91,890.5 2071.5,890.5 2077.17,890.5 2082.93,890.5 2088.78,890.5 2094.71,890.5 2100.75,890.5 2106.88,890.5 2113.12,890.5 2119.47,890.5 2125.93,890.5 2132.5,890.5 2139.19,890.5 2146.01,890.5 2152.95,890.5 2160.03,890.5 2167.24,890.5 2174.59,890.5 2182.09,890.5 2189.73,890.5 2197.52,890.5 2205.47,890.5 2213.57,890.5 2221.84,890.5 2230.28,890.5 2238.88,890.5 2247.67,890.5 2256.63,890.5 2265.77,890.5 2275.1,890.5 2284.62,890.5 2284.62,797.99 2275.1,797.99 2265.77,797.99 2256.63,797.99 2247.67,797.99 2238.88,797.99 2230.28,797.99 2221.84,797.99 2213.57,797.99 2205.47,797.99 2197.52,797.99 2189.73,797.99 2182.09,797.99 2174.59,797.99 2167.24,797.99 2160.03,797.99 2152.95,797.99 2146.01,797.99 2139.19,797.99 2132.5,797.99 2125.93,797.99 2119.47,797.99 2113.12,797.99 2106.88,797.99 2100.75,797.99 2094.71,797.99 2088.78,797.99 2082.93,797.99 2077.17,797.99 2071.5,797.99 2065.91,797.99 2060.39,797.99 2054.95,797.99 2049.57,797.99 2044.26,797.99 2039.01,797.99 2033.82,797.99 2028.68,797.99 2023.59,797.99 2018.55,797.99 2013.54,797.99 2008.57,797.99 2003.64,797.99 1998.74,797.99 1993.86,797.99 1989,797.99 1984.16,797.99 1979.34,797.99 1974.52,797.99 1969.71,797.99 1964.9,797.99 1960.09,797.99 1955.28,797.99 1950.45,797.99 1945.61,797.99 1940.76,797.99 1935.88,797.99 1930.97,797.99 1926.04,797.99 1921.07,797.99 1916.07,797.99 1911.02,797.99 1905.93,797.99 1900.79,797.99 1895.6,797.99 1890.35,797.99 1885.04,797.99 1879.67,797.99 1874.22,797.99 1868.71,797.99 1863.12,797.99 1857.44,797.99 1851.68,797.99 1845.84,797.99 1839.9,797.99 1833.87,797.99 1827.73,797.99 1821.49,797.99 1815.15,797.99 1808.69,797.99 1802.12,797.99 1795.42,797.99 1788.61,797.99 1781.66,797.99 1774.59,797.99 1767.37,797.99 1760.02,797.99 1752.53,797.99 1744.89,797.99 1737.1,797.99 1729.15,797.99 1721.04,797.99 1712.77,797.99 1704.34,797.99 1695.73,797.99 1686.95,797.99 1677.99,797.99 1668.85,797.99 1659.52,797.99 1650,797.99 1650,890.5 1659.52,890.5 1668.85,890.5 1677.99,890.5 1686.95,890.5 1695.73,890.5 1704.34,890.5 1712.77,890.5 1721.04,890.5 1729.15,890.5 1737.1,890.5 1744.89,890.5 1752.53,890.5 1760.02,890.5 1767.37,890.5 1774.59,890.5 1781.66,890.5 1788.61,890.5 1795.42,890.5 "
     style="fill:#aabbca;fill-opacity:0.55;stroke:none;stroke-width:1.07"
     id="polygon45"
     transform="matrix(1.0808494,0,0,0.99995337,-337.14053,51.264876)" />
  <polygon
     points="1802.12,954.55 1808.69,954.55 1815.15,954.55 1821.49,954.55 1827.73,954.55 1833.87,954.55 1839.9,954.55 1845.84,954.55 1851.68,954.55 1857.44,954.55 1863.12,954.55 1868.71,954.55 1874.22,954.55 1879.67,954.55 1885.04,954.55 1890.35,954.55 1895.6,954.55 1900.79,954.55 1905.93,954.55 1911.02,954.55 1916.07,954.55 1921.07,954.55 1926.04,954.55 1930.97,954.55 1935.88,954.55 1940.76,954.55 1945.61,954.55 1950.45,954.55 1955.28,954.55 1960.09,954.55 1964.9,954.55 1969.71,954.55 1974.52,954.55 1979.34,954.55 1984.16,954.55 1989,954.55 1993.86,954.55 1998.74,954.55 2003.64,954.55 2008.57,954.55 2013.54,954.55 2018.55,954.55 2023.59,954.55 2028.68,954.55 2033.82,954.55 2039.01,954.55 2044.26,954.55 2049.57,954.55 2054.95,954.55 2060.39,954.55 2065.91,954.55 2071.5,954.55 2077.17,954.55 2082.93,954.55 2088.78,954.55 2094.71,954.55 2100.75,954.55 2106.88,954.55 2113.12,954.55 2119.47,954.55 2125.93,954.55 2132.5,954.55 2139.19,954.55 2146.01,954.55 2152.95,954.55 2160.03,954.55 2167.24,954.55 2174.59,954.55 2182.09,954.55 2189.73,954.55 2197.52,954.55 2205.47,954.55 2213.57,954.55 2221.84,954.55 2230.28,954.55 2238.88,954.55 2247.67,954.55 2256.63,954.55 2265.77,954.55 2275.1,954.55 2284.62,954.55 2284.62,890.5 2275.1,890.5 2265.77,890.5 2256.63,890.5 2247.67,890.5 2238.88,890.5 2230.28,890.5 2221.84,890.5 2213.57,890.5 2205.47,890.5 2197.52,890.5 2189.73,890.5 2182.09,890.5 2174.59,890.5 2167.24,890.5 2160.03,890.5 2152.95,890.5 2146.01,890.5 2139.19,890.5 2132.5,890.5 2125.93,890.5 2119.47,890.5 2113.12,890.5 2106.88,890.5 2100.75,890.5 2094.71,890.5 2088.78,890.5 2082.93,890.5 2077.17,890.5 2071.5,890.5 2065.91,890.5 2060.39,890.5 2054.95,890.5 2049.57,890.5 2044.26,890.5 2039.01,890.5 2033.82,890.5 2028.68,890.5 2023.59,890.5 2018.55,890.5 2013.54,890.5 2008.57,890.5 2003.64,890.5 1998.74,890.5 1993.86,890.5 1989,890.5 1984.16,890.5 1979.34,890.5 1974.52,890.5 1969.71,890.5 1964.9,890.5 1960.09,890.5 1955.28,890.5 1950.45,890.5 1945.61,890.5 1940.76,890.5 1935.88,890.5 1930.97,890.5 1926.04,890.5 1921.07,890.5 1916.07,890.5 1911.02,890.5 1905.93,890.5 1900.79,890.5 1895.6,890.5 1890.35,890.5 1885.04,890.5 1879.67,890.5 1874.22,890.5 1868.71,890.5 1863.12,890.5 1857.44,890.5 1851.68,890.5 1845.84,890.5 1839.9,890.5 1833.87,890.5 1827.73,890.5 1821.49,890.5 1815.15,890.5 1808.69,890.5 1802.12,890.5 1795.42,890.5 1788.61,890.5 1781.66,890.5 1774.59,890.5 1767.37,890.5 1760.02,890.5 1752.53,890.5 1744.89,890.5 1737.1,890.5 1729.15,890.5 1721.04,890.5 1712.77,890.5 1704.34,890.5 1695.73,890.5 1686.95,890.5 1677.99,890.5 1668.85,890.5 1659.52,890.5 1650,890.5 1650,954.55 1659.52,954.55 1668.85,954.55 1677.99,954.55 1686.95,954.55 1695.73,954.55 1704.34,954.55 1712.77,954.55 1721.04,954.55 1729.15,954.55 1737.1,954.55 1744.89,954.55 1752.53,954.55 1760.02,954.55 1767.37,954.55 1774.59,954.55 1781.66,954.55 1788.61,954.55 1795.42,954.55 "
     style="fill:#f4b3a5;fill-opacity:0.55;stroke:none;stroke-width:1.07"
     id="polygon47"
     transform="matrix(1.0808494,0,0,0.99995337,-337.14053,51.264876)" />
  <polygon
     points="2436.73,206.75 2443.31,206.75 2449.76,206.75 2456.11,206.75 2462.35,206.75 2468.48,206.75 2474.52,206.75 2480.45,206.75 2486.3,206.75 2492.06,206.75 2497.73,206.75 2503.32,206.75 2508.84,206.75 2514.28,206.75 2519.66,206.75 2524.97,206.75 2530.22,206.75 2535.41,206.75 2540.55,206.75 2545.64,206.75 2550.69,206.75 2555.69,206.75 2560.66,206.75 2565.59,206.75 2570.49,206.75 2575.37,206.75 2580.23,206.75 2585.07,206.75 2589.89,206.75 2594.71,206.75 2599.52,206.75 2604.33,206.75 2609.14,206.75 2613.95,206.75 2618.78,206.75 2623.62,206.75 2628.47,206.75 2633.35,206.75 2638.26,206.75 2643.19,206.75 2648.16,206.75 2653.16,206.75 2658.21,206.75 2663.3,206.75 2668.44,206.75 2673.63,206.75 2678.88,206.75 2684.19,206.75 2689.56,206.75 2695.01,206.75 2700.52,206.75 2706.12,206.75 2711.79,206.75 2717.55,206.75 2723.39,206.75 2729.33,206.75 2735.36,206.75 2741.5,206.75 2747.74,206.75 2754.08,206.75 2760.54,206.75 2767.11,206.75 2773.81,206.75 2780.63,206.75 2787.57,206.75 2794.65,206.75 2801.86,206.75 2809.21,206.75 2816.7,206.75 2824.34,206.75 2832.14,206.75 2840.08,206.75 2848.19,206.75 2856.46,206.75 2864.89,206.75 2873.5,206.75 2882.28,206.75 2891.24,206.75 2900.38,206.75 2909.71,206.75 2919.23,206.75 2919.23,45.45 2909.71,45.45 2900.38,45.45 2891.24,45.45 2882.28,45.45 2873.5,45.45 2864.89,45.45 2856.46,45.45 2848.19,45.45 2840.08,45.45 2832.14,45.45 2824.34,45.45 2816.7,45.45 2809.21,45.45 2801.86,45.45 2794.65,45.45 2787.57,45.45 2780.63,45.45 2773.81,45.45 2767.11,45.45 2760.54,45.45 2754.08,45.45 2747.74,45.45 2741.5,45.45 2735.36,45.45 2729.33,45.45 2723.39,45.45 2717.55,45.45 2711.79,45.45 2706.12,45.45 2700.52,45.45 2695.01,45.45 2689.56,45.45 2684.19,45.45 2678.88,45.45 2673.63,45.45 2668.44,45.45 2663.3,45.45 2658.21,45.45 2653.16,45.45 2648.16,45.45 2643.19,45.45 2638.26,45.45 2633.35,45.45 2628.47,45.45 2623.62,45.45 2618.78,45.45 2613.95,45.45 2609.14,45.45 2604.33,45.45 2599.52,45.45 2594.71,45.45 2589.89,45.45 2585.07,45.45 2580.23,45.45 2575.37,45.45 2570.49,45.45 2565.59,45.45 2560.66,45.45 2555.69,45.45 2550.69,45.45 2545.64,45.45 2540.55,45.45 2535.41,45.45 2530.22,45.45 2524.97,45.45 2519.66,45.45 2514.28,45.45 2508.84,45.45 2503.32,45.45 2497.73,45.45 2492.06,45.45 2486.3,45.45 2480.45,45.45 2474.52,45.45 2468.48,45.45 2462.35,45.45 2456.11,45.45 2449.76,45.45 2443.31,45.45 2436.73,45.45 2430.04,45.45 2423.22,45.45 2416.28,45.45 2409.2,45.45 2401.99,45.45 2394.64,45.45 2387.14,45.45 2379.5,45.45 2371.71,45.45 2363.76,45.45 2355.66,45.45 2347.39,45.45 2338.95,45.45 2330.35,45.45 2321.56,45.45 2312.61,45.45 2303.46,45.45 2294.13,45.45 2284.62,45.45 2284.62,206.75 2294.13,206.75 2303.46,206.75 2312.61,206.75 2321.56,206.75 2330.35,206.75 2338.95,206.75 2347.39,206.75 2355.66,206.75 2363.76,206.75 2371.71,206.75 2379.5,206.75 2387.14,206.75 2394.64,206.75 2401.99,206.75 2409.2,206.75 2416.28,206.75 2423.22,206.75 2430.04,206.75 "
     style="fill:#aabbca;fill-opacity:0.55;stroke:none;stroke-width:1.07"
     id="polygon49"
     transform="matrix(1.0808494,0,0,0.99995337,-337.14053,51.264876)"
     clip-path="url(#clipPath6928)" />
  <polygon
     points="2436.73,439.62 2443.31,439.19 2449.76,438.74 2456.11,438.27 2462.35,437.79 2468.48,437.3 2474.52,436.79 2480.45,436.27 2486.3,435.73 2492.06,435.18 2497.73,434.62 2503.32,434.05 2508.84,433.47 2514.28,432.88 2519.66,432.28 2524.97,431.66 2530.22,431.04 2535.41,430.42 2540.55,429.78 2545.64,429.14 2550.69,428.49 2555.69,427.83 2560.66,427.17 2565.59,426.51 2570.49,425.84 2575.37,425.17 2580.23,424.49 2585.07,423.81 2589.89,423.13 2594.71,422.45 2599.52,421.77 2604.33,421.08 2609.14,420.4 2613.95,419.72 2618.78,419.04 2623.62,418.36 2628.47,417.69 2633.35,417.01 2638.26,416.34 2643.19,415.68 2648.16,415.02 2653.16,414.36 2658.21,413.71 2663.3,413.07 2668.44,412.44 2673.63,411.81 2678.88,411.19 2684.19,410.58 2689.56,409.97 2695.01,409.38 2700.52,408.8 2706.12,408.23 2711.79,407.67 2717.55,407.12 2723.39,406.58 2729.33,406.06 2735.36,405.55 2741.5,405.06 2747.74,404.58 2754.08,404.11 2760.54,403.67 2767.11,403.23 2773.81,402.82 2780.63,402.42 2787.57,402.04 2794.65,401.68 2801.86,401.34 2809.21,401.02 2816.7,400.72 2824.34,400.44 2832.14,400.18 2840.08,399.94 2848.19,399.73 2856.46,399.54 2864.89,399.37 2873.5,399.22 2882.28,399.11 2891.24,399.01 2900.38,398.95 2909.71,398.9 2919.23,398.89 2919.23,251.82 2909.71,251.84 2900.38,251.88 2891.24,251.95 2882.28,252.04 2873.5,252.16 2864.89,252.3 2856.46,252.47 2848.19,252.66 2840.08,252.87 2832.14,253.11 2824.34,253.37 2816.7,253.65 2809.21,253.95 2801.86,254.27 2794.65,254.61 2787.57,254.97 2780.63,255.35 2773.81,255.75 2767.11,256.17 2760.54,256.6 2754.08,257.05 2747.74,257.51 2741.5,257.99 2735.36,258.49 2729.33,258.99 2723.39,259.52 2717.55,260.05 2711.79,260.6 2706.12,261.16 2700.52,261.73 2695.01,262.31 2689.56,262.91 2684.19,263.51 2678.88,264.12 2673.63,264.74 2668.44,265.37 2663.3,266 2658.21,266.65 2653.16,267.3 2648.16,267.95 2643.19,268.61 2638.26,269.28 2633.35,269.94 2628.47,270.62 2623.62,271.29 2618.78,271.97 2613.95,272.65 2609.14,273.33 2604.33,274.02 2599.52,274.7 2594.71,275.38 2589.89,276.06 2585.07,276.74 2580.23,277.42 2575.37,278.1 2570.49,278.77 2565.59,279.44 2560.66,280.11 2555.69,280.77 2550.69,281.42 2545.64,282.07 2540.55,282.71 2535.41,283.35 2530.22,283.98 2524.97,284.6 2519.66,285.21 2514.28,285.81 2508.84,286.4 2503.32,286.99 2497.73,287.56 2492.06,288.12 2486.3,288.66 2480.45,289.2 2474.52,289.72 2468.48,290.23 2462.35,290.73 2456.11,291.2 2449.76,291.67 2443.31,292.12 2436.73,292.55 2430.04,292.96 2423.22,293.36 2416.28,293.74 2409.2,294.1 2401.99,294.44 2394.64,294.77 2387.14,295.07 2379.5,295.35 2371.71,295.61 2363.76,295.84 2355.66,296.06 2347.39,296.25 2338.95,296.42 2330.35,296.56 2321.56,296.68 2312.61,296.77 2303.46,296.84 2294.13,296.88 2284.62,296.89 2284.62,443.96 2294.13,443.95 2303.46,443.91 2312.61,443.84 2321.56,443.75 2330.35,443.63 2338.95,443.48 2347.39,443.32 2355.66,443.12 2363.76,442.91 2371.71,442.67 2379.5,442.41 2387.14,442.13 2394.64,441.83 2401.99,441.51 2409.2,441.17 2416.28,440.81 2423.22,440.43 2430.04,440.03 "
     style="fill:#f4b3a5;fill-opacity:0.55;stroke:none;stroke-width:1.07"
     id="polygon51"
     transform="matrix(1.0808494,0,0,0.99995337,-337.14053,51.264876)" />
  <polygon
     points="2436.73,786.09 2443.31,780.42 2449.76,774.54 2456.11,768.44 2462.35,762.15 2468.48,755.67 2474.52,748.99 2480.45,742.14 2486.3,735.12 2492.06,727.93 2497.73,720.58 2503.32,713.09 2508.84,705.45 2514.28,697.68 2519.66,689.78 2524.97,681.75 2530.22,673.62 2535.41,665.38 2540.55,657.04 2545.64,648.61 2550.69,640.09 2555.69,631.5 2560.66,622.84 2565.59,614.11 2570.49,605.33 2575.37,596.51 2580.23,587.64 2585.07,578.74 2589.89,569.82 2594.71,560.87 2599.52,551.92 2604.33,542.96 2609.14,534.01 2613.95,525.06 2618.78,516.14 2623.62,507.24 2628.47,498.37 2633.35,489.55 2638.26,480.77 2643.19,472.05 2648.16,463.38 2653.16,454.79 2658.21,446.28 2663.3,437.84 2668.44,429.51 2673.63,421.26 2678.88,413.13 2684.19,405.11 2689.56,397.21 2695.01,389.43 2700.52,381.79 2706.12,374.3 2711.79,366.95 2717.55,359.77 2723.39,352.74 2729.33,345.89 2735.36,339.22 2741.5,332.73 2747.74,326.44 2754.08,320.35 2760.54,314.46 2767.11,308.8 2773.81,303.35 2780.63,298.14 2787.57,293.16 2794.65,288.43 2801.86,283.95 2809.21,279.73 2816.7,275.78 2824.34,272.1 2832.14,268.7 2840.08,265.59 2848.19,262.78 2856.46,260.27 2864.89,258.08 2873.5,256.2 2882.28,254.64 2891.24,253.42 2900.38,252.54 2909.71,252 2919.23,251.82 2919.23,206.75 2909.71,206.93 2900.38,207.47 2891.24,208.35 2882.28,209.57 2873.5,211.13 2864.89,213.01 2856.46,215.2 2848.19,217.71 2840.08,220.52 2832.14,223.63 2824.34,227.03 2816.7,230.71 2809.21,234.66 2801.86,238.88 2794.65,243.36 2787.57,248.09 2780.63,253.07 2773.81,258.28 2767.11,263.73 2760.54,269.39 2754.08,275.28 2747.74,281.37 2741.5,287.66 2735.36,294.15 2729.33,300.82 2723.39,307.67 2717.55,314.7 2711.79,321.88 2706.12,329.23 2700.52,336.73 2695.01,344.36 2689.56,352.14 2684.19,360.04 2678.88,368.06 2673.63,376.19 2668.44,384.44 2663.3,392.78 2658.21,401.21 2653.16,409.72 2648.16,418.31 2643.19,426.98 2638.26,435.7 2633.35,444.48 2628.47,453.31 2623.62,462.17 2618.78,471.07 2613.95,480 2609.14,488.94 2604.33,497.89 2599.52,506.85 2594.71,515.81 2589.89,524.75 2585.07,533.67 2580.23,542.57 2575.37,551.44 2570.49,560.27 2565.59,569.04 2560.66,577.77 2555.69,586.43 2550.69,595.02 2545.64,603.54 2540.55,611.97 2535.41,620.31 2530.22,628.55 2524.97,636.68 2519.66,644.71 2514.28,652.61 2508.84,660.38 2503.32,668.02 2497.73,675.51 2492.06,682.86 2486.3,690.05 2480.45,697.07 2474.52,703.92 2468.48,710.6 2462.35,717.08 2456.11,723.38 2449.76,729.47 2443.31,735.35 2436.73,741.02 2430.04,746.46 2423.22,751.68 2416.28,756.65 2409.2,761.38 2401.99,765.86 2394.64,770.08 2387.14,774.04 2379.5,777.71 2371.71,781.11 2363.76,784.22 2355.66,787.03 2347.39,789.54 2338.95,791.74 2330.35,793.62 2321.56,795.17 2312.61,796.39 2303.46,797.28 2294.13,797.81 2284.62,797.99 2284.62,843.06 2294.13,842.88 2303.46,842.34 2312.61,841.46 2321.56,840.24 2330.35,838.69 2338.95,836.81 2347.39,834.61 2355.66,832.1 2363.76,829.29 2371.71,826.18 2379.5,822.78 2387.14,819.1 2394.64,815.15 2401.99,810.93 2409.2,806.45 2416.28,801.72 2423.22,796.75 2430.04,791.53 "
     style="fill:#aabbca;fill-opacity:0.55;stroke:none;stroke-width:1.07"
     id="polygon53"
     transform="matrix(1.0808494,0,0,0.99995337,-337.14053,51.264876)" />
  <polygon
     points="2436.73,852.62 2443.31,847.9 2449.76,843.01 2456.11,837.95 2462.35,832.71 2468.48,827.32 2474.52,821.77 2480.45,816.08 2486.3,810.24 2492.06,804.26 2497.73,798.15 2503.32,791.92 2508.84,785.57 2514.28,779.1 2519.66,772.53 2524.97,765.86 2530.22,759.1 2535.41,752.25 2540.55,745.31 2545.64,738.3 2550.69,731.22 2555.69,724.08 2560.66,716.87 2565.59,709.62 2570.49,702.32 2575.37,694.98 2580.23,687.61 2585.07,680.21 2589.89,672.79 2594.71,665.35 2599.52,657.91 2604.33,650.46 2609.14,643.01 2613.95,635.58 2618.78,628.16 2623.62,620.76 2628.47,613.38 2633.35,606.05 2638.26,598.75 2643.19,591.49 2648.16,584.29 2653.16,577.15 2658.21,570.07 2663.3,563.06 2668.44,556.12 2673.63,549.27 2678.88,542.5 2684.19,535.83 2689.56,529.26 2695.01,522.8 2700.52,516.45 2706.12,510.22 2711.79,504.11 2717.55,498.13 2723.39,492.29 2729.33,486.59 2735.36,481.05 2741.5,475.65 2747.74,470.42 2754.08,465.36 2760.54,460.46 2767.11,455.75 2773.81,451.22 2780.63,446.89 2787.57,442.75 2794.65,438.82 2801.86,435.09 2809.21,431.58 2816.7,428.3 2824.34,425.24 2832.14,422.41 2840.08,419.83 2848.19,417.49 2856.46,415.41 2864.89,413.58 2873.5,412.01 2882.28,410.72 2891.24,409.71 2900.38,408.97 2909.71,408.53 2919.23,408.38 2919.23,398.89 2909.71,399.04 2900.38,399.48 2891.24,400.22 2882.28,401.23 2873.5,402.53 2864.89,404.09 2856.46,405.92 2848.19,408 2840.08,410.34 2832.14,412.93 2824.34,415.75 2816.7,418.81 2809.21,422.1 2801.86,425.6 2794.65,429.33 2787.57,433.26 2780.63,437.4 2773.81,441.74 2767.11,446.26 2760.54,450.98 2754.08,455.87 2747.74,460.93 2741.5,466.16 2735.36,471.56 2729.33,477.11 2723.39,482.8 2717.55,488.64 2711.79,494.62 2706.12,500.73 2700.52,506.96 2695.01,513.31 2689.56,519.78 2684.19,526.35 2678.88,533.02 2673.63,539.78 2668.44,546.63 2663.3,553.57 2658.21,560.58 2653.16,567.66 2648.16,574.8 2643.19,582 2638.26,589.26 2633.35,596.56 2628.47,603.9 2623.62,611.27 2618.78,618.67 2613.95,626.09 2609.14,633.53 2604.33,640.97 2599.52,648.42 2594.71,655.86 2589.89,663.3 2585.07,670.72 2580.23,678.12 2575.37,685.49 2570.49,692.83 2565.59,700.13 2560.66,707.39 2555.69,714.59 2550.69,721.73 2545.64,728.81 2540.55,735.82 2535.41,742.76 2530.22,749.61 2524.97,756.38 2519.66,763.05 2514.28,769.62 2508.84,776.08 2503.32,782.43 2497.73,788.66 2492.06,794.77 2486.3,800.75 2480.45,806.59 2474.52,812.28 2468.48,817.83 2462.35,823.23 2456.11,828.46 2449.76,833.52 2443.31,838.42 2436.73,843.13 2430.04,847.65 2423.22,851.99 2416.28,856.13 2409.2,860.06 2401.99,863.79 2394.64,867.3 2387.14,870.58 2379.5,873.64 2371.71,876.47 2363.76,879.05 2355.66,881.39 2347.39,883.47 2338.95,885.3 2330.35,886.86 2321.56,888.16 2312.61,889.17 2303.46,889.91 2294.13,890.35 2284.62,890.5 2284.62,899.99 2294.13,899.84 2303.46,899.39 2312.61,898.66 2321.56,897.65 2330.35,896.35 2338.95,894.79 2347.39,892.96 2355.66,890.88 2363.76,888.54 2371.71,885.95 2379.5,883.13 2387.14,880.07 2394.64,876.78 2401.99,873.28 2409.2,869.55 2416.28,865.62 2423.22,861.48 2430.04,857.14 "
     style="fill:#f4b3a5;fill-opacity:0.55;stroke:none;stroke-width:1.07"
     id="polygon55"
     transform="matrix(1.0808494,0,0,0.99995337,-337.14053,51.264876)" />
  <polygon
     points="2436.73,320.49 2443.31,322.84 2449.76,325.28 2456.11,327.8 2462.35,330.41 2468.48,333.09 2474.52,335.86 2480.45,338.7 2486.3,341.61 2492.06,344.58 2497.73,347.63 2503.32,350.73 2508.84,353.9 2514.28,357.12 2519.66,360.39 2524.97,363.71 2530.22,367.08 2535.41,370.5 2540.55,373.95 2545.64,377.44 2550.69,380.97 2555.69,384.53 2560.66,388.12 2565.59,391.73 2570.49,395.37 2575.37,399.02 2580.23,402.7 2585.07,406.38 2589.89,410.08 2594.71,413.79 2599.52,417.49 2604.33,421.21 2609.14,424.91 2613.95,428.62 2618.78,432.32 2623.62,436 2628.47,439.68 2633.35,443.33 2638.26,446.97 2643.19,450.58 2648.16,454.17 2653.16,457.73 2658.21,461.26 2663.3,464.75 2668.44,468.2 2673.63,471.62 2678.88,474.99 2684.19,478.31 2689.56,481.58 2695.01,484.8 2700.52,487.97 2706.12,491.07 2711.79,494.12 2717.55,497.09 2723.39,500 2729.33,502.84 2735.36,505.61 2741.5,508.29 2747.74,510.9 2754.08,513.42 2760.54,515.86 2767.11,518.21 2773.81,520.46 2780.63,522.62 2787.57,524.68 2794.65,526.64 2801.86,528.5 2809.21,530.25 2816.7,531.88 2824.34,533.41 2832.14,534.82 2840.08,536.1 2848.19,537.27 2856.46,538.31 2864.89,539.22 2873.5,540 2882.28,540.64 2891.24,541.15 2900.38,541.51 2909.71,541.73 2919.23,541.81 2919.23,451.67 2909.71,451.59 2900.38,451.37 2891.24,451.01 2882.28,450.5 2873.5,449.86 2864.89,449.08 2856.46,448.17 2848.19,447.13 2840.08,445.97 2832.14,444.68 2824.34,443.27 2816.7,441.75 2809.21,440.11 2801.86,438.36 2794.65,436.51 2787.57,434.55 2780.63,432.48 2773.81,430.32 2767.11,428.07 2760.54,425.72 2754.08,423.28 2747.74,420.76 2741.5,418.15 2735.36,415.47 2729.33,412.7 2723.39,409.86 2717.55,406.96 2711.79,403.98 2706.12,400.93 2700.52,397.83 2695.01,394.67 2689.56,391.45 2684.19,388.17 2678.88,384.85 2673.63,381.48 2668.44,378.07 2663.3,374.61 2658.21,371.12 2653.16,367.59 2648.16,364.03 2643.19,360.44 2638.26,356.83 2633.35,353.19 2628.47,349.54 2623.62,345.86 2618.78,342.18 2613.95,338.48 2609.14,334.78 2604.33,331.07 2599.52,327.36 2594.71,323.65 2589.89,319.94 2585.07,316.25 2580.23,312.56 2575.37,308.89 2570.49,305.23 2565.59,301.59 2560.66,297.98 2555.69,294.39 2550.69,290.83 2545.64,287.31 2540.55,283.81 2535.41,280.36 2530.22,276.94 2524.97,273.57 2519.66,270.25 2514.28,266.98 2508.84,263.76 2503.32,260.59 2497.73,257.49 2492.06,254.45 2486.3,251.47 2480.45,248.56 2474.52,245.72 2468.48,242.96 2462.35,240.27 2456.11,237.66 2449.76,235.14 2443.31,232.7 2436.73,230.35 2430.04,228.1 2423.22,225.94 2416.28,223.88 2409.2,221.92 2401.99,220.06 2394.64,218.31 2387.14,216.68 2379.5,215.15 2371.71,213.75 2363.76,212.46 2355.66,211.29 2347.39,210.25 2338.95,209.34 2330.35,208.57 2321.56,207.92 2312.61,207.42 2303.46,207.05 2294.13,206.83 2284.62,206.75 2284.62,296.89 2294.13,296.97 2303.46,297.19 2312.61,297.55 2321.56,298.06 2330.35,298.7 2338.95,299.48 2347.39,300.39 2355.66,301.43 2363.76,302.6 2371.71,303.88 2379.5,305.29 2387.14,306.82 2394.64,308.45 2401.99,310.2 2409.2,312.06 2416.28,314.02 2423.22,316.08 2430.04,318.24 "
     style="fill:#aabbca;fill-opacity:0.55;stroke:none;stroke-width:1.07"
     id="polygon57"
     transform="matrix(1.0808494,0,0,0.99995337,-337.14053,51.264876)" />
  <polygon
     points="2436.73,768.7 2443.31,770.09 2449.76,771.54 2456.11,773.04 2462.35,774.58 2468.48,776.18 2474.52,777.82 2480.45,779.5 2486.3,781.22 2492.06,782.99 2497.73,784.8 2503.32,786.64 2508.84,788.52 2514.28,790.43 2519.66,792.37 2524.97,794.34 2530.22,796.34 2535.41,798.36 2540.55,800.41 2545.64,802.48 2550.69,804.58 2555.69,806.69 2560.66,808.82 2565.59,810.96 2570.49,813.12 2575.37,815.29 2580.23,817.47 2585.07,819.65 2589.89,821.85 2594.71,824.04 2599.52,826.24 2604.33,828.44 2609.14,830.64 2613.95,832.84 2618.78,835.04 2623.62,837.22 2628.47,839.4 2633.35,841.57 2638.26,843.73 2643.19,845.87 2648.16,848 2653.16,850.11 2658.21,852.2 2663.3,854.28 2668.44,856.33 2673.63,858.35 2678.88,860.35 2684.19,862.32 2689.56,864.26 2695.01,866.17 2700.52,868.05 2706.12,869.89 2711.79,871.7 2717.55,873.46 2723.39,875.19 2729.33,876.87 2735.36,878.51 2741.5,880.11 2747.74,881.65 2754.08,883.15 2760.54,884.6 2767.11,885.99 2773.81,887.33 2780.63,888.61 2787.57,889.83 2794.65,890.99 2801.86,892.09 2809.21,893.13 2816.7,894.1 2824.34,895.01 2832.14,895.84 2840.08,896.6 2848.19,897.3 2856.46,897.91 2864.89,898.45 2873.5,898.91 2882.28,899.3 2891.24,899.6 2900.38,899.81 2909.71,899.94 2919.23,899.99 2919.23,589.25 2909.71,589.2 2900.38,589.07 2891.24,588.86 2882.28,588.56 2873.5,588.17 2864.89,587.71 2856.46,587.17 2848.19,586.56 2840.08,585.86 2832.14,585.1 2824.34,584.27 2816.7,583.36 2809.21,582.39 2801.86,581.35 2794.65,580.25 2787.57,579.09 2780.63,577.87 2773.81,576.59 2767.11,575.25 2760.54,573.86 2754.08,572.41 2747.74,570.91 2741.5,569.37 2735.36,567.77 2729.33,566.13 2723.39,564.45 2717.55,562.72 2711.79,560.96 2706.12,559.15 2700.52,557.31 2695.01,555.43 2689.56,553.52 2684.19,551.58 2678.88,549.61 2673.63,547.61 2668.44,545.59 2663.3,543.54 2658.21,541.46 2653.16,539.37 2648.16,537.26 2643.19,535.13 2638.26,532.99 2633.35,530.83 2628.47,528.66 2623.62,526.48 2618.78,524.3 2613.95,522.1 2609.14,519.91 2604.33,517.71 2599.52,515.5 2594.71,513.3 2589.89,511.11 2585.07,508.91 2580.23,506.73 2575.37,504.55 2570.49,502.38 2565.59,500.22 2560.66,498.08 2555.69,495.95 2550.69,493.84 2545.64,491.74 2540.55,489.67 2535.41,487.62 2530.22,485.6 2524.97,483.6 2519.66,481.63 2514.28,479.69 2508.84,477.78 2503.32,475.9 2497.73,474.06 2492.06,472.25 2486.3,470.49 2480.45,468.76 2474.52,467.08 2468.48,465.44 2462.35,463.84 2456.11,462.3 2449.76,460.8 2443.31,459.35 2436.73,457.96 2430.04,456.62 2423.22,455.34 2416.28,454.12 2409.2,452.96 2401.99,451.85 2394.64,450.82 2387.14,449.85 2379.5,448.94 2371.71,448.11 2363.76,447.34 2355.66,446.65 2347.39,446.04 2338.95,445.5 2330.35,445.03 2321.56,444.65 2312.61,444.35 2303.46,444.14 2294.13,444 2284.62,443.96 2284.62,754.7 2294.13,754.74 2303.46,754.88 2312.61,755.09 2321.56,755.39 2330.35,755.77 2338.95,756.24 2347.39,756.78 2355.66,757.39 2363.76,758.08 2371.71,758.85 2379.5,759.68 2387.14,760.59 2394.64,761.56 2401.99,762.59 2409.2,763.7 2416.28,764.86 2423.22,766.08 2430.04,767.36 "
     style="fill:#f4b3a5;fill-opacity:0.55;stroke:none;stroke-width:1.07"
     id="polygon59"
     transform="matrix(1.0808494,0,0,0.99995337,-337.14053,51.264876)" />
  <polygon
     points="2436.73,861.47 2443.31,858.58 2449.76,855.59 2456.11,852.48 2462.35,849.28 2468.48,845.97 2474.52,842.57 2480.45,839.08 2486.3,835.5 2492.06,831.84 2497.73,828.1 2503.32,824.28 2508.84,820.38 2514.28,816.42 2519.66,812.4 2524.97,808.31 2530.22,804.17 2535.41,799.97 2540.55,795.72 2545.64,791.42 2550.69,787.08 2555.69,782.7 2560.66,778.29 2565.59,773.85 2570.49,769.37 2575.37,764.88 2580.23,760.36 2585.07,755.82 2589.89,751.28 2594.71,746.72 2599.52,742.16 2604.33,737.59 2609.14,733.03 2613.95,728.47 2618.78,723.93 2623.62,719.39 2628.47,714.87 2633.35,710.38 2638.26,705.9 2643.19,701.46 2648.16,697.04 2653.16,692.67 2658.21,688.33 2663.3,684.03 2668.44,679.78 2673.63,675.58 2678.88,671.44 2684.19,667.35 2689.56,663.32 2695.01,659.36 2700.52,655.47 2706.12,651.65 2711.79,647.91 2717.55,644.25 2723.39,640.67 2729.33,637.18 2735.36,633.78 2741.5,630.47 2747.74,627.27 2754.08,624.16 2760.54,621.17 2767.11,618.28 2773.81,615.5 2780.63,612.85 2787.57,610.31 2794.65,607.9 2801.86,605.62 2809.21,603.47 2816.7,601.45 2824.34,599.58 2832.14,597.85 2840.08,596.27 2848.19,594.83 2856.46,593.55 2864.89,592.43 2873.5,591.48 2882.28,590.68 2891.24,590.06 2900.38,589.61 2909.71,589.34 2919.23,589.25 2919.23,541.81 2909.71,541.9 2900.38,542.17 2891.24,542.62 2882.28,543.24 2873.5,544.04 2864.89,544.99 2856.46,546.11 2848.19,547.39 2840.08,548.82 2832.14,550.41 2824.34,552.14 2816.7,554.01 2809.21,556.03 2801.86,558.18 2794.65,560.46 2787.57,562.87 2780.63,565.41 2773.81,568.06 2767.11,570.84 2760.54,573.72 2754.08,576.72 2747.74,579.83 2741.5,583.03 2735.36,586.34 2729.33,589.74 2723.39,593.23 2717.55,596.81 2711.79,600.47 2706.12,604.21 2700.52,608.03 2695.01,611.92 2689.56,615.88 2684.19,619.91 2678.88,624 2673.63,628.14 2668.44,632.34 2663.3,636.59 2658.21,640.89 2653.16,645.23 2648.16,649.6 2643.19,654.02 2638.26,658.46 2633.35,662.93 2628.47,667.43 2623.62,671.95 2618.78,676.48 2613.95,681.03 2609.14,685.59 2604.33,690.15 2599.52,694.72 2594.71,699.28 2589.89,703.83 2585.07,708.38 2580.23,712.92 2575.37,717.43 2570.49,721.93 2565.59,726.4 2560.66,730.85 2555.69,735.26 2550.69,739.64 2545.64,743.98 2540.55,748.28 2535.41,752.52 2530.22,756.72 2524.97,760.87 2519.66,764.96 2514.28,768.98 2508.84,772.94 2503.32,776.83 2497.73,780.65 2492.06,784.4 2486.3,788.06 2480.45,791.64 2474.52,795.13 2468.48,798.53 2462.35,801.83 2456.11,805.04 2449.76,808.14 2443.31,811.14 2436.73,814.03 2430.04,816.8 2423.22,819.46 2416.28,822 2409.2,824.41 2401.99,826.69 2394.64,828.84 2387.14,830.85 2379.5,832.73 2371.71,834.46 2363.76,836.04 2355.66,837.48 2347.39,838.75 2338.95,839.87 2330.35,840.83 2321.56,841.62 2312.61,842.25 2303.46,842.69 2294.13,842.97 2284.62,843.06 2284.62,890.5 2294.13,890.41 2303.46,890.14 2312.61,889.69 2321.56,889.06 2330.35,888.27 2338.95,887.31 2347.39,886.19 2355.66,884.92 2363.76,883.48 2371.71,881.9 2379.5,880.17 2387.14,878.29 2394.64,876.28 2401.99,874.13 2409.2,871.85 2416.28,869.44 2423.22,866.9 2430.04,864.25 "
     style="fill:#aabbca;fill-opacity:0.55;stroke:none;stroke-width:1.07"
     id="polygon61"
     transform="matrix(1.0808494,0,0,0.99995337,-337.14053,51.264876)" />
  <polygon
     points="2436.73,954.55 2443.31,954.55 2449.76,954.55 2456.11,954.55 2462.35,954.55 2468.48,954.55 2474.52,954.55 2480.45,954.55 2486.3,954.55 2492.06,954.55 2497.73,954.55 2503.32,954.55 2508.84,954.55 2514.28,954.55 2519.66,954.55 2524.97,954.55 2530.22,954.55 2535.41,954.55 2540.55,954.55 2545.64,954.55 2550.69,954.55 2555.69,954.55 2560.66,954.55 2565.59,954.55 2570.49,954.55 2575.37,954.55 2580.23,954.55 2585.07,954.55 2589.89,954.55 2594.71,954.55 2599.52,954.55 2604.33,954.55 2609.14,954.55 2613.95,954.55 2618.78,954.55 2623.62,954.55 2628.47,954.55 2633.35,954.55 2638.26,954.55 2643.19,954.55 2648.16,954.55 2653.16,954.55 2658.21,954.55 2663.3,954.55 2668.44,954.55 2673.63,954.55 2678.88,954.55 2684.19,954.55 2689.56,954.55 2695.01,954.55 2700.52,954.55 2706.12,954.55 2711.79,954.55 2717.55,954.55 2723.39,954.55 2729.33,954.55 2735.36,954.55 2741.5,954.55 2747.74,954.55 2754.08,954.55 2760.54,954.55 2767.11,954.55 2773.81,954.55 2780.63,954.55 2787.57,954.55 2794.65,954.55 2801.86,954.55 2809.21,954.55 2816.7,954.55 2824.34,954.55 2832.14,954.55 2840.08,954.55 2848.19,954.55 2856.46,954.55 2864.89,954.55 2873.5,954.55 2882.28,954.55 2891.24,954.55 2900.38,954.55 2909.71,954.55 2919.23,954.55 2919.23,899.99 2909.71,899.99 2900.38,899.99 2891.24,899.99 2882.28,899.99 2873.5,899.99 2864.89,899.99 2856.46,899.99 2848.19,899.99 2840.08,899.99 2832.14,899.99 2824.34,899.99 2816.7,899.99 2809.21,899.99 2801.86,899.99 2794.65,899.99 2787.57,899.99 2780.63,899.99 2773.81,899.99 2767.11,899.99 2760.54,899.99 2754.08,899.99 2747.74,899.99 2741.5,899.99 2735.36,899.99 2729.33,899.99 2723.39,899.99 2717.55,899.99 2711.79,899.99 2706.12,899.99 2700.52,899.99 2695.01,899.99 2689.56,899.99 2684.19,899.99 2678.88,899.99 2673.63,899.99 2668.44,899.99 2663.3,899.99 2658.21,899.99 2653.16,899.99 2648.16,899.99 2643.19,899.99 2638.26,899.99 2633.35,899.99 2628.47,899.99 2623.62,899.99 2618.78,899.99 2613.95,899.99 2609.14,899.99 2604.33,899.99 2599.52,899.99 2594.71,899.99 2589.89,899.99 2585.07,899.99 2580.23,899.99 2575.37,899.99 2570.49,899.99 2565.59,899.99 2560.66,899.99 2555.69,899.99 2550.69,899.99 2545.64,899.99 2540.55,899.99 2535.41,899.99 2530.22,899.99 2524.97,899.99 2519.66,899.99 2514.28,899.99 2508.84,899.99 2503.32,899.99 2497.73,899.99 2492.06,899.99 2486.3,899.99 2480.45,899.99 2474.52,899.99 2468.48,899.99 2462.35,899.99 2456.11,899.99 2449.76,899.99 2443.31,899.99 2436.73,899.99 2430.04,899.99 2423.22,899.99 2416.28,899.99 2409.2,899.99 2401.99,899.99 2394.64,899.99 2387.14,899.99 2379.5,899.99 2371.71,899.99 2363.76,899.99 2355.66,899.99 2347.39,899.99 2338.95,899.99 2330.35,899.99 2321.56,899.99 2312.61,899.99 2303.46,899.99 2294.13,899.99 2284.62,899.99 2284.62,954.55 2294.13,954.55 2303.46,954.55 2312.61,954.55 2321.56,954.55 2330.35,954.55 2338.95,954.55 2347.39,954.55 2355.66,954.55 2363.76,954.55 2371.71,954.55 2379.5,954.55 2387.14,954.55 2394.64,954.55 2401.99,954.55 2409.2,954.55 2416.28,954.55 2423.22,954.55 2430.04,954.55 "
     style="fill:#f4b3a5;fill-opacity:0.55;stroke:none;stroke-width:1.07"
     id="polygon63"
     transform="matrix(1.0808494,0,0,0.99995337,-337.14053,51.264876)" />
  <polygon
     points="349.04,88.74 349.04,954.55 412.5,954.55 412.5,88.74 "
     style="fill:#bbbbbb;stroke-width:1.07"
     id="polygon65"
     transform="matrix(1.0808494,0,0,0.99995337,-337.14053,51.264876)"
     clip-path="url(#clipPath6924)" />
  <polygon
     points="983.65,432.69 983.65,954.55 1047.12,954.55 1047.12,432.69 "
     style="fill:#bbbbbb;stroke-width:1.07"
     id="polygon67"
     transform="matrix(1.0808494,0,0,0.99995337,-337.14053,51.264876)" />
  <polygon
     points="983.65,45.45 983.65,389.4 1047.12,389.4 1047.12,45.45 "
     style="fill:#bbbbbb;stroke-width:1.07"
     id="polygon69"
     transform="matrix(1.0808494,0,0,0.99995337,-337.14053,51.264876)"
     clip-path="url(#clipPath6920)" />
  <polygon
     points="1618.27,797.99 1618.27,954.55 1681.73,954.55 1681.73,797.99 "
     style="fill:#bbbbbb;stroke-width:1.07"
     id="polygon71"
     transform="matrix(1.0808494,0,0,0.99995337,-337.14053,51.264876)" />
  <polygon
     points="1618.27,45.45 1618.27,754.7 1681.73,754.7 1681.73,45.45 "
     style="fill:#bbbbbb;stroke-width:1.07"
     id="polygon73"
     transform="matrix(1.0808494,0,0,0.99995337,-337.14053,51.264876)"
     clip-path="url(#clipPath6916)" />
  <polygon
     points="2252.88,797.99 2252.88,954.55 2316.35,954.55 2316.35,797.99 "
     style="fill:#bbbbbb;stroke-width:1.07"
     id="polygon75"
     transform="matrix(1.0808494,0,0,0.99995337,-337.14053,51.264876)" />
  <polygon
     points="2252.88,45.45 2252.88,754.7 2316.35,754.7 2316.35,45.45 "
     style="fill:#bbbbbb;stroke-width:1.07"
     id="polygon77"
     transform="matrix(1.0808494,0,0,0.99995337,-337.14053,51.264876)"
     clip-path="url(#clipPath6912)" />
  <polygon
     points="2887.5,451.67 2887.5,954.55 2950.96,954.55 2950.96,451.67 "
     style="fill:#bbbbbb;stroke-width:1.07"
     id="polygon79"
     transform="matrix(1.0808494,0,0,0.99995337,-337.14053,51.264876)" />
  <polygon
     points="2887.5,45.45 2887.5,408.38 2950.96,408.38 2950.96,45.45 "
     style="fill:#bbbbbb;stroke-width:1.07"
     id="polygon81"
     transform="matrix(1.0808494,0,0,0.99995337,-337.14053,51.264876)"
     clip-path="url(#clipPath6908)" />
  <text
     x="431.54001"
     y="536.15997"
     style="font-size:39.83px;font-family:Arial"
     textLength="288.26999"
     lengthAdjust="spacingAndGlyphs"
     id="text83"
     transform="matrix(1.4040001,2.6166374e-8,2.6252569e-8,1.5443999,-490.95776,-233.44394)">Microcins: 365</text>
  <text
     x="1066.15"
     y="708.14001"
     style="font-size:39.83px;font-family:Arial"
     textLength="431.16"
     lengthAdjust="spacingAndGlyphs"
     id="text85"
     transform="matrix(1.4040001,2.6166374e-8,2.6252569e-8,1.5443999,-691.63162,-326.78258)">Verified Microcin: 220</text>
  <text
     x="1066.15"
     y="231.95"
     style="font-size:39.83px;font-family:Arial"
     textLength="393.48999"
     lengthAdjust="spacingAndGlyphs"
     id="text87"
     transform="matrix(1.4040001,2.6166374e-8,2.6252569e-8,1.5443999,-691.63161,-67.812903)">Novel Microcin: 145</text>
  <text
     x="1700.77"
     y="890.78998"
     style="font-size:39.83px;font-family:Arial"
     textLength="328.38"
     lengthAdjust="spacingAndGlyphs"
     id="text89"
     transform="matrix(1.4040001,2.6166374e-8,2.6252569e-8,1.5443999,-897.0399,-426.22569)">PCAT Absent: 66</text>
  <text
     x="1700.77"
     y="414.60001"
     style="font-size:39.83px;font-family:Arial"
     textLength="385.22"
     lengthAdjust="spacingAndGlyphs"
     id="text91"
     transform="matrix(1.4040001,2.6166374e-8,2.6252569e-8,1.5443999,-894.71125,-166.97075)">Contains PCAT: 299</text>
  <text
     x="2335.3799"
     y="890.78998"
     style="font-size:39.83px;font-family:Arial"
     textLength="309.35999"
     lengthAdjust="spacingAndGlyphs"
     id="text93"
     transform="matrix(1.4040001,2.6166374e-8,2.6252569e-8,1.5443999,-1101.3942,-426.51106)">MFP Absent: 66</text>
  <text
     x="2335.3799"
     y="414.60001"
     style="font-size:39.83px;font-family:Arial"
     textLength="370.57999"
     lengthAdjust="spacingAndGlyphs"
     id="text95"
     transform="matrix(1.4040001,2.6166374e-8,2.6252569e-8,1.5443999,-1099.737,-166.97076)">Contains MFP: 299</text>
  <text
     x="2970"
     y="717.63"
     style="font-size:39.83px;font-family:Arial"
     textLength="289.17999"
     lengthAdjust="spacingAndGlyphs"
     id="text97"
     transform="matrix(1.4040001,2.6166374e-8,2.6252569e-8,1.5443999,-1305.8319,-332.21973)">IP Absent: 212</text>
  <text
     x="2970"
     y="241.44"
     style="font-size:39.83px;font-family:Arial"
     textLength="325.04999"
     lengthAdjust="spacingAndGlyphs"
     id="text99"
     transform="matrix(1.4040001,2.6166374e-8,2.6252569e-8,1.5443999,-1305.8319,-72.709432)">Contains IP: 153</text>
</svg>
