<?xml version="1.0" encoding="UTF-8" standalone="no"?>
<svg
   class="svglite"
   width="989.57825pt"
   height="262.89001pt"
   viewBox="0 0 989.57825 262.89001"
   version="1.1"
   id="svg107"
   sodipodi:docname="04_Sankey_AF.svg"
   inkscape:version="1.2.1 (ef4d3fba62, 2022-07-19, custom)"
   inkscape:export-filename="../2c4063b3/04_Sankey_AF.png"
   inkscape:export-xdpi="300"
   inkscape:export-ydpi="300"
   xmlns:inkscape="http://www.inkscape.org/namespaces/inkscape"
   xmlns:sodipodi="http://sodipodi.sourceforge.net/DTD/sodipodi-0.dtd"
   xmlns="http://www.w3.org/2000/svg"
   xmlns:svg="http://www.w3.org/2000/svg">
  <sodipodi:namedview
     id="namedview109"
     pagecolor="#505050"
     bordercolor="#ffffff"
     borderopacity="1"
     inkscape:showpageshadow="0"
     inkscape:pageopacity="0"
     inkscape:pagecheckerboard="1"
     inkscape:deskcolor="#505050"
     inkscape:document-units="pt"
     showgrid="false"
     inkscape:zoom="1.2835952"
     inkscape:cx="937.9904"
     inkscape:cy="235.66619"
     inkscape:window-width="1920"
     inkscape:window-height="1016"
     inkscape:window-x="1920"
     inkscape:window-y="27"
     inkscape:window-maximized="1"
     inkscape:current-layer="svg107" />
  <defs
     id="defs20">
    <style
       type="text/css"
       id="style18"><![CDATA[
    .svglite line, .svglite polyline, .svglite polygon, .svglite path, .svglite rect, .svglite circle {
      fill: none;
      stroke: #000000;
      stroke-linecap: round;
      stroke-linejoin: round;
      stroke-miterlimit: 10.00;
    }
    .svglite text {
      white-space: pre;
    }
  ]]></style>
  </defs>
  <rect
     width="100%"
     height="100%"
     style="fill:none;stroke:none"
     id="rect22"
     x="-118.885"
     y="-12.555" />
  <defs
     id="defs27">
    <clipPath
       id="cpMC4wMHwxMDgwLjAwfDAuMDB8Mjg4LjAw">
      <rect
         x="0"
         y="0"
         width="1080"
         height="288"
         id="rect24" />
    </clipPath>
  </defs>
  <g
     clip-path="url(#cpMC4wMHwxMDgwLjAwfDAuMDB8Mjg4LjAw)"
     id="g105"
     transform="translate(-118.885,-12.555)">
    <polygon
       points="130.78,124.6 133.78,124.58 136.71,124.56 139.58,124.52 142.4,124.48 145.16,124.44 147.87,124.38 150.52,124.33 153.12,124.26 155.67,124.19 158.17,124.11 160.62,124.03 163.03,123.94 165.39,123.84 167.7,123.74 169.98,123.64 172.21,123.53 174.4,123.41 176.55,123.29 178.66,123.17 180.74,123.04 182.78,122.91 184.79,122.77 186.76,122.63 188.71,122.49 190.62,122.34 192.51,122.19 194.36,122.03 196.19,121.87 198,121.71 199.78,121.55 201.54,121.38 203.28,121.21 204.99,121.04 206.69,120.87 208.38,120.69 210.04,120.52 211.69,120.34 213.33,120.15 214.96,119.97 216.57,119.79 218.18,119.6 219.77,119.42 221.36,119.23 222.95,119.04 224.52,118.85 226.1,118.67 227.67,118.48 229.25,118.29 230.82,118.1 232.4,117.91 233.98,117.72 235.56,117.53 237.15,117.35 238.75,117.16 240.35,116.98 241.97,116.79 243.59,116.61 245.23,116.43 246.88,116.25 248.55,116.07 250.23,115.89 251.93,115.72 253.65,115.55 255.38,115.38 257.14,115.21 258.93,115.05 260.73,114.89 262.56,114.73 264.42,114.58 266.3,114.42 268.21,114.28 270.16,114.13 272.13,113.99 274.14,113.85 276.18,113.72 278.26,113.59 280.37,113.47 282.52,113.35 284.71,113.23 286.95,113.12 289.22,113.02 291.53,112.92 293.89,112.83 296.3,112.74 298.75,112.65 301.25,112.58 303.8,112.5 306.4,112.44 309.06,112.38 311.76,112.33 314.52,112.28 317.34,112.24 320.22,112.21 323.15,112.18 326.14,112.16 329.19,112.15 332.31,112.15 332.31,13.09 329.19,13.09 326.14,13.11 323.15,13.12 320.22,13.15 317.34,13.18 314.52,13.22 311.76,13.27 309.06,13.32 306.4,13.38 303.8,13.45 301.25,13.52 298.75,13.6 296.3,13.68 293.89,13.77 291.53,13.86 289.22,13.96 286.95,14.07 284.71,14.18 282.52,14.29 280.37,14.41 278.26,14.54 276.18,14.66 274.14,14.8 272.13,14.93 270.16,15.07 268.21,15.22 266.3,15.37 264.42,15.52 262.56,15.67 260.73,15.83 258.93,15.99 257.14,16.16 255.38,16.32 253.65,16.49 251.93,16.66 250.23,16.84 248.55,17.01 246.88,17.19 245.23,17.37 243.59,17.55 241.97,17.73 240.35,17.92 238.75,18.1 237.15,18.29 235.56,18.48 233.98,18.66 232.4,18.85 230.82,19.04 229.25,19.23 227.67,19.42 226.1,19.61 224.52,19.8 222.95,19.98 221.36,20.17 219.77,20.36 218.18,20.55 216.57,20.73 214.96,20.91 213.33,21.1 211.69,21.28 210.04,21.46 208.38,21.64 206.69,21.81 204.99,21.99 203.28,22.16 201.54,22.33 199.78,22.49 198,22.66 196.19,22.82 194.36,22.98 192.51,23.13 190.62,23.28 188.71,23.43 186.76,23.57 184.79,23.72 182.78,23.85 180.74,23.99 178.66,24.11 176.55,24.24 174.4,24.36 172.21,24.47 169.98,24.58 167.7,24.69 165.39,24.79 163.03,24.88 160.62,24.97 158.17,25.05 155.67,25.13 153.12,25.2 150.52,25.27 147.87,25.33 145.16,25.38 142.4,25.43 139.58,25.47 136.71,25.5 133.78,25.52 130.78,25.54 127.73,25.55 124.62,25.56 124.62,124.62 127.73,124.61 "
       style="fill:#b6d9e8;fill-opacity:0.55;stroke:none;stroke-width:1.07"
       id="polygon29" />
    <polygon
       points="130.78,274.91 133.78,274.91 136.71,274.91 139.58,274.91 142.4,274.91 145.16,274.91 147.87,274.91 150.52,274.91 153.12,274.91 155.67,274.91 158.17,274.91 160.62,274.91 163.03,274.91 165.39,274.91 167.7,274.91 169.98,274.91 172.21,274.91 174.4,274.91 176.55,274.91 178.66,274.91 180.74,274.91 182.78,274.91 184.79,274.91 186.76,274.91 188.71,274.91 190.62,274.91 192.51,274.91 194.36,274.91 196.19,274.91 198,274.91 199.78,274.91 201.54,274.91 203.28,274.91 204.99,274.91 206.69,274.91 208.38,274.91 210.04,274.91 211.69,274.91 213.33,274.91 214.96,274.91 216.57,274.91 218.18,274.91 219.77,274.91 221.36,274.91 222.95,274.91 224.52,274.91 226.1,274.91 227.67,274.91 229.25,274.91 230.82,274.91 232.4,274.91 233.98,274.91 235.56,274.91 237.15,274.91 238.75,274.91 240.35,274.91 241.97,274.91 243.59,274.91 245.23,274.91 246.88,274.91 248.55,274.91 250.23,274.91 251.93,274.91 253.65,274.91 255.38,274.91 257.14,274.91 258.93,274.91 260.73,274.91 262.56,274.91 264.42,274.91 266.3,274.91 268.21,274.91 270.16,274.91 272.13,274.91 274.14,274.91 276.18,274.91 278.26,274.91 280.37,274.91 282.52,274.91 284.71,274.91 286.95,274.91 289.22,274.91 291.53,274.91 293.89,274.91 296.3,274.91 298.75,274.91 301.25,274.91 303.8,274.91 306.4,274.91 309.06,274.91 311.76,274.91 314.52,274.91 317.34,274.91 320.22,274.91 323.15,274.91 326.14,274.91 329.19,274.91 332.31,274.91 332.31,124.62 329.19,124.62 326.14,124.62 323.15,124.62 320.22,124.62 317.34,124.62 314.52,124.62 311.76,124.62 309.06,124.62 306.4,124.62 303.8,124.62 301.25,124.62 298.75,124.62 296.3,124.62 293.89,124.62 291.53,124.62 289.22,124.62 286.95,124.62 284.71,124.62 282.52,124.62 280.37,124.62 278.26,124.62 276.18,124.62 274.14,124.62 272.13,124.62 270.16,124.62 268.21,124.62 266.3,124.62 264.42,124.62 262.56,124.62 260.73,124.62 258.93,124.62 257.14,124.62 255.38,124.62 253.65,124.62 251.93,124.62 250.23,124.62 248.55,124.62 246.88,124.62 245.23,124.62 243.59,124.62 241.97,124.62 240.35,124.62 238.75,124.62 237.15,124.62 235.56,124.62 233.98,124.62 232.4,124.62 230.82,124.62 229.25,124.62 227.67,124.62 226.1,124.62 224.52,124.62 222.95,124.62 221.36,124.62 219.77,124.62 218.18,124.62 216.57,124.62 214.96,124.62 213.33,124.62 211.69,124.62 210.04,124.62 208.38,124.62 206.69,124.62 204.99,124.62 203.28,124.62 201.54,124.62 199.78,124.62 198,124.62 196.19,124.62 194.36,124.62 192.51,124.62 190.62,124.62 188.71,124.62 186.76,124.62 184.79,124.62 182.78,124.62 180.74,124.62 178.66,124.62 176.55,124.62 174.4,124.62 172.21,124.62 169.98,124.62 167.7,124.62 165.39,124.62 163.03,124.62 160.62,124.62 158.17,124.62 155.67,124.62 153.12,124.62 150.52,124.62 147.87,124.62 145.16,124.62 142.4,124.62 139.58,124.62 136.71,124.62 133.78,124.62 130.78,124.62 127.73,124.62 124.62,124.62 124.62,274.91 127.73,274.91 "
       style="fill:#ffd1d1;fill-opacity:0.55;stroke:none;stroke-width:1.07"
       id="polygon31" />
    <polygon
       points="338.48,85.51 341.47,85.51 344.4,85.51 347.27,85.51 350.09,85.51 352.85,85.51 355.56,85.51 358.21,85.51 360.81,85.51 363.36,85.51 365.86,85.51 368.32,85.51 370.72,85.51 373.08,85.51 375.4,85.51 377.67,85.51 379.9,85.51 382.09,85.51 384.24,85.51 386.36,85.51 388.43,85.51 390.47,85.51 392.48,85.51 394.46,85.51 396.4,85.51 398.31,85.51 400.2,85.51 402.05,85.51 403.88,85.51 405.69,85.51 407.47,85.51 409.23,85.51 410.97,85.51 412.69,85.51 414.39,85.51 416.07,85.51 417.73,85.51 419.39,85.51 421.02,85.51 422.65,85.51 424.26,85.51 425.87,85.51 427.46,85.51 429.05,85.51 430.64,85.51 432.22,85.51 433.79,85.51 435.37,85.51 436.94,85.51 438.51,85.51 440.09,85.51 441.67,85.51 443.25,85.51 444.84,85.51 446.44,85.51 448.04,85.51 449.66,85.51 451.28,85.51 452.92,85.51 454.57,85.51 456.24,85.51 457.92,85.51 459.62,85.51 461.34,85.51 463.08,85.51 464.84,85.51 466.62,85.51 468.42,85.51 470.25,85.51 472.11,85.51 473.99,85.51 475.91,85.51 477.85,85.51 479.83,85.51 481.83,85.51 483.87,85.51 485.95,85.51 488.07,85.51 490.22,85.51 492.41,85.51 494.64,85.51 496.91,85.51 499.23,85.51 501.59,85.51 503.99,85.51 506.45,85.51 508.95,85.51 511.5,85.51 514.1,85.51 516.75,85.51 519.46,85.51 522.22,85.51 525.03,85.51 527.91,85.51 530.84,85.51 533.83,85.51 536.88,85.51 540,85.51 540,13.09 536.88,13.09 533.83,13.09 530.84,13.09 527.91,13.09 525.03,13.09 522.22,13.09 519.46,13.09 516.75,13.09 514.1,13.09 511.5,13.09 508.95,13.09 506.45,13.09 503.99,13.09 501.59,13.09 499.23,13.09 496.91,13.09 494.64,13.09 492.41,13.09 490.22,13.09 488.07,13.09 485.95,13.09 483.87,13.09 481.83,13.09 479.83,13.09 477.85,13.09 475.91,13.09 473.99,13.09 472.11,13.09 470.25,13.09 468.42,13.09 466.62,13.09 464.84,13.09 463.08,13.09 461.34,13.09 459.62,13.09 457.92,13.09 456.24,13.09 454.57,13.09 452.92,13.09 451.28,13.09 449.66,13.09 448.04,13.09 446.44,13.09 444.84,13.09 443.25,13.09 441.67,13.09 440.09,13.09 438.51,13.09 436.94,13.09 435.37,13.09 433.79,13.09 432.22,13.09 430.64,13.09 429.05,13.09 427.46,13.09 425.87,13.09 424.26,13.09 422.65,13.09 421.02,13.09 419.39,13.09 417.73,13.09 416.07,13.09 414.39,13.09 412.69,13.09 410.97,13.09 409.23,13.09 407.47,13.09 405.69,13.09 403.88,13.09 402.05,13.09 400.2,13.09 398.31,13.09 396.4,13.09 394.46,13.09 392.48,13.09 390.47,13.09 388.43,13.09 386.36,13.09 384.24,13.09 382.09,13.09 379.9,13.09 377.67,13.09 375.4,13.09 373.08,13.09 370.72,13.09 368.32,13.09 365.86,13.09 363.36,13.09 360.81,13.09 358.21,13.09 355.56,13.09 352.85,13.09 350.09,13.09 347.27,13.09 344.4,13.09 341.47,13.09 338.48,13.09 335.42,13.09 332.31,13.09 332.31,85.51 335.42,85.51 "
       style="fill:#b6d9e8;fill-opacity:0.55;stroke:none;stroke-width:1.07"
       id="polygon33" />
    <polygon
       points="338.48,256.42 341.47,256.36 344.4,256.28 347.27,256.17 350.09,256.05 352.85,255.91 355.56,255.74 358.21,255.55 360.81,255.35 363.36,255.12 365.86,254.88 368.32,254.62 370.72,254.34 373.08,254.04 375.4,253.73 377.67,253.4 379.9,253.06 382.09,252.7 384.24,252.32 386.36,251.93 388.43,251.53 390.47,251.11 392.48,250.68 394.46,250.24 396.4,249.79 398.31,249.32 400.2,248.85 402.05,248.36 403.88,247.87 405.69,247.36 407.47,246.85 409.23,246.32 410.97,245.79 412.69,245.26 414.39,244.71 416.07,244.16 417.73,243.6 419.39,243.04 421.02,242.47 422.65,241.9 424.26,241.32 425.87,240.74 427.46,240.15 429.05,239.57 430.64,238.98 432.22,238.39 433.79,237.8 435.37,237.21 436.94,236.61 438.51,236.02 440.09,235.43 441.67,234.84 443.25,234.25 444.84,233.66 446.44,233.08 448.04,232.5 449.66,231.92 451.28,231.35 452.92,230.78 454.57,230.22 456.24,229.66 457.92,229.11 459.62,228.56 461.34,228.02 463.08,227.49 464.84,226.97 466.62,226.46 468.42,225.95 470.25,225.46 472.11,224.97 473.99,224.49 475.91,224.03 477.85,223.58 479.83,223.13 481.83,222.71 483.87,222.29 485.95,221.89 488.07,221.5 490.22,221.12 492.41,220.76 494.64,220.42 496.91,220.09 499.23,219.77 501.59,219.48 503.99,219.2 506.45,218.94 508.95,218.69 511.5,218.47 514.1,218.26 516.75,218.08 519.46,217.91 522.22,217.77 525.03,217.64 527.91,217.54 530.84,217.46 533.83,217.4 536.88,217.37 540,217.35 540,85.51 536.88,85.52 533.83,85.55 530.84,85.61 527.91,85.69 525.03,85.79 522.22,85.92 519.46,86.06 516.75,86.23 514.1,86.42 511.5,86.62 508.95,86.85 506.45,87.09 503.99,87.35 501.59,87.63 499.23,87.93 496.91,88.24 494.64,88.57 492.41,88.91 490.22,89.27 488.07,89.65 485.95,90.04 483.87,90.44 481.83,90.86 479.83,91.29 477.85,91.73 475.91,92.18 473.99,92.65 472.11,93.12 470.25,93.61 468.42,94.1 466.62,94.61 464.84,95.12 463.08,95.64 461.34,96.18 459.62,96.71 457.92,97.26 456.24,97.81 454.57,98.37 452.92,98.93 451.28,99.5 449.66,100.07 448.04,100.65 446.44,101.23 444.84,101.81 443.25,102.4 441.67,102.99 440.09,103.58 438.51,104.17 436.94,104.76 435.37,105.36 433.79,105.95 432.22,106.54 430.64,107.13 429.05,107.72 427.46,108.31 425.87,108.89 424.26,109.47 422.65,110.05 421.02,110.62 419.39,111.19 417.73,111.75 416.07,112.31 414.39,112.86 412.69,113.41 410.97,113.95 409.23,114.48 407.47,115 405.69,115.51 403.88,116.02 402.05,116.51 400.2,117 398.31,117.48 396.4,117.94 394.46,118.39 392.48,118.83 390.47,119.26 388.43,119.68 386.36,120.08 384.24,120.47 382.09,120.85 379.9,121.21 377.67,121.55 375.4,121.88 373.08,122.19 370.72,122.49 368.32,122.77 365.86,123.03 363.36,123.27 360.81,123.5 358.21,123.7 355.56,123.89 352.85,124.06 350.09,124.2 347.27,124.33 344.4,124.43 341.47,124.51 338.48,124.57 335.42,124.6 332.31,124.62 332.31,256.46 335.42,256.45 "
       style="fill:#ffd1d1;fill-opacity:0.55;stroke:none;stroke-width:1.07"
       id="polygon35" />
    <polygon
       points="338.48,112.32 341.47,112.54 344.4,112.84 347.27,113.22 350.09,113.67 352.85,114.21 355.56,114.82 358.21,115.51 360.81,116.27 363.36,117.1 365.86,118 368.32,118.96 370.72,119.99 373.08,121.08 375.4,122.24 377.67,123.45 379.9,124.73 382.09,126.05 384.24,127.44 386.36,128.87 388.43,130.36 390.47,131.9 392.48,133.48 394.46,135.11 396.4,136.78 398.31,138.5 400.2,140.25 402.05,142.04 403.88,143.87 405.69,145.74 407.47,147.63 409.23,149.56 410.97,151.52 412.69,153.51 414.39,155.52 416.07,157.55 417.73,159.61 419.39,161.69 421.02,163.79 422.65,165.9 424.26,168.03 425.87,170.17 427.46,172.33 429.05,174.49 430.64,176.67 432.22,178.84 433.79,181.03 435.37,183.21 436.94,185.4 438.51,187.58 440.09,189.77 441.67,191.95 443.25,194.12 444.84,196.28 446.44,198.44 448.04,200.58 449.66,202.71 451.28,204.82 452.92,206.92 454.57,209 456.24,211.06 457.92,213.09 459.62,215.1 461.34,217.09 463.08,219.05 464.84,220.98 466.62,222.87 468.42,224.74 470.25,226.57 472.11,228.36 473.99,230.12 475.91,231.83 477.85,233.5 479.83,235.13 481.83,236.72 483.87,238.25 485.95,239.74 488.07,241.17 490.22,242.56 492.41,243.89 494.64,245.16 496.91,246.37 499.23,247.53 501.59,248.62 503.99,249.65 506.45,250.62 508.95,251.51 511.5,252.34 514.1,253.1 516.75,253.79 519.46,254.4 522.22,254.94 525.03,255.4 527.91,255.78 530.84,256.07 533.83,256.29 536.88,256.42 540,256.46 540,229.82 536.88,229.78 533.83,229.65 530.84,229.43 527.91,229.13 525.03,228.75 522.22,228.3 519.46,227.76 516.75,227.15 514.1,226.46 511.5,225.7 508.95,224.87 506.45,223.97 503.99,223.01 501.59,221.98 499.23,220.89 496.91,219.73 494.64,218.52 492.41,217.24 490.22,215.91 488.07,214.53 485.95,213.1 483.87,211.61 481.83,210.07 479.83,208.49 477.85,206.86 475.91,205.19 473.99,203.47 472.11,201.72 470.25,199.93 468.42,198.1 466.62,196.23 464.84,194.33 463.08,192.41 461.34,190.45 459.62,188.46 457.92,186.45 456.24,184.41 454.57,182.36 452.92,180.28 451.28,178.18 449.66,176.07 448.04,173.94 446.44,171.79 444.84,169.64 443.25,167.48 441.67,165.3 440.09,163.12 438.51,160.94 436.94,158.76 435.37,156.57 433.79,154.38 432.22,152.2 430.64,150.02 429.05,147.85 427.46,145.69 425.87,143.53 424.26,141.39 422.65,139.26 421.02,137.15 419.39,135.05 417.73,132.97 416.07,130.91 414.39,128.88 412.69,126.86 410.97,124.88 409.23,122.92 407.47,120.99 405.69,119.09 403.88,117.23 402.05,115.4 400.2,113.61 398.31,111.85 396.4,110.14 394.46,108.47 392.48,106.84 390.47,105.25 388.43,103.72 386.36,102.23 384.24,100.79 382.09,99.41 379.9,98.08 377.67,96.81 375.4,95.6 373.08,94.44 370.72,93.35 368.32,92.32 365.86,91.35 363.36,90.45 360.81,89.62 358.21,88.87 355.56,88.18 352.85,87.57 350.09,87.03 347.27,86.57 344.4,86.19 341.47,85.89 338.48,85.68 335.42,85.55 332.31,85.51 332.31,112.15 335.42,112.19 "
       style="fill:#b6d9e8;fill-opacity:0.55;stroke:none;stroke-width:1.07"
       id="polygon37" />
    <polygon
       points="338.48,274.91 341.47,274.91 344.4,274.91 347.27,274.91 350.09,274.91 352.85,274.91 355.56,274.91 358.21,274.91 360.81,274.91 363.36,274.91 365.86,274.91 368.32,274.91 370.72,274.91 373.08,274.91 375.4,274.91 377.67,274.91 379.9,274.91 382.09,274.91 384.24,274.91 386.36,274.91 388.43,274.91 390.47,274.91 392.48,274.91 394.46,274.91 396.4,274.91 398.31,274.91 400.2,274.91 402.05,274.91 403.88,274.91 405.69,274.91 407.47,274.91 409.23,274.91 410.97,274.91 412.69,274.91 414.39,274.91 416.07,274.91 417.73,274.91 419.39,274.91 421.02,274.91 422.65,274.91 424.26,274.91 425.87,274.91 427.46,274.91 429.05,274.91 430.64,274.91 432.22,274.91 433.79,274.91 435.37,274.91 436.94,274.91 438.51,274.91 440.09,274.91 441.67,274.91 443.25,274.91 444.84,274.91 446.44,274.91 448.04,274.91 449.66,274.91 451.28,274.91 452.92,274.91 454.57,274.91 456.24,274.91 457.92,274.91 459.62,274.91 461.34,274.91 463.08,274.91 464.84,274.91 466.62,274.91 468.42,274.91 470.25,274.91 472.11,274.91 473.99,274.91 475.91,274.91 477.85,274.91 479.83,274.91 481.83,274.91 483.87,274.91 485.95,274.91 488.07,274.91 490.22,274.91 492.41,274.91 494.64,274.91 496.91,274.91 499.23,274.91 501.59,274.91 503.99,274.91 506.45,274.91 508.95,274.91 511.5,274.91 514.1,274.91 516.75,274.91 519.46,274.91 522.22,274.91 525.03,274.91 527.91,274.91 530.84,274.91 533.83,274.91 536.88,274.91 540,274.91 540,256.46 536.88,256.46 533.83,256.46 530.84,256.46 527.91,256.46 525.03,256.46 522.22,256.46 519.46,256.46 516.75,256.46 514.1,256.46 511.5,256.46 508.95,256.46 506.45,256.46 503.99,256.46 501.59,256.46 499.23,256.46 496.91,256.46 494.64,256.46 492.41,256.46 490.22,256.46 488.07,256.46 485.95,256.46 483.87,256.46 481.83,256.46 479.83,256.46 477.85,256.46 475.91,256.46 473.99,256.46 472.11,256.46 470.25,256.46 468.42,256.46 466.62,256.46 464.84,256.46 463.08,256.46 461.34,256.46 459.62,256.46 457.92,256.46 456.24,256.46 454.57,256.46 452.92,256.46 451.28,256.46 449.66,256.46 448.04,256.46 446.44,256.46 444.84,256.46 443.25,256.46 441.67,256.46 440.09,256.46 438.51,256.46 436.94,256.46 435.37,256.46 433.79,256.46 432.22,256.46 430.64,256.46 429.05,256.46 427.46,256.46 425.87,256.46 424.26,256.46 422.65,256.46 421.02,256.46 419.39,256.46 417.73,256.46 416.07,256.46 414.39,256.46 412.69,256.46 410.97,256.46 409.23,256.46 407.47,256.46 405.69,256.46 403.88,256.46 402.05,256.46 400.2,256.46 398.31,256.46 396.4,256.46 394.46,256.46 392.48,256.46 390.47,256.46 388.43,256.46 386.36,256.46 384.24,256.46 382.09,256.46 379.9,256.46 377.67,256.46 375.4,256.46 373.08,256.46 370.72,256.46 368.32,256.46 365.86,256.46 363.36,256.46 360.81,256.46 358.21,256.46 355.56,256.46 352.85,256.46 350.09,256.46 347.27,256.46 344.4,256.46 341.47,256.46 338.48,256.46 335.42,256.46 332.31,256.46 332.31,274.91 335.42,274.91 "
       style="fill:#ffd1d1;fill-opacity:0.55;stroke:none;stroke-width:1.07"
       id="polygon39" />
    <polygon
       points="546.17,48.61 549.16,48.61 552.09,48.61 554.97,48.61 557.78,48.61 560.54,48.61 563.25,48.61 565.9,48.61 568.5,48.61 571.05,48.61 573.55,48.61 576.01,48.61 578.41,48.61 580.77,48.61 583.09,48.61 585.36,48.61 587.59,48.61 589.78,48.61 591.93,48.61 594.05,48.61 596.13,48.61 598.17,48.61 600.17,48.61 602.15,48.61 604.09,48.61 606.01,48.61 607.89,48.61 609.75,48.61 611.58,48.61 613.38,48.61 615.16,48.61 616.92,48.61 618.66,48.61 620.38,48.61 622.08,48.61 623.76,48.61 625.43,48.61 627.08,48.61 628.72,48.61 630.34,48.61 631.96,48.61 633.56,48.61 635.16,48.61 636.75,48.61 638.33,48.61 639.91,48.61 641.49,48.61 643.06,48.61 644.63,48.61 646.21,48.61 647.78,48.61 649.36,48.61 650.95,48.61 652.54,48.61 654.13,48.61 655.74,48.61 657.35,48.61 658.98,48.61 660.61,48.61 662.27,48.61 663.93,48.61 665.61,48.61 667.31,48.61 669.03,48.61 670.77,48.61 672.53,48.61 674.31,48.61 676.12,48.61 677.95,48.61 679.8,48.61 681.69,48.61 683.6,48.61 685.54,48.61 687.52,48.61 689.53,48.61 691.57,48.61 693.64,48.61 695.76,48.61 697.91,48.61 700.1,48.61 702.33,48.61 704.6,48.61 706.92,48.61 709.28,48.61 711.68,48.61 714.14,48.61 716.64,48.61 719.19,48.61 721.79,48.61 724.44,48.61 727.15,48.61 729.91,48.61 732.73,48.61 735.6,48.61 738.53,48.61 741.52,48.61 744.58,48.61 747.69,48.61 747.69,13.09 744.58,13.09 741.52,13.09 738.53,13.09 735.6,13.09 732.73,13.09 729.91,13.09 727.15,13.09 724.44,13.09 721.79,13.09 719.19,13.09 716.64,13.09 714.14,13.09 711.68,13.09 709.28,13.09 706.92,13.09 704.6,13.09 702.33,13.09 700.1,13.09 697.91,13.09 695.76,13.09 693.64,13.09 691.57,13.09 689.53,13.09 687.52,13.09 685.54,13.09 683.6,13.09 681.69,13.09 679.8,13.09 677.95,13.09 676.12,13.09 674.31,13.09 672.53,13.09 670.77,13.09 669.03,13.09 667.31,13.09 665.61,13.09 663.93,13.09 662.27,13.09 660.61,13.09 658.98,13.09 657.35,13.09 655.74,13.09 654.13,13.09 652.54,13.09 650.95,13.09 649.36,13.09 647.78,13.09 646.21,13.09 644.63,13.09 643.06,13.09 641.49,13.09 639.91,13.09 638.33,13.09 636.75,13.09 635.16,13.09 633.56,13.09 631.96,13.09 630.34,13.09 628.72,13.09 627.08,13.09 625.43,13.09 623.76,13.09 622.08,13.09 620.38,13.09 618.66,13.09 616.92,13.09 615.16,13.09 613.38,13.09 611.58,13.09 609.75,13.09 607.89,13.09 606.01,13.09 604.09,13.09 602.15,13.09 600.17,13.09 598.17,13.09 596.13,13.09 594.05,13.09 591.93,13.09 589.78,13.09 587.59,13.09 585.36,13.09 583.09,13.09 580.77,13.09 578.41,13.09 576.01,13.09 573.55,13.09 571.05,13.09 568.5,13.09 565.9,13.09 563.25,13.09 560.54,13.09 557.78,13.09 554.97,13.09 552.09,13.09 549.16,13.09 546.17,13.09 543.12,13.09 540,13.09 540,48.61 543.12,48.61 "
       style="fill:#b6d9e8;fill-opacity:0.55;stroke:none;stroke-width:1.07"
       id="polygon41" />
    <polygon
       points="546.17,153.78 549.16,153.72 552.09,153.64 554.97,153.55 557.78,153.43 560.54,153.29 563.25,153.14 565.9,152.96 568.5,152.77 571.05,152.56 573.55,152.33 576.01,152.08 578.41,151.82 580.77,151.54 583.09,151.24 585.36,150.93 587.59,150.61 589.78,150.27 591.93,149.91 594.05,149.54 596.13,149.16 598.17,148.77 600.17,148.37 602.15,147.95 604.09,147.52 606.01,147.09 607.89,146.64 609.75,146.18 611.58,145.71 613.38,145.23 615.16,144.75 616.92,144.26 618.66,143.76 620.38,143.25 622.08,142.73 623.76,142.21 625.43,141.69 627.08,141.16 628.72,140.62 630.34,140.08 631.96,139.54 633.56,138.99 635.16,138.44 636.75,137.88 638.33,137.33 639.91,136.77 641.49,136.21 643.06,135.65 644.63,135.1 646.21,134.54 647.78,133.98 649.36,133.42 650.95,132.87 652.54,132.31 654.13,131.76 655.74,131.22 657.35,130.67 658.98,130.13 660.61,129.59 662.27,129.06 663.93,128.54 665.61,128.02 667.31,127.5 669.03,126.99 670.77,126.49 672.53,126 674.31,125.52 676.12,125.04 677.95,124.57 679.8,124.11 681.69,123.67 683.6,123.23 685.54,122.8 687.52,122.38 689.53,121.98 691.57,121.59 693.64,121.21 695.76,120.84 697.91,120.48 700.1,120.15 702.33,119.82 704.6,119.51 706.92,119.21 709.28,118.93 711.68,118.67 714.14,118.42 716.64,118.2 719.19,117.98 721.79,117.79 724.44,117.61 727.15,117.46 729.91,117.32 732.73,117.2 735.6,117.11 738.53,117.03 741.52,116.97 744.58,116.94 747.69,116.93 747.69,48.61 744.58,48.63 741.52,48.66 738.53,48.71 735.6,48.79 732.73,48.89 729.91,49 727.15,49.14 724.44,49.3 721.79,49.47 719.19,49.67 716.64,49.88 714.14,50.11 711.68,50.36 709.28,50.62 706.92,50.9 704.6,51.19 702.33,51.5 700.1,51.83 697.91,52.17 695.76,52.52 693.64,52.89 691.57,53.27 689.53,53.66 687.52,54.07 685.54,54.48 683.6,54.91 681.69,55.35 679.8,55.8 677.95,56.26 676.12,56.72 674.31,57.2 672.53,57.69 670.77,58.18 669.03,58.68 667.31,59.19 665.61,59.7 663.93,60.22 662.27,60.75 660.61,61.28 658.98,61.82 657.35,62.36 655.74,62.9 654.13,63.45 652.54,64 650.95,64.55 649.36,65.11 647.78,65.66 646.21,66.22 644.63,66.78 643.06,67.34 641.49,67.9 639.91,68.46 638.33,69.01 636.75,69.57 635.16,70.12 633.56,70.67 631.96,71.22 630.34,71.76 628.72,72.3 627.08,72.84 625.43,73.37 623.76,73.9 622.08,74.42 620.38,74.93 618.66,75.44 616.92,75.94 615.16,76.43 613.38,76.92 611.58,77.4 609.75,77.86 607.89,78.32 606.01,78.77 604.09,79.21 602.15,79.64 600.17,80.05 598.17,80.46 596.13,80.85 594.05,81.23 591.93,81.6 589.78,81.95 587.59,82.29 585.36,82.62 583.09,82.93 580.77,83.22 578.41,83.5 576.01,83.76 573.55,84.01 571.05,84.24 568.5,84.45 565.9,84.65 563.25,84.82 560.54,84.98 557.78,85.11 554.97,85.23 552.09,85.33 549.16,85.41 546.17,85.46 543.12,85.49 540,85.51 540,153.82 543.12,153.81 "
       style="fill:#ffd1d1;fill-opacity:0.55;stroke:none;stroke-width:1.07"
       id="polygon43" />
    <polygon
       points="546.17,85.6 549.16,85.72 552.09,85.89 554.97,86.1 557.78,86.36 560.54,86.66 563.25,87 565.9,87.39 568.5,87.81 571.05,88.28 573.55,88.78 576.01,89.32 578.41,89.89 580.77,90.51 583.09,91.15 585.36,91.83 587.59,92.55 589.78,93.29 591.93,94.06 594.05,94.87 596.13,95.7 598.17,96.56 600.17,97.45 602.15,98.36 604.09,99.29 606.01,100.25 607.89,101.24 609.75,102.24 611.58,103.26 613.38,104.31 615.16,105.37 616.92,106.45 618.66,107.54 620.38,108.66 622.08,109.78 623.76,110.92 625.43,112.07 627.08,113.24 628.72,114.41 630.34,115.59 631.96,116.79 633.56,117.99 635.16,119.19 636.75,120.4 638.33,121.62 639.91,122.84 641.49,124.06 643.06,125.28 644.63,126.51 646.21,127.73 647.78,128.95 649.36,130.17 650.95,131.39 652.54,132.6 654.13,133.81 655.74,135.01 657.35,136.2 658.98,137.38 660.61,138.56 662.27,139.72 663.93,140.87 665.61,142.01 667.31,143.14 669.03,144.25 670.77,145.34 672.53,146.42 674.31,147.49 676.12,148.53 677.95,149.55 679.8,150.56 681.69,151.54 683.6,152.5 685.54,153.44 687.52,154.35 689.53,155.23 691.57,156.09 693.64,156.93 695.76,157.73 697.91,158.5 700.1,159.25 702.33,159.96 704.6,160.64 706.92,161.29 709.28,161.9 711.68,162.47 714.14,163.01 716.64,163.52 719.19,163.98 721.79,164.41 724.44,164.79 727.15,165.13 729.91,165.43 732.73,165.69 735.6,165.9 738.53,166.07 741.52,166.19 744.58,166.26 747.69,166.29 747.69,129.4 744.58,129.37 741.52,129.3 738.53,129.18 735.6,129.01 732.73,128.8 729.91,128.54 727.15,128.24 724.44,127.9 721.79,127.52 719.19,127.09 716.64,126.63 714.14,126.12 711.68,125.58 709.28,125.01 706.92,124.4 704.6,123.75 702.33,123.07 700.1,122.36 697.91,121.61 695.76,120.84 693.64,120.04 691.57,119.2 689.53,118.34 687.52,117.46 685.54,116.55 683.6,115.61 681.69,114.65 679.8,113.67 677.95,112.66 676.12,111.64 674.31,110.6 672.53,109.53 670.77,108.45 669.03,107.36 667.31,106.25 665.61,105.12 663.93,103.98 662.27,102.83 660.61,101.67 658.98,100.49 657.35,99.31 655.74,98.12 654.13,96.92 652.54,95.71 650.95,94.5 649.36,93.28 647.78,92.06 646.21,90.84 644.63,89.62 643.06,88.39 641.49,87.17 639.91,85.95 638.33,84.73 636.75,83.51 635.16,82.3 633.56,81.1 631.96,79.9 630.34,78.7 628.72,77.52 627.08,76.35 625.43,75.18 623.76,74.03 622.08,72.89 620.38,71.77 618.66,70.65 616.92,69.56 615.16,68.48 613.38,67.42 611.58,66.37 609.75,65.35 607.89,64.35 606.01,63.36 604.09,62.4 602.15,61.47 600.17,60.56 598.17,59.67 596.13,58.81 594.05,57.98 591.93,57.17 589.78,56.4 587.59,55.66 585.36,54.94 583.09,54.26 580.77,53.62 578.41,53 576.01,52.43 573.55,51.89 571.05,51.39 568.5,50.92 565.9,50.5 563.25,50.11 560.54,49.77 557.78,49.47 554.97,49.21 552.09,49 549.16,48.83 546.17,48.71 543.12,48.64 540,48.61 540,85.51 543.12,85.53 "
       style="fill:#b6d9e8;fill-opacity:0.55;stroke:none;stroke-width:1.07"
       id="polygon45" />
    <polygon
       points="546.17,217.4 549.16,217.46 552.09,217.54 554.97,217.64 557.78,217.77 560.54,217.91 563.25,218.08 565.9,218.26 568.5,218.47 571.05,218.69 573.55,218.94 576.01,219.2 578.41,219.48 580.77,219.77 583.09,220.09 585.36,220.42 587.59,220.76 589.78,221.12 591.93,221.5 594.05,221.89 596.13,222.29 598.17,222.71 600.17,223.13 602.15,223.58 604.09,224.03 606.01,224.49 607.89,224.97 609.75,225.46 611.58,225.95 613.38,226.46 615.16,226.97 616.92,227.49 618.66,228.02 620.38,228.56 622.08,229.11 623.76,229.66 625.43,230.22 627.08,230.78 628.72,231.35 630.34,231.92 631.96,232.5 633.56,233.08 635.16,233.66 636.75,234.25 638.33,234.84 639.91,235.43 641.49,236.02 643.06,236.61 644.63,237.21 646.21,237.8 647.78,238.39 649.36,238.98 650.95,239.57 652.54,240.15 654.13,240.74 655.74,241.32 657.35,241.9 658.98,242.47 660.61,243.04 662.27,243.6 663.93,244.16 665.61,244.71 667.31,245.26 669.03,245.79 670.77,246.32 672.53,246.85 674.31,247.36 676.12,247.87 677.95,248.36 679.8,248.85 681.69,249.32 683.6,249.79 685.54,250.24 687.52,250.68 689.53,251.11 691.57,251.53 693.64,251.93 695.76,252.32 697.91,252.7 700.1,253.06 702.33,253.4 704.6,253.73 706.92,254.04 709.28,254.34 711.68,254.62 714.14,254.88 716.64,255.12 719.19,255.35 721.79,255.55 724.44,255.74 727.15,255.91 729.91,256.05 732.73,256.17 735.6,256.28 738.53,256.36 741.52,256.42 744.58,256.45 747.69,256.46 747.69,192.93 744.58,192.92 741.52,192.88 738.53,192.83 735.6,192.74 732.73,192.64 729.91,192.52 727.15,192.37 724.44,192.21 721.79,192.02 719.19,191.81 716.64,191.59 714.14,191.35 711.68,191.08 709.28,190.81 706.92,190.51 704.6,190.2 702.33,189.87 700.1,189.52 697.91,189.16 695.76,188.79 693.64,188.4 691.57,188 689.53,187.58 687.52,187.15 685.54,186.71 683.6,186.26 681.69,185.79 679.8,185.31 677.95,184.83 676.12,184.33 674.31,183.83 672.53,183.31 670.77,182.79 669.03,182.26 667.31,181.72 665.61,181.18 663.93,180.63 662.27,180.07 660.61,179.5 658.98,178.94 657.35,178.36 655.74,177.79 654.13,177.21 652.54,176.62 650.95,176.03 649.36,175.45 647.78,174.86 646.21,174.26 644.63,173.67 643.06,173.08 641.49,172.49 639.91,171.9 638.33,171.3 636.75,170.72 635.16,170.13 633.56,169.55 631.96,168.97 630.34,168.39 628.72,167.82 627.08,167.25 625.43,166.68 623.76,166.13 622.08,165.57 620.38,165.03 618.66,164.49 616.92,163.96 615.16,163.44 613.38,162.92 611.58,162.42 609.75,161.92 607.89,161.44 606.01,160.96 604.09,160.5 602.15,160.04 600.17,159.6 598.17,159.17 596.13,158.76 594.05,158.35 591.93,157.96 589.78,157.59 587.59,157.23 585.36,156.88 583.09,156.55 580.77,156.24 578.41,155.95 576.01,155.67 573.55,155.4 571.05,155.16 568.5,154.94 565.9,154.73 563.25,154.55 560.54,154.38 557.78,154.23 554.97,154.11 552.09,154.01 549.16,153.93 546.17,153.87 543.12,153.83 540,153.82 540,217.35 543.12,217.37 "
       style="fill:#ffd1d1;fill-opacity:0.55;stroke:none;stroke-width:1.07"
       id="polygon47" />
    <polygon
       points="546.17,256.39 549.16,256.29 552.09,256.16 554.97,255.99 557.78,255.79 560.54,255.56 563.25,255.29 565.9,254.98 568.5,254.65 571.05,254.29 573.55,253.89 576.01,253.47 578.41,253.01 580.77,252.53 583.09,252.02 585.36,251.49 587.59,250.93 589.78,250.34 591.93,249.73 594.05,249.1 596.13,248.45 598.17,247.77 600.17,247.07 602.15,246.36 604.09,245.62 606.01,244.86 607.89,244.09 609.75,243.3 611.58,242.5 613.38,241.68 615.16,240.84 616.92,239.99 618.66,239.13 620.38,238.26 622.08,237.37 623.76,236.47 625.43,235.57 627.08,234.65 628.72,233.73 630.34,232.8 631.96,231.86 633.56,230.92 635.16,229.97 636.75,229.02 638.33,228.06 639.91,227.1 641.49,226.14 643.06,225.18 644.63,224.22 646.21,223.25 647.78,222.29 649.36,221.33 650.95,220.38 652.54,219.42 654.13,218.48 655.74,217.53 657.35,216.6 658.98,215.66 660.61,214.74 662.27,213.83 663.93,212.92 665.61,212.02 667.31,211.14 669.03,210.26 670.77,209.4 672.53,208.55 674.31,207.72 676.12,206.9 677.95,206.09 679.8,205.3 681.69,204.53 683.6,203.78 685.54,203.04 687.52,202.32 689.53,201.62 691.57,200.95 693.64,200.29 695.76,199.66 697.91,199.05 700.1,198.47 702.33,197.91 704.6,197.37 706.92,196.86 709.28,196.38 711.68,195.93 714.14,195.5 716.64,195.11 719.19,194.74 721.79,194.41 724.44,194.11 727.15,193.84 729.91,193.6 732.73,193.4 735.6,193.23 738.53,193.1 741.52,193.01 744.58,192.95 747.69,192.93 747.69,166.29 744.58,166.31 741.52,166.36 738.53,166.46 735.6,166.59 732.73,166.76 729.91,166.96 727.15,167.2 724.44,167.47 721.79,167.77 719.19,168.1 716.64,168.47 714.14,168.86 711.68,169.29 709.28,169.74 706.92,170.22 704.6,170.73 702.33,171.26 700.1,171.82 697.91,172.41 695.76,173.02 693.64,173.65 691.57,174.31 689.53,174.98 687.52,175.68 685.54,176.4 683.6,177.13 681.69,177.89 679.8,178.66 677.95,179.45 676.12,180.25 674.31,181.08 672.53,181.91 670.77,182.76 669.03,183.62 667.31,184.5 665.61,185.38 663.93,186.28 662.27,187.18 660.61,188.1 658.98,189.02 657.35,189.95 655.74,190.89 654.13,191.83 652.54,192.78 650.95,193.73 649.36,194.69 647.78,195.65 646.21,196.61 644.63,197.57 643.06,198.54 641.49,199.5 639.91,200.46 638.33,201.42 636.75,202.37 635.16,203.33 633.56,204.28 631.96,205.22 630.34,206.16 628.72,207.09 627.08,208.01 625.43,208.93 623.76,209.83 622.08,210.73 620.38,211.61 618.66,212.49 616.92,213.35 615.16,214.2 613.38,215.03 611.58,215.85 609.75,216.66 607.89,217.45 606.01,218.22 604.09,218.98 602.15,219.71 600.17,220.43 598.17,221.13 596.13,221.8 594.05,222.46 591.93,223.09 589.78,223.7 587.59,224.28 585.36,224.84 583.09,225.38 580.77,225.89 578.41,226.37 576.01,226.82 573.55,227.25 571.05,227.64 568.5,228.01 565.9,228.34 563.25,228.64 560.54,228.91 557.78,229.15 554.97,229.35 552.09,229.52 549.16,229.65 546.17,229.74 543.12,229.8 540,229.82 540,256.46 543.12,256.44 "
       style="fill:#b6d9e8;fill-opacity:0.55;stroke:none;stroke-width:1.07"
       id="polygon49" />
    <polygon
       points="546.17,274.91 549.16,274.91 552.09,274.91 554.97,274.91 557.78,274.91 560.54,274.91 563.25,274.91 565.9,274.91 568.5,274.91 571.05,274.91 573.55,274.91 576.01,274.91 578.41,274.91 580.77,274.91 583.09,274.91 585.36,274.91 587.59,274.91 589.78,274.91 591.93,274.91 594.05,274.91 596.13,274.91 598.17,274.91 600.17,274.91 602.15,274.91 604.09,274.91 606.01,274.91 607.89,274.91 609.75,274.91 611.58,274.91 613.38,274.91 615.16,274.91 616.92,274.91 618.66,274.91 620.38,274.91 622.08,274.91 623.76,274.91 625.43,274.91 627.08,274.91 628.72,274.91 630.34,274.91 631.96,274.91 633.56,274.91 635.16,274.91 636.75,274.91 638.33,274.91 639.91,274.91 641.49,274.91 643.06,274.91 644.63,274.91 646.21,274.91 647.78,274.91 649.36,274.91 650.95,274.91 652.54,274.91 654.13,274.91 655.74,274.91 657.35,274.91 658.98,274.91 660.61,274.91 662.27,274.91 663.93,274.91 665.61,274.91 667.31,274.91 669.03,274.91 670.77,274.91 672.53,274.91 674.31,274.91 676.12,274.91 677.95,274.91 679.8,274.91 681.69,274.91 683.6,274.91 685.54,274.91 687.52,274.91 689.53,274.91 691.57,274.91 693.64,274.91 695.76,274.91 697.91,274.91 700.1,274.91 702.33,274.91 704.6,274.91 706.92,274.91 709.28,274.91 711.68,274.91 714.14,274.91 716.64,274.91 719.19,274.91 721.79,274.91 724.44,274.91 727.15,274.91 729.91,274.91 732.73,274.91 735.6,274.91 738.53,274.91 741.52,274.91 744.58,274.91 747.69,274.91 747.69,256.46 744.58,256.46 741.52,256.46 738.53,256.46 735.6,256.46 732.73,256.46 729.91,256.46 727.15,256.46 724.44,256.46 721.79,256.46 719.19,256.46 716.64,256.46 714.14,256.46 711.68,256.46 709.28,256.46 706.92,256.46 704.6,256.46 702.33,256.46 700.1,256.46 697.91,256.46 695.76,256.46 693.64,256.46 691.57,256.46 689.53,256.46 687.52,256.46 685.54,256.46 683.6,256.46 681.69,256.46 679.8,256.46 677.95,256.46 676.12,256.46 674.31,256.46 672.53,256.46 670.77,256.46 669.03,256.46 667.31,256.46 665.61,256.46 663.93,256.46 662.27,256.46 660.61,256.46 658.98,256.46 657.35,256.46 655.74,256.46 654.13,256.46 652.54,256.46 650.95,256.46 649.36,256.46 647.78,256.46 646.21,256.46 644.63,256.46 643.06,256.46 641.49,256.46 639.91,256.46 638.33,256.46 636.75,256.46 635.16,256.46 633.56,256.46 631.96,256.46 630.34,256.46 628.72,256.46 627.08,256.46 625.43,256.46 623.76,256.46 622.08,256.46 620.38,256.46 618.66,256.46 616.92,256.46 615.16,256.46 613.38,256.46 611.58,256.46 609.75,256.46 607.89,256.46 606.01,256.46 604.09,256.46 602.15,256.46 600.17,256.46 598.17,256.46 596.13,256.46 594.05,256.46 591.93,256.46 589.78,256.46 587.59,256.46 585.36,256.46 583.09,256.46 580.77,256.46 578.41,256.46 576.01,256.46 573.55,256.46 571.05,256.46 568.5,256.46 565.9,256.46 563.25,256.46 560.54,256.46 557.78,256.46 554.97,256.46 552.09,256.46 549.16,256.46 546.17,256.46 543.12,256.46 540,256.46 540,274.91 543.12,274.91 "
       style="fill:#ffd1d1;fill-opacity:0.55;stroke:none;stroke-width:1.07"
       id="polygon51" />
    <polygon
       points="753.86,36.32 756.85,36.32 759.78,36.32 762.66,36.32 765.48,36.32 768.24,36.32 770.94,36.32 773.6,36.32 776.2,36.32 778.75,36.32 781.25,36.32 783.7,36.32 786.11,36.32 788.47,36.32 790.78,36.32 793.05,36.32 795.29,36.32 797.48,36.32 799.63,36.32 801.74,36.32 803.82,36.32 805.86,36.32 807.87,36.32 809.84,36.32 811.79,36.32 813.7,36.32 815.58,36.32 817.44,36.32 819.27,36.32 821.07,36.32 822.86,36.32 824.62,36.32 826.35,36.32 828.07,36.32 829.77,36.32 831.45,36.32 833.12,36.32 834.77,36.32 836.41,36.32 838.03,36.32 839.65,36.32 841.25,36.32 842.85,36.32 844.44,36.32 846.02,36.32 847.6,36.32 849.18,36.32 850.75,36.32 852.33,36.32 853.9,36.32 855.48,36.32 857.05,36.32 858.64,36.32 860.23,36.32 861.82,36.32 863.43,36.32 865.04,36.32 866.67,36.32 868.31,36.32 869.96,36.32 871.62,36.32 873.31,36.32 875.01,36.32 876.72,36.32 878.46,36.32 880.22,36.32 882,36.32 883.81,36.32 885.64,36.32 887.49,36.32 889.38,36.32 891.29,36.32 893.24,36.32 895.21,36.32 897.22,36.32 899.26,36.32 901.34,36.32 903.45,36.32 905.6,36.32 907.79,36.32 910.02,36.32 912.3,36.32 914.61,36.32 916.97,36.32 919.38,36.32 921.83,36.32 924.33,36.32 926.88,36.32 929.48,36.32 932.13,36.32 934.84,36.32 937.6,36.32 940.42,36.32 943.29,36.32 946.22,36.32 949.22,36.32 952.27,36.32 955.38,36.32 955.38,13.09 952.27,13.09 949.22,13.09 946.22,13.09 943.29,13.09 940.42,13.09 937.6,13.09 934.84,13.09 932.13,13.09 929.48,13.09 926.88,13.09 924.33,13.09 921.83,13.09 919.38,13.09 916.97,13.09 914.61,13.09 912.3,13.09 910.02,13.09 907.79,13.09 905.6,13.09 903.45,13.09 901.34,13.09 899.26,13.09 897.22,13.09 895.21,13.09 893.24,13.09 891.29,13.09 889.38,13.09 887.49,13.09 885.64,13.09 883.81,13.09 882,13.09 880.22,13.09 878.46,13.09 876.72,13.09 875.01,13.09 873.31,13.09 871.62,13.09 869.96,13.09 868.31,13.09 866.67,13.09 865.04,13.09 863.43,13.09 861.82,13.09 860.23,13.09 858.64,13.09 857.05,13.09 855.48,13.09 853.9,13.09 852.33,13.09 850.75,13.09 849.18,13.09 847.6,13.09 846.02,13.09 844.44,13.09 842.85,13.09 841.25,13.09 839.65,13.09 838.03,13.09 836.41,13.09 834.77,13.09 833.12,13.09 831.45,13.09 829.77,13.09 828.07,13.09 826.35,13.09 824.62,13.09 822.86,13.09 821.07,13.09 819.27,13.09 817.44,13.09 815.58,13.09 813.7,13.09 811.79,13.09 809.84,13.09 807.87,13.09 805.86,13.09 803.82,13.09 801.74,13.09 799.63,13.09 797.48,13.09 795.29,13.09 793.05,13.09 790.78,13.09 788.47,13.09 786.11,13.09 783.7,13.09 781.25,13.09 778.75,13.09 776.2,13.09 773.6,13.09 770.94,13.09 768.24,13.09 765.48,13.09 762.66,13.09 759.78,13.09 756.85,13.09 753.86,13.09 750.81,13.09 747.69,13.09 747.69,36.32 750.81,36.32 "
       style="fill:#b6d9e8;fill-opacity:0.55;stroke:none;stroke-width:1.07"
       id="polygon53" />
    <polygon
       points="753.86,65.72 756.85,65.76 759.78,65.81 762.66,65.87 765.48,65.95 768.24,66.04 770.94,66.14 773.6,66.25 776.2,66.38 778.75,66.51 781.25,66.66 783.7,66.82 786.11,66.99 788.47,67.17 790.78,67.37 793.05,67.57 795.29,67.78 797.48,68 799.63,68.23 801.74,68.46 803.82,68.71 805.86,68.97 807.87,69.23 809.84,69.5 811.79,69.77 813.7,70.06 815.58,70.35 817.44,70.65 819.27,70.95 821.07,71.26 822.86,71.57 824.62,71.89 826.35,72.22 828.07,72.55 829.77,72.88 831.45,73.22 833.12,73.56 834.77,73.9 836.41,74.25 838.03,74.6 839.65,74.95 841.25,75.31 842.85,75.66 844.44,76.02 846.02,76.38 847.6,76.74 849.18,77.11 850.75,77.47 852.33,77.83 853.9,78.19 855.48,78.55 857.05,78.91 858.64,79.27 860.23,79.63 861.82,79.99 863.43,80.35 865.04,80.7 866.67,81.05 868.31,81.4 869.96,81.74 871.62,82.08 873.31,82.42 875.01,82.75 876.72,83.08 878.46,83.41 880.22,83.72 882,84.04 883.81,84.35 885.64,84.65 887.49,84.95 889.38,85.24 891.29,85.52 893.24,85.8 895.21,86.07 897.22,86.33 899.26,86.59 901.34,86.83 903.45,87.07 905.6,87.3 907.79,87.52 910.02,87.73 912.3,87.93 914.61,88.12 916.97,88.3 919.38,88.48 921.83,88.64 924.33,88.78 926.88,88.92 929.48,89.05 932.13,89.16 934.84,89.26 937.6,89.35 940.42,89.43 943.29,89.49 946.22,89.54 949.22,89.58 952.27,89.6 955.38,89.6 955.38,72.53 952.27,72.52 949.22,72.5 946.22,72.46 943.29,72.41 940.42,72.35 937.6,72.27 934.84,72.18 932.13,72.08 929.48,71.97 926.88,71.84 924.33,71.71 921.83,71.56 919.38,71.4 916.97,71.23 914.61,71.04 912.3,70.85 910.02,70.65 907.79,70.44 905.6,70.22 903.45,69.99 901.34,69.75 899.26,69.51 897.22,69.25 895.21,68.99 893.24,68.72 891.29,68.44 889.38,68.16 887.49,67.87 885.64,67.57 883.81,67.27 882,66.96 880.22,66.65 878.46,66.33 876.72,66 875.01,65.67 873.31,65.34 871.62,65 869.96,64.66 868.31,64.32 866.67,63.97 865.04,63.62 863.43,63.27 861.82,62.91 860.23,62.55 858.64,62.2 857.05,61.84 855.48,61.47 853.9,61.11 852.33,60.75 850.75,60.39 849.18,60.03 847.6,59.67 846.02,59.3 844.44,58.94 842.85,58.59 841.25,58.23 839.65,57.87 838.03,57.52 836.41,57.17 834.77,56.82 833.12,56.48 831.45,56.14 829.77,55.8 828.07,55.47 826.35,55.14 824.62,54.81 822.86,54.49 821.07,54.18 819.27,53.87 817.44,53.57 815.58,53.27 813.7,52.98 811.79,52.7 809.84,52.42 807.87,52.15 805.86,51.89 803.82,51.63 801.74,51.39 799.63,51.15 797.48,50.92 795.29,50.7 793.05,50.49 790.78,50.29 788.47,50.1 786.11,49.91 783.7,49.74 781.25,49.58 778.75,49.43 776.2,49.3 773.6,49.17 770.94,49.06 768.24,48.96 765.48,48.87 762.66,48.79 759.78,48.73 756.85,48.68 753.86,48.64 750.81,48.62 747.69,48.61 747.69,65.69 750.81,65.7 "
       style="fill:#ffd1d1;fill-opacity:0.55;stroke:none;stroke-width:1.07"
       id="polygon55" />
    <polygon
       points="753.86,165.49 756.85,165.35 759.78,165.16 762.66,164.92 765.48,164.62 768.24,164.27 770.94,163.88 773.6,163.44 776.2,162.95 778.75,162.41 781.25,161.83 783.7,161.21 786.11,160.55 788.47,159.84 790.78,159.1 793.05,158.31 795.29,157.49 797.48,156.64 799.63,155.74 801.74,154.82 803.82,153.86 805.86,152.87 807.87,151.85 809.84,150.8 811.79,149.72 813.7,148.61 815.58,147.48 817.44,146.32 819.27,145.14 821.07,143.94 822.86,142.72 824.62,141.47 826.35,140.21 828.07,138.93 829.77,137.63 831.45,136.32 833.12,134.99 834.77,133.65 836.41,132.3 838.03,130.93 839.65,129.56 841.25,128.18 842.85,126.79 844.44,125.39 846.02,123.99 847.6,122.59 849.18,121.18 850.75,119.77 852.33,118.36 853.9,116.95 855.48,115.54 857.05,114.14 858.64,112.74 860.23,111.34 861.82,109.95 863.43,108.57 865.04,107.2 866.67,105.83 868.31,104.48 869.96,103.14 871.62,101.81 873.31,100.5 875.01,99.2 876.72,97.92 878.46,96.66 880.22,95.41 882,94.19 883.81,92.99 885.64,91.81 887.49,90.65 889.38,89.52 891.29,88.41 893.24,87.33 895.21,86.28 897.22,85.26 899.26,84.27 901.34,83.31 903.45,82.39 905.6,81.49 907.79,80.64 910.02,79.82 912.3,79.03 914.61,78.29 916.97,77.58 919.38,76.92 921.83,76.3 924.33,75.72 926.88,75.18 929.48,74.69 932.13,74.25 934.84,73.86 937.6,73.51 940.42,73.21 943.29,72.97 946.22,72.78 949.22,72.64 952.27,72.55 955.38,72.53 955.38,36.32 952.27,36.35 949.22,36.43 946.22,36.57 943.29,36.76 940.42,37.01 937.6,37.3 934.84,37.65 932.13,38.04 929.48,38.49 926.88,38.98 924.33,39.51 921.83,40.09 919.38,40.71 916.97,41.38 914.61,42.08 912.3,42.83 910.02,43.61 907.79,44.43 905.6,45.29 903.45,46.18 901.34,47.11 899.26,48.06 897.22,49.06 895.21,50.08 893.24,51.13 891.29,52.21 889.38,53.31 887.49,54.44 885.64,55.6 883.81,56.78 882,57.98 880.22,59.21 878.46,60.45 876.72,61.71 875.01,62.99 873.31,64.29 871.62,65.6 869.96,66.93 868.31,68.27 866.67,69.62 865.04,70.99 863.43,72.36 861.82,73.74 860.23,75.13 858.64,76.53 857.05,77.93 855.48,79.34 853.9,80.74 852.33,82.15 850.75,83.56 849.18,84.97 847.6,86.38 846.02,87.79 844.44,89.19 842.85,90.58 841.25,91.97 839.65,93.35 838.03,94.73 836.41,96.09 834.77,97.44 833.12,98.78 831.45,100.11 829.77,101.42 828.07,102.72 826.35,104 824.62,105.27 822.86,106.51 821.07,107.73 819.27,108.94 817.44,110.12 815.58,111.27 813.7,112.4 811.79,113.51 809.84,114.59 807.87,115.64 805.86,116.66 803.82,117.65 801.74,118.61 799.63,119.54 797.48,120.43 795.29,121.29 793.05,122.11 790.78,122.89 788.47,123.63 786.11,124.34 783.7,125 781.25,125.63 778.75,126.21 776.2,126.74 773.6,127.23 770.94,127.67 768.24,128.07 765.48,128.41 762.66,128.71 759.78,128.95 756.85,129.15 753.86,129.29 750.81,129.37 747.69,129.4 747.69,165.6 750.81,165.58 "
       style="fill:#b6d9e8;fill-opacity:0.55;stroke:none;stroke-width:1.07"
       id="polygon57" />
    <polygon
       points="753.86,220.82 756.85,220.66 759.78,220.45 762.66,220.18 765.48,219.85 768.24,219.46 770.94,219.02 773.6,218.53 776.2,217.99 778.75,217.4 781.25,216.75 783.7,216.06 786.11,215.33 788.47,214.54 790.78,213.72 793.05,212.85 795.29,211.93 797.48,210.98 799.63,209.99 801.74,208.96 803.82,207.9 805.86,206.8 807.87,205.67 809.84,204.5 811.79,203.3 813.7,202.08 815.58,200.82 817.44,199.54 819.27,198.23 821.07,196.89 822.86,195.53 824.62,194.15 826.35,192.75 828.07,191.33 829.77,189.89 831.45,188.43 833.12,186.96 834.77,185.47 836.41,183.97 838.03,182.45 839.65,180.93 841.25,179.39 842.85,177.85 844.44,176.3 846.02,174.75 847.6,173.19 849.18,171.62 850.75,170.06 852.33,168.49 853.9,166.93 855.48,165.37 857.05,163.81 858.64,162.25 860.23,160.7 861.82,159.16 863.43,157.62 865.04,156.1 866.67,154.59 868.31,153.08 869.96,151.6 871.62,150.12 873.31,148.67 875.01,147.23 876.72,145.8 878.46,144.4 880.22,143.02 882,141.66 883.81,140.33 885.64,139.02 887.49,137.73 889.38,136.48 891.29,135.25 893.24,134.05 895.21,132.89 897.22,131.75 899.26,130.65 901.34,129.59 903.45,128.56 905.6,127.57 907.79,126.62 910.02,125.71 912.3,124.84 914.61,124.01 916.97,123.23 919.38,122.49 921.83,121.8 924.33,121.16 926.88,120.56 929.48,120.02 932.13,119.53 934.84,119.09 937.6,118.71 940.42,118.38 943.29,118.11 946.22,117.89 949.22,117.74 952.27,117.64 955.38,117.61 955.38,89.6 952.27,89.64 949.22,89.73 946.22,89.88 943.29,90.1 940.42,90.37 937.6,90.7 934.84,91.08 932.13,91.52 929.48,92.01 926.88,92.55 924.33,93.15 921.83,93.79 919.38,94.48 916.97,95.22 914.61,96 912.3,96.83 910.02,97.7 907.79,98.61 905.6,99.56 903.45,100.55 901.34,101.58 899.26,102.64 897.22,103.74 895.21,104.88 893.24,106.04 891.29,107.24 889.38,108.47 887.49,109.72 885.64,111.01 883.81,112.32 882,113.65 880.22,115.01 878.46,116.39 876.72,117.79 875.01,119.22 873.31,120.66 871.62,122.11 869.96,123.59 868.31,125.08 866.67,126.58 865.04,128.09 863.43,129.62 861.82,131.15 860.23,132.69 858.64,134.24 857.05,135.8 855.48,137.36 853.9,138.92 852.33,140.48 850.75,142.05 849.18,143.62 847.6,145.18 846.02,146.74 844.44,148.29 842.85,149.84 841.25,151.39 839.65,152.92 838.03,154.44 836.41,155.96 834.77,157.46 833.12,158.95 831.45,160.42 829.77,161.88 828.07,163.32 826.35,164.74 824.62,166.14 822.86,167.52 821.07,168.88 819.27,170.22 817.44,171.53 815.58,172.81 813.7,174.07 811.79,175.29 809.84,176.49 807.87,177.66 805.86,178.79 803.82,179.89 801.74,180.96 799.63,181.98 797.48,182.97 795.29,183.93 793.05,184.84 790.78,185.71 788.47,186.53 786.11,187.32 783.7,188.05 781.25,188.74 778.75,189.39 776.2,189.98 773.6,190.52 770.94,191.02 768.24,191.45 765.48,191.84 762.66,192.17 759.78,192.44 756.85,192.65 753.86,192.81 750.81,192.9 747.69,192.93 747.69,220.94 750.81,220.91 "
       style="fill:#ffd1d1;fill-opacity:0.55;stroke:none;stroke-width:1.07"
       id="polygon59" />
    <polygon
       points="753.86,48.73 756.85,48.87 759.78,49.06 762.66,49.31 765.48,49.61 768.24,49.95 770.94,50.35 773.6,50.8 776.2,51.29 778.75,51.83 781.25,52.41 783.7,53.04 786.11,53.71 788.47,54.42 790.78,55.17 793.05,55.96 795.29,56.79 797.48,57.65 799.63,58.55 801.74,59.48 803.82,60.45 805.86,61.45 807.87,62.47 809.84,63.53 811.79,64.62 813.7,65.73 815.58,66.87 817.44,68.04 819.27,69.23 821.07,70.44 822.86,71.67 824.62,72.92 826.35,74.2 828.07,75.49 829.77,76.79 831.45,78.12 833.12,79.45 834.77,80.8 836.41,82.17 838.03,83.54 839.65,84.92 841.25,86.32 842.85,87.71 844.44,89.12 846.02,90.53 847.6,91.95 849.18,93.37 850.75,94.79 852.33,96.21 853.9,97.63 855.48,99.04 857.05,100.46 858.64,101.87 860.23,103.28 861.82,104.68 863.43,106.07 865.04,107.45 866.67,108.83 868.31,110.19 869.96,111.54 871.62,112.88 873.31,114.2 875.01,115.51 876.72,116.8 878.46,118.07 880.22,119.32 882,120.55 883.81,121.77 885.64,122.95 887.49,124.12 889.38,125.26 891.29,126.37 893.24,127.46 895.21,128.52 897.22,129.55 899.26,130.54 901.34,131.51 903.45,132.44 905.6,133.34 907.79,134.21 910.02,135.03 912.3,135.82 914.61,136.57 916.97,137.28 919.38,137.95 921.83,138.58 924.33,139.16 926.88,139.7 929.48,140.19 932.13,140.64 934.84,141.04 937.6,141.39 940.42,141.68 943.29,141.93 946.22,142.12 949.22,142.26 952.27,142.35 955.38,142.38 955.38,130.08 952.27,130.05 949.22,129.97 946.22,129.83 943.29,129.63 940.42,129.39 937.6,129.09 934.84,128.74 932.13,128.34 929.48,127.9 926.88,127.4 924.33,126.87 921.83,126.28 919.38,125.66 916.97,124.99 914.61,124.28 912.3,123.53 910.02,122.74 907.79,121.91 905.6,121.05 903.45,120.15 901.34,119.21 899.26,118.25 897.22,117.25 895.21,116.22 893.24,115.16 891.29,114.08 889.38,112.96 887.49,111.82 885.64,110.66 883.81,109.47 882,108.26 880.22,107.02 878.46,105.77 876.72,104.5 875.01,103.21 873.31,101.9 871.62,100.58 869.96,99.24 868.31,97.89 866.67,96.53 865.04,95.16 863.43,93.77 861.82,92.38 860.23,90.98 858.64,89.57 857.05,88.16 855.48,86.75 853.9,85.33 852.33,83.91 850.75,82.49 849.18,81.07 847.6,79.65 846.02,78.24 844.44,76.82 842.85,75.42 841.25,74.02 839.65,72.63 838.03,71.24 836.41,69.87 834.77,68.51 833.12,67.16 831.45,65.82 829.77,64.5 828.07,63.19 826.35,61.9 824.62,60.63 822.86,59.37 821.07,58.14 819.27,56.93 817.44,55.74 815.58,54.58 813.7,53.44 811.79,52.32 809.84,51.24 807.87,50.18 805.86,49.15 803.82,48.15 801.74,47.18 799.63,46.25 797.48,45.35 795.29,44.49 793.05,43.66 790.78,42.87 788.47,42.12 786.11,41.41 783.7,40.74 781.25,40.12 778.75,39.53 776.2,38.99 773.6,38.5 770.94,38.06 768.24,37.66 765.48,37.31 762.66,37.01 759.78,36.76 756.85,36.57 753.86,36.43 750.81,36.35 747.69,36.32 747.69,48.61 750.81,48.64 "
       style="fill:#b6d9e8;fill-opacity:0.55;stroke:none;stroke-width:1.07"
       id="polygon61" />
    <polygon
       points="753.86,117.06 756.85,117.21 759.78,117.43 762.66,117.7 765.48,118.03 768.24,118.42 770.94,118.86 773.6,119.35 776.2,119.9 778.75,120.5 781.25,121.14 783.7,121.84 786.11,122.58 788.47,123.37 790.78,124.2 793.05,125.08 795.29,125.99 797.48,126.95 799.63,127.95 801.74,128.98 803.82,130.06 805.86,131.16 807.87,132.3 809.84,133.48 811.79,134.68 813.7,135.92 815.58,137.18 817.44,138.48 819.27,139.79 821.07,141.14 822.86,142.51 824.62,143.9 826.35,145.31 828.07,146.74 829.77,148.19 831.45,149.65 833.12,151.14 834.77,152.64 836.41,154.15 838.03,155.67 839.65,157.21 841.25,158.75 842.85,160.3 844.44,161.86 846.02,163.43 847.6,165 849.18,166.57 850.75,168.15 852.33,169.72 853.9,171.3 855.48,172.87 857.05,174.44 858.64,176.01 860.23,177.57 861.82,179.12 863.43,180.66 865.04,182.2 866.67,183.72 868.31,185.23 869.96,186.73 871.62,188.22 873.31,189.68 875.01,191.13 876.72,192.56 878.46,193.97 880.22,195.36 882,196.73 883.81,198.08 885.64,199.39 887.49,200.69 889.38,201.95 891.29,203.19 893.24,204.39 895.21,205.57 897.22,206.71 899.26,207.81 901.34,208.89 903.45,209.92 905.6,210.92 907.79,211.88 910.02,212.79 912.3,213.67 914.61,214.5 916.97,215.29 919.38,216.03 921.83,216.73 924.33,217.37 926.88,217.97 929.48,218.52 932.13,219.01 934.84,219.45 937.6,219.84 940.42,220.17 943.29,220.44 946.22,220.66 949.22,220.81 952.27,220.91 955.38,220.94 955.38,169.7 952.27,169.67 949.22,169.58 946.22,169.42 943.29,169.21 940.42,168.93 937.6,168.6 934.84,168.22 932.13,167.78 929.48,167.28 926.88,166.73 924.33,166.14 921.83,165.49 919.38,164.79 916.97,164.05 914.61,163.26 912.3,162.43 910.02,161.56 907.79,160.64 905.6,159.68 903.45,158.68 901.34,157.65 899.26,156.58 897.22,155.47 895.21,154.33 893.24,153.16 891.29,151.95 889.38,150.71 887.49,149.45 885.64,148.16 883.81,146.84 882,145.5 880.22,144.13 878.46,142.74 876.72,141.33 875.01,139.9 873.31,138.45 871.62,136.98 869.96,135.5 868.31,134 866.67,132.49 865.04,130.96 863.43,129.43 861.82,127.88 860.23,126.33 858.64,124.77 857.05,123.21 855.48,121.64 853.9,120.06 852.33,118.49 850.75,116.91 849.18,115.34 847.6,113.76 846.02,112.19 844.44,110.63 842.85,109.07 841.25,107.51 839.65,105.97 838.03,104.44 836.41,102.91 834.77,101.4 833.12,99.9 831.45,98.42 829.77,96.95 828.07,95.5 826.35,94.07 824.62,92.66 822.86,91.27 821.07,89.9 819.27,88.56 817.44,87.24 815.58,85.95 813.7,84.68 811.79,83.45 809.84,82.24 807.87,81.07 805.86,79.93 803.82,78.82 801.74,77.75 799.63,76.71 797.48,75.72 795.29,74.76 793.05,73.84 790.78,72.97 788.47,72.13 786.11,71.35 783.7,70.6 781.25,69.91 778.75,69.26 776.2,68.66 773.6,68.12 770.94,67.62 768.24,67.18 765.48,66.79 762.66,66.46 759.78,66.19 756.85,65.97 753.86,65.82 750.81,65.73 747.69,65.69 747.69,116.93 750.81,116.96 "
       style="fill:#ffd1d1;fill-opacity:0.55;stroke:none;stroke-width:1.07"
       id="polygon63" />
    <polygon
       points="753.86,192.9 756.85,192.87 759.78,192.82 762.66,192.76 765.48,192.69 768.24,192.6 770.94,192.5 773.6,192.39 776.2,192.27 778.75,192.13 781.25,191.99 783.7,191.83 786.11,191.67 788.47,191.49 790.78,191.31 793.05,191.11 795.29,190.91 797.48,190.69 799.63,190.47 801.74,190.24 803.82,190 805.86,189.75 807.87,189.5 809.84,189.24 811.79,188.97 813.7,188.69 815.58,188.41 817.44,188.12 819.27,187.82 821.07,187.52 822.86,187.22 824.62,186.91 826.35,186.59 828.07,186.27 829.77,185.95 831.45,185.62 833.12,185.29 834.77,184.96 836.41,184.62 838.03,184.28 839.65,183.94 841.25,183.59 842.85,183.24 844.44,182.9 846.02,182.55 847.6,182.2 849.18,181.84 850.75,181.49 852.33,181.14 853.9,180.79 855.48,180.44 857.05,180.09 858.64,179.74 860.23,179.39 861.82,179.04 863.43,178.7 865.04,178.36 866.67,178.01 868.31,177.68 869.96,177.34 871.62,177.01 873.31,176.68 875.01,176.36 876.72,176.04 878.46,175.73 880.22,175.42 882,175.11 883.81,174.81 885.64,174.52 887.49,174.23 889.38,173.94 891.29,173.67 893.24,173.4 895.21,173.14 897.22,172.88 899.26,172.63 901.34,172.4 903.45,172.16 905.6,171.94 907.79,171.73 910.02,171.52 912.3,171.33 914.61,171.14 916.97,170.97 919.38,170.8 921.83,170.64 924.33,170.5 926.88,170.37 929.48,170.24 932.13,170.13 934.84,170.04 937.6,169.95 940.42,169.88 943.29,169.81 946.22,169.77 949.22,169.73 952.27,169.71 955.38,169.7 955.38,142.38 952.27,142.38 949.22,142.41 946.22,142.44 943.29,142.49 940.42,142.55 937.6,142.62 934.84,142.71 932.13,142.81 929.48,142.92 926.88,143.04 924.33,143.17 921.83,143.32 919.38,143.47 916.97,143.64 914.61,143.82 912.3,144 910.02,144.2 907.79,144.4 905.6,144.62 903.45,144.84 901.34,145.07 899.26,145.31 897.22,145.56 895.21,145.81 893.24,146.07 891.29,146.34 889.38,146.62 887.49,146.9 885.64,147.19 883.81,147.48 882,147.78 880.22,148.09 878.46,148.4 876.72,148.71 875.01,149.03 873.31,149.36 871.62,149.69 869.96,150.02 868.31,150.35 866.67,150.69 865.04,151.03 863.43,151.37 861.82,151.72 860.23,152.06 858.64,152.41 857.05,152.76 855.48,153.11 853.9,153.46 852.33,153.82 850.75,154.17 849.18,154.52 847.6,154.87 846.02,155.22 844.44,155.57 842.85,155.92 841.25,156.27 839.65,156.61 838.03,156.95 836.41,157.29 834.77,157.63 833.12,157.97 831.45,158.3 829.77,158.62 828.07,158.95 826.35,159.27 824.62,159.58 822.86,159.89 821.07,160.2 819.27,160.5 817.44,160.79 815.58,161.08 813.7,161.36 811.79,161.64 809.84,161.91 807.87,162.17 805.86,162.43 803.82,162.67 801.74,162.91 799.63,163.14 797.48,163.37 795.29,163.58 793.05,163.79 790.78,163.98 788.47,164.17 786.11,164.34 783.7,164.51 781.25,164.66 778.75,164.81 776.2,164.94 773.6,165.06 770.94,165.17 768.24,165.27 765.48,165.36 762.66,165.43 759.78,165.49 756.85,165.54 753.86,165.58 750.81,165.6 747.69,165.6 747.69,192.93 750.81,192.92 "
       style="fill:#b6d9e8;fill-opacity:0.55;stroke:none;stroke-width:1.07"
       id="polygon65" />
    <polygon
       points="753.86,274.91 756.85,274.91 759.78,274.91 762.66,274.91 765.48,274.91 768.24,274.91 770.94,274.91 773.6,274.91 776.2,274.91 778.75,274.91 781.25,274.91 783.7,274.91 786.11,274.91 788.47,274.91 790.78,274.91 793.05,274.91 795.29,274.91 797.48,274.91 799.63,274.91 801.74,274.91 803.82,274.91 805.86,274.91 807.87,274.91 809.84,274.91 811.79,274.91 813.7,274.91 815.58,274.91 817.44,274.91 819.27,274.91 821.07,274.91 822.86,274.91 824.62,274.91 826.35,274.91 828.07,274.91 829.77,274.91 831.45,274.91 833.12,274.91 834.77,274.91 836.41,274.91 838.03,274.91 839.65,274.91 841.25,274.91 842.85,274.91 844.44,274.91 846.02,274.91 847.6,274.91 849.18,274.91 850.75,274.91 852.33,274.91 853.9,274.91 855.48,274.91 857.05,274.91 858.64,274.91 860.23,274.91 861.82,274.91 863.43,274.91 865.04,274.91 866.67,274.91 868.31,274.91 869.96,274.91 871.62,274.91 873.31,274.91 875.01,274.91 876.72,274.91 878.46,274.91 880.22,274.91 882,274.91 883.81,274.91 885.64,274.91 887.49,274.91 889.38,274.91 891.29,274.91 893.24,274.91 895.21,274.91 897.22,274.91 899.26,274.91 901.34,274.91 903.45,274.91 905.6,274.91 907.79,274.91 910.02,274.91 912.3,274.91 914.61,274.91 916.97,274.91 919.38,274.91 921.83,274.91 924.33,274.91 926.88,274.91 929.48,274.91 932.13,274.91 934.84,274.91 937.6,274.91 940.42,274.91 943.29,274.91 946.22,274.91 949.22,274.91 952.27,274.91 955.38,274.91 955.38,220.94 952.27,220.94 949.22,220.94 946.22,220.94 943.29,220.94 940.42,220.94 937.6,220.94 934.84,220.94 932.13,220.94 929.48,220.94 926.88,220.94 924.33,220.94 921.83,220.94 919.38,220.94 916.97,220.94 914.61,220.94 912.3,220.94 910.02,220.94 907.79,220.94 905.6,220.94 903.45,220.94 901.34,220.94 899.26,220.94 897.22,220.94 895.21,220.94 893.24,220.94 891.29,220.94 889.38,220.94 887.49,220.94 885.64,220.94 883.81,220.94 882,220.94 880.22,220.94 878.46,220.94 876.72,220.94 875.01,220.94 873.31,220.94 871.62,220.94 869.96,220.94 868.31,220.94 866.67,220.94 865.04,220.94 863.43,220.94 861.82,220.94 860.23,220.94 858.64,220.94 857.05,220.94 855.48,220.94 853.9,220.94 852.33,220.94 850.75,220.94 849.18,220.94 847.6,220.94 846.02,220.94 844.44,220.94 842.85,220.94 841.25,220.94 839.65,220.94 838.03,220.94 836.41,220.94 834.77,220.94 833.12,220.94 831.45,220.94 829.77,220.94 828.07,220.94 826.35,220.94 824.62,220.94 822.86,220.94 821.07,220.94 819.27,220.94 817.44,220.94 815.58,220.94 813.7,220.94 811.79,220.94 809.84,220.94 807.87,220.94 805.86,220.94 803.82,220.94 801.74,220.94 799.63,220.94 797.48,220.94 795.29,220.94 793.05,220.94 790.78,220.94 788.47,220.94 786.11,220.94 783.7,220.94 781.25,220.94 778.75,220.94 776.2,220.94 773.6,220.94 770.94,220.94 768.24,220.94 765.48,220.94 762.66,220.94 759.78,220.94 756.85,220.94 753.86,220.94 750.81,220.94 747.69,220.94 747.69,274.91 750.81,274.91 "
       style="fill:#ffd1d1;fill-opacity:0.55;stroke:none;stroke-width:1.07"
       id="polygon67" />
    <polygon
       points="129.81,25.56 119.42,25.56 119.42,274.91 129.81,274.91 "
       style="fill:#bbbbbb;stroke-width:1.07"
       id="polygon69" />
    <polygon
       points="337.5,124.62 327.12,124.62 327.12,274.91 337.5,274.91 "
       style="fill:#bbbbbb;stroke-width:1.07"
       id="polygon71" />
    <polygon
       points="337.5,13.09 327.12,13.09 327.12,112.15 337.5,112.15 "
       style="fill:#bbbbbb;stroke-width:1.07"
       id="polygon73" />
    <polygon
       points="545.19,229.82 534.81,229.82 534.81,274.91 545.19,274.91 "
       style="fill:#bbbbbb;stroke-width:1.07"
       id="polygon75" />
    <polygon
       points="545.19,13.09 534.81,13.09 534.81,217.35 545.19,217.35 "
       style="fill:#bbbbbb;stroke-width:1.07"
       id="polygon77" />
    <polygon
       points="752.88,129.4 742.5,129.4 742.5,274.91 752.88,274.91 "
       style="fill:#bbbbbb;stroke-width:1.07"
       id="polygon79" />
    <polygon
       points="752.88,13.09 742.5,13.09 742.5,116.93 752.88,116.93 "
       style="fill:#bbbbbb;stroke-width:1.07"
       id="polygon81" />
    <polygon
       points="960.58,130.08 950.19,130.08 950.19,274.91 960.58,274.91 "
       style="fill:#bbbbbb;stroke-width:1.07"
       id="polygon83" />
    <polygon
       points="960.58,13.09 950.19,13.09 950.19,117.61 960.58,117.61 "
       style="fill:#bbbbbb;stroke-width:1.07"
       id="polygon85" />
    <text
       x="141.23"
       y="179.27"
       style="font-size:79.67px;font-family:Arial"
       textLength="715.08002"
       lengthAdjust="spacingAndGlyphs"
       id="text87"
       transform="matrix(0.2205,0,0,0.2205,101.98991,117.817)">Microcin Hits: 365</text>
    <text
       x="348.92001"
       y="228.8"
       style="font-size:79.67px;font-family:Arial"
       textLength="862.23999"
       lengthAdjust="spacingAndGlyphs"
       id="text89"
       transform="matrix(0.2205,0,0,0.2205,264.55626,156.12239)">Verified Microcin: 220</text>
    <text
       x="348.92001"
       y="91.650002"
       style="font-size:79.67px;font-family:Arial"
       textLength="786.90997"
       lengthAdjust="spacingAndGlyphs"
       id="text91"
       transform="matrix(0.2205,0,0,0.2205,263.44331,49.502041)">Novel Microcin: 145</text>
    <text
       x="556.62"
       y="281.39999"
       style="font-size:79.67px;font-family:Arial"
       textLength="656.72998"
       lengthAdjust="spacingAndGlyphs"
       id="text93"
       transform="matrix(0.2205,0,0,0.2205,426.10054,197.12408)">PCAT Absent: 66</text>
    <text
       x="556.62"
       y="144.25999"
       style="font-size:79.67px;font-family:Arial"
       textLength="770.39001"
       lengthAdjust="spacingAndGlyphs"
       id="text95"
       transform="matrix(0.2205,0,0,0.2205,428.34178,90.223456)">Contains PCAT: 299</text>
    <text
       x="764.31"
       y="231.19"
       style="font-size:79.67px;font-family:Arial"
       textLength="669.35999"
       lengthAdjust="spacingAndGlyphs"
       id="text97"
       transform="matrix(0.2205,0,0,0.2205,588.96241,158.28864)">MFP Absent: 213</text>
    <text
       x="764.31"
       y="94.040001"
       style="font-size:79.67px;font-family:Arial"
       textLength="741.09998"
       lengthAdjust="spacingAndGlyphs"
       id="text99"
       transform="matrix(0.2205,0,0,0.2205,590.52453,51.07697)">Contains MFP: 152</text>
  </g>
  <text
     x="972"
     y="231.53"
     style="font-size:79.67px;font-family:Arial"
     textLength="578.32001"
     lengthAdjust="spacingAndGlyphs"
     id="text101"
     transform="matrix(0.2205,0,0,0.2205,630.80224,145.96833)">IP Absent: 212</text>
  <text
     x="972"
     y="94.389999"
     style="font-size:79.67px;font-family:Arial"
     textLength="650.04999"
     lengthAdjust="spacingAndGlyphs"
     id="text103"
     transform="matrix(0.2205,0,0,0.2205,632.79659,38.809956)">Contains IP: 153</text>
</svg>
