<?xml version="1.0" encoding="UTF-8" standalone="no"?>
<svg
   class="svglite"
   width="992.99982pt"
   height="262.45062pt"
   viewBox="0 0 992.99988 262.45062"
   version="1.1"
   id="svg111"
   sodipodi:docname="04_Sankey_AF_rerun_final.svg"
   inkscape:version="1.2.1 (ef4d3fba62, 2022-07-19, custom)"
   inkscape:export-filename="../2abe7b35/04_Sankey_AF_rerun_final.png"
   inkscape:export-xdpi="300"
   inkscape:export-ydpi="300"
   xmlns:inkscape="http://www.inkscape.org/namespaces/inkscape"
   xmlns:sodipodi="http://sodipodi.sourceforge.net/DTD/sodipodi-0.dtd"
   xmlns="http://www.w3.org/2000/svg"
   xmlns:svg="http://www.w3.org/2000/svg">
  <sodipodi:namedview
     id="namedview113"
     pagecolor="#505050"
     bordercolor="#ffffff"
     borderopacity="1"
     inkscape:showpageshadow="0"
     inkscape:pageopacity="0"
     inkscape:pagecheckerboard="1"
     inkscape:deskcolor="#505050"
     inkscape:document-units="pt"
     showgrid="false"
     inkscape:zoom="0.65063645"
     inkscape:cx="553.30439"
     inkscape:cy="56.098917"
     inkscape:window-width="1920"
     inkscape:window-height="1016"
     inkscape:window-x="1920"
     inkscape:window-y="27"
     inkscape:window-maximized="1"
     inkscape:current-layer="svg111" />
  <defs
     id="defs20">
    <style
       type="text/css"
       id="style18"><![CDATA[
    .svglite line, .svglite polyline, .svglite polygon, .svglite path, .svglite rect, .svglite circle {
      fill: none;
      stroke: #000000;
      stroke-linecap: round;
      stroke-linejoin: round;
      stroke-miterlimit: 10.00;
    }
    .svglite text {
      white-space: pre;
    }
  ]]></style>
  </defs>
  <rect
     width="100%"
     height="100%"
     style="fill:none;stroke:none"
     id="rect22"
     x="-118.15005"
     y="-12.959163" />
  <defs
     id="defs27">
    <clipPath
       id="cpMC4wMHwxMDgwLjAwfDAuMDB8Mjg4LjAw">
      <rect
         x="0"
         y="0"
         width="1080"
         height="288"
         id="rect24" />
    </clipPath>
  </defs>
  <g
     clip-path="url(#cpMC4wMHwxMDgwLjAwfDAuMDB8Mjg4LjAw)"
     id="g109"
     transform="translate(-118.15006,-12.959164)">
    <polygon
       points="158.17,83.97 160.62,83.88 163.03,83.79 165.39,83.7 167.7,83.6 169.98,83.49 172.21,83.38 174.4,83.27 176.55,83.15 178.66,83.03 180.74,82.9 182.78,82.76 184.79,82.63 186.76,82.49 188.71,82.34 190.62,82.19 192.51,82.04 194.36,81.89 196.19,81.73 198,81.57 199.78,81.41 201.54,81.24 203.28,81.07 204.99,80.9 206.69,80.72 208.38,80.55 210.04,80.37 211.69,80.19 213.33,80.01 214.96,79.83 216.57,79.64 218.18,79.46 219.77,79.27 221.36,79.08 222.95,78.9 224.52,78.71 226.1,78.52 227.67,78.33 229.25,78.14 230.82,77.95 232.4,77.77 233.98,77.58 235.56,77.39 237.15,77.2 238.75,77.02 240.35,76.83 241.97,76.65 243.59,76.46 245.23,76.28 246.88,76.1 248.55,75.93 250.23,75.75 251.93,75.58 253.65,75.4 255.38,75.24 257.14,75.07 258.93,74.91 260.73,74.74 262.56,74.59 264.42,74.43 266.3,74.28 268.21,74.13 270.16,73.99 272.13,73.85 274.14,73.71 276.18,73.58 278.26,73.45 280.37,73.32 282.52,73.2 284.71,73.09 286.95,72.98 289.22,72.88 291.53,72.78 293.89,72.68 296.3,72.59 298.75,72.51 301.25,72.43 303.8,72.36 306.4,72.29 309.06,72.23 311.76,72.18 314.52,72.14 317.34,72.1 320.22,72.06 323.15,72.04 326.14,72.02 329.19,72.01 332.31,72 332.31,13.09 329.19,13.09 326.14,13.11 323.15,13.12 320.22,13.15 317.34,13.18 314.52,13.22 311.76,13.27 309.06,13.32 306.4,13.38 303.8,13.45 301.25,13.52 298.75,13.6 296.3,13.68 293.89,13.77 291.53,13.86 289.22,13.96 286.95,14.07 284.71,14.18 282.52,14.29 280.37,14.41 278.26,14.54 276.18,14.66 274.14,14.8 272.13,14.93 270.16,15.07 268.21,15.22 266.3,15.37 264.42,15.52 262.56,15.67 260.73,15.83 258.93,15.99 257.14,16.16 255.38,16.32 253.65,16.49 251.93,16.66 250.23,16.84 248.55,17.01 246.88,17.19 245.23,17.37 243.59,17.55 241.97,17.73 240.35,17.92 238.75,18.1 237.15,18.29 235.56,18.48 233.98,18.66 232.4,18.85 230.82,19.04 229.25,19.23 227.67,19.42 226.1,19.61 224.52,19.8 222.95,19.98 221.36,20.17 219.77,20.36 218.18,20.55 216.57,20.73 214.96,20.91 213.33,21.1 211.69,21.28 210.04,21.46 208.38,21.64 206.69,21.81 204.99,21.99 203.28,22.16 201.54,22.33 199.78,22.49 198,22.66 196.19,22.82 194.36,22.98 192.51,23.13 190.62,23.28 188.71,23.43 186.76,23.57 184.79,23.72 182.78,23.85 180.74,23.99 178.66,24.11 176.55,24.24 174.4,24.36 172.21,24.47 169.98,24.58 167.7,24.69 165.39,24.79 163.03,24.88 160.62,24.97 158.17,25.05 155.67,25.13 153.12,25.2 150.52,25.27 147.87,25.33 145.16,25.38 142.4,25.43 139.58,25.47 136.71,25.5 133.78,25.52 130.78,25.54 127.73,25.55 124.62,25.56 124.62,84.47 127.73,84.47 130.78,84.46 133.78,84.44 136.71,84.41 139.58,84.38 142.4,84.34 145.16,84.29 147.87,84.24 150.52,84.18 153.12,84.12 155.67,84.04 "
       style="fill:#b6d9e8;fill-opacity:0.55;stroke:none;stroke-width:1.07"
       id="polygon29" />
    <polygon
       points="158.17,274.91 160.62,274.91 163.03,274.91 165.39,274.91 167.7,274.91 169.98,274.91 172.21,274.91 174.4,274.91 176.55,274.91 178.66,274.91 180.74,274.91 182.78,274.91 184.79,274.91 186.76,274.91 188.71,274.91 190.62,274.91 192.51,274.91 194.36,274.91 196.19,274.91 198,274.91 199.78,274.91 201.54,274.91 203.28,274.91 204.99,274.91 206.69,274.91 208.38,274.91 210.04,274.91 211.69,274.91 213.33,274.91 214.96,274.91 216.57,274.91 218.18,274.91 219.77,274.91 221.36,274.91 222.95,274.91 224.52,274.91 226.1,274.91 227.67,274.91 229.25,274.91 230.82,274.91 232.4,274.91 233.98,274.91 235.56,274.91 237.15,274.91 238.75,274.91 240.35,274.91 241.97,274.91 243.59,274.91 245.23,274.91 246.88,274.91 248.55,274.91 250.23,274.91 251.93,274.91 253.65,274.91 255.38,274.91 257.14,274.91 258.93,274.91 260.73,274.91 262.56,274.91 264.42,274.91 266.3,274.91 268.21,274.91 270.16,274.91 272.13,274.91 274.14,274.91 276.18,274.91 278.26,274.91 280.37,274.91 282.52,274.91 284.71,274.91 286.95,274.91 289.22,274.91 291.53,274.91 293.89,274.91 296.3,274.91 298.75,274.91 301.25,274.91 303.8,274.91 306.4,274.91 309.06,274.91 311.76,274.91 314.52,274.91 317.34,274.91 320.22,274.91 323.15,274.91 326.14,274.91 329.19,274.91 332.31,274.91 332.31,84.47 329.19,84.47 326.14,84.47 323.15,84.47 320.22,84.47 317.34,84.47 314.52,84.47 311.76,84.47 309.06,84.47 306.4,84.47 303.8,84.47 301.25,84.47 298.75,84.47 296.3,84.47 293.89,84.47 291.53,84.47 289.22,84.47 286.95,84.47 284.71,84.47 282.52,84.47 280.37,84.47 278.26,84.47 276.18,84.47 274.14,84.47 272.13,84.47 270.16,84.47 268.21,84.47 266.3,84.47 264.42,84.47 262.56,84.47 260.73,84.47 258.93,84.47 257.14,84.47 255.38,84.47 253.65,84.47 251.93,84.47 250.23,84.47 248.55,84.47 246.88,84.47 245.23,84.47 243.59,84.47 241.97,84.47 240.35,84.47 238.75,84.47 237.15,84.47 235.56,84.47 233.98,84.47 232.4,84.47 230.82,84.47 229.25,84.47 227.67,84.47 226.1,84.47 224.52,84.47 222.95,84.47 221.36,84.47 219.77,84.47 218.18,84.47 216.57,84.47 214.96,84.47 213.33,84.47 211.69,84.47 210.04,84.47 208.38,84.47 206.69,84.47 204.99,84.47 203.28,84.47 201.54,84.47 199.78,84.47 198,84.47 196.19,84.47 194.36,84.47 192.51,84.47 190.62,84.47 188.71,84.47 186.76,84.47 184.79,84.47 182.78,84.47 180.74,84.47 178.66,84.47 176.55,84.47 174.4,84.47 172.21,84.47 169.98,84.47 167.7,84.47 165.39,84.47 163.03,84.47 160.62,84.47 158.17,84.47 155.67,84.47 153.12,84.47 150.52,84.47 147.87,84.47 145.16,84.47 142.4,84.47 139.58,84.47 136.71,84.47 133.78,84.47 130.78,84.47 127.73,84.47 124.62,84.47 124.62,274.91 127.73,274.91 130.78,274.91 133.78,274.91 136.71,274.91 139.58,274.91 142.4,274.91 145.16,274.91 147.87,274.91 150.52,274.91 153.12,274.91 155.67,274.91 "
       style="fill:#ffd1d1;fill-opacity:0.55;stroke:none;stroke-width:1.07"
       id="polygon31" />
    <polygon
       points="365.86,56.93 368.32,56.93 370.72,56.93 373.08,56.93 375.4,56.93 377.67,56.93 379.9,56.93 382.09,56.93 384.24,56.93 386.36,56.93 388.43,56.93 390.47,56.93 392.48,56.93 394.46,56.93 396.4,56.93 398.31,56.93 400.2,56.93 402.05,56.93 403.88,56.93 405.69,56.93 407.47,56.93 409.23,56.93 410.97,56.93 412.69,56.93 414.39,56.93 416.07,56.93 417.73,56.93 419.39,56.93 421.02,56.93 422.65,56.93 424.26,56.93 425.87,56.93 427.46,56.93 429.05,56.93 430.64,56.93 432.22,56.93 433.79,56.93 435.37,56.93 436.94,56.93 438.51,56.93 440.09,56.93 441.67,56.93 443.25,56.93 444.84,56.93 446.44,56.93 448.04,56.93 449.66,56.93 451.28,56.93 452.92,56.93 454.57,56.93 456.24,56.93 457.92,56.93 459.62,56.93 461.34,56.93 463.08,56.93 464.84,56.93 466.62,56.93 468.42,56.93 470.25,56.93 472.11,56.93 473.99,56.93 475.91,56.93 477.85,56.93 479.83,56.93 481.83,56.93 483.87,56.93 485.95,56.93 488.07,56.93 490.22,56.93 492.41,56.93 494.64,56.93 496.91,56.93 499.23,56.93 501.59,56.93 503.99,56.93 506.45,56.93 508.95,56.93 511.5,56.93 514.1,56.93 516.75,56.93 519.46,56.93 522.22,56.93 525.03,56.93 527.91,56.93 530.84,56.93 533.83,56.93 536.88,56.93 540,56.93 540,13.09 536.88,13.09 533.83,13.09 530.84,13.09 527.91,13.09 525.03,13.09 522.22,13.09 519.46,13.09 516.75,13.09 514.1,13.09 511.5,13.09 508.95,13.09 506.45,13.09 503.99,13.09 501.59,13.09 499.23,13.09 496.91,13.09 494.64,13.09 492.41,13.09 490.22,13.09 488.07,13.09 485.95,13.09 483.87,13.09 481.83,13.09 479.83,13.09 477.85,13.09 475.91,13.09 473.99,13.09 472.11,13.09 470.25,13.09 468.42,13.09 466.62,13.09 464.84,13.09 463.08,13.09 461.34,13.09 459.62,13.09 457.92,13.09 456.24,13.09 454.57,13.09 452.92,13.09 451.28,13.09 449.66,13.09 448.04,13.09 446.44,13.09 444.84,13.09 443.25,13.09 441.67,13.09 440.09,13.09 438.51,13.09 436.94,13.09 435.37,13.09 433.79,13.09 432.22,13.09 430.64,13.09 429.05,13.09 427.46,13.09 425.87,13.09 424.26,13.09 422.65,13.09 421.02,13.09 419.39,13.09 417.73,13.09 416.07,13.09 414.39,13.09 412.69,13.09 410.97,13.09 409.23,13.09 407.47,13.09 405.69,13.09 403.88,13.09 402.05,13.09 400.2,13.09 398.31,13.09 396.4,13.09 394.46,13.09 392.48,13.09 390.47,13.09 388.43,13.09 386.36,13.09 384.24,13.09 382.09,13.09 379.9,13.09 377.67,13.09 375.4,13.09 373.08,13.09 370.72,13.09 368.32,13.09 365.86,13.09 363.36,13.09 360.81,13.09 358.21,13.09 355.56,13.09 352.85,13.09 350.09,13.09 347.27,13.09 344.4,13.09 341.47,13.09 338.48,13.09 335.42,13.09 332.31,13.09 332.31,56.93 335.42,56.93 338.48,56.93 341.47,56.93 344.4,56.93 347.27,56.93 350.09,56.93 352.85,56.93 355.56,56.93 358.21,56.93 360.81,56.93 363.36,56.93 "
       style="fill:#b6d9e8;fill-opacity:0.55;stroke:none;stroke-width:1.07"
       id="polygon33" />
    <polygon
       points="365.86,244.34 368.32,244.15 370.72,243.96 373.08,243.75 375.4,243.53 377.67,243.3 379.9,243.05 382.09,242.8 384.24,242.54 386.36,242.26 388.43,241.98 390.47,241.68 392.48,241.38 394.46,241.07 396.4,240.75 398.31,240.43 400.2,240.09 402.05,239.75 403.88,239.4 405.69,239.04 407.47,238.68 409.23,238.31 410.97,237.94 412.69,237.56 414.39,237.18 416.07,236.79 417.73,236.4 419.39,236 421.02,235.6 422.65,235.2 424.26,234.79 425.87,234.38 427.46,233.97 429.05,233.56 430.64,233.14 432.22,232.73 433.79,232.31 435.37,231.89 436.94,231.48 438.51,231.06 440.09,230.64 441.67,230.23 443.25,229.81 444.84,229.4 446.44,228.99 448.04,228.58 449.66,228.17 451.28,227.77 452.92,227.37 454.57,226.97 456.24,226.58 457.92,226.19 459.62,225.81 461.34,225.43 463.08,225.05 464.84,224.69 466.62,224.32 468.42,223.97 470.25,223.62 472.11,223.28 473.99,222.94 475.91,222.62 477.85,222.3 479.83,221.99 481.83,221.68 483.87,221.39 485.95,221.11 488.07,220.83 490.22,220.57 492.41,220.31 494.64,220.07 496.91,219.84 499.23,219.62 501.59,219.41 503.99,219.21 506.45,219.03 508.95,218.86 511.5,218.7 514.1,218.56 516.75,218.43 519.46,218.31 522.22,218.21 525.03,218.12 527.91,218.05 530.84,217.99 533.83,217.95 536.88,217.92 540,217.91 540,56.93 536.88,56.94 533.83,56.97 530.84,57.01 527.91,57.06 525.03,57.14 522.22,57.22 519.46,57.33 516.75,57.44 514.1,57.57 511.5,57.72 508.95,57.88 506.45,58.05 503.99,58.23 501.59,58.43 499.23,58.64 496.91,58.86 494.64,59.09 492.41,59.33 490.22,59.59 488.07,59.85 485.95,60.12 483.87,60.41 481.83,60.7 479.83,61 477.85,61.31 475.91,61.63 473.99,61.96 472.11,62.3 470.25,62.64 468.42,62.99 466.62,63.34 464.84,63.7 463.08,64.07 461.34,64.45 459.62,64.82 457.92,65.21 456.24,65.6 454.57,65.99 452.92,66.39 451.28,66.79 449.66,67.19 448.04,67.6 446.44,68.01 444.84,68.42 443.25,68.83 441.67,69.24 440.09,69.66 438.51,70.08 436.94,70.49 435.37,70.91 433.79,71.33 432.22,71.74 430.64,72.16 429.05,72.57 427.46,72.99 425.87,73.4 424.26,73.81 422.65,74.21 421.02,74.62 419.39,75.02 417.73,75.41 416.07,75.81 414.39,76.2 412.69,76.58 410.97,76.96 409.23,77.33 407.47,77.7 405.69,78.06 403.88,78.42 402.05,78.77 400.2,79.11 398.31,79.44 396.4,79.77 394.46,80.09 392.48,80.4 390.47,80.7 388.43,81 386.36,81.28 384.24,81.55 382.09,81.82 379.9,82.07 377.67,82.31 375.4,82.55 373.08,82.77 370.72,82.97 368.32,83.17 365.86,83.36 363.36,83.53 360.81,83.68 358.21,83.83 355.56,83.96 352.85,84.08 350.09,84.18 347.27,84.27 344.4,84.34 341.47,84.4 338.48,84.44 335.42,84.46 332.31,84.47 332.31,245.45 335.42,245.44 338.48,245.42 341.47,245.38 344.4,245.32 347.27,245.25 350.09,245.16 352.85,245.06 355.56,244.94 358.21,244.81 360.81,244.67 363.36,244.51 "
       style="fill:#ffd1d1;fill-opacity:0.55;stroke:none;stroke-width:1.07"
       id="polygon35" />
    <polygon
       points="365.86,79.03 368.32,80.19 370.72,81.43 373.08,82.74 375.4,84.13 377.67,85.59 379.9,87.12 382.09,88.72 384.24,90.38 386.36,92.11 388.43,93.89 390.47,95.74 392.48,97.64 394.46,99.6 396.4,101.61 398.31,103.67 400.2,105.78 402.05,107.93 403.88,110.13 405.69,112.37 407.47,114.65 409.23,116.97 410.97,119.33 412.69,121.71 414.39,124.13 416.07,126.58 417.73,129.05 419.39,131.55 421.02,134.07 422.65,136.61 424.26,139.17 425.87,141.74 427.46,144.33 429.05,146.93 430.64,149.55 432.22,152.16 433.79,154.79 435.37,157.41 436.94,160.04 438.51,162.67 440.09,165.29 441.67,167.91 443.25,170.52 444.84,173.12 446.44,175.71 448.04,178.29 449.66,180.85 451.28,183.39 452.92,185.91 454.57,188.41 456.24,190.88 457.92,193.33 459.62,195.74 461.34,198.13 463.08,200.48 464.84,202.8 466.62,205.08 468.42,207.32 470.25,209.52 472.11,211.68 473.99,213.79 475.91,215.85 477.85,217.86 479.83,219.81 481.83,221.72 483.87,223.56 485.95,225.35 488.07,227.08 490.22,228.74 492.41,230.34 494.64,231.87 496.91,233.33 499.23,234.71 501.59,236.03 503.99,237.27 506.45,238.43 508.95,239.5 511.5,240.5 514.1,241.41 516.75,242.24 519.46,242.97 522.22,243.62 525.03,244.17 527.91,244.63 530.84,244.98 533.83,245.24 536.88,245.4 540,245.45 540,230.38 536.88,230.33 533.83,230.17 530.84,229.91 527.91,229.56 525.03,229.1 522.22,228.55 519.46,227.9 516.75,227.17 514.1,226.34 511.5,225.43 508.95,224.43 506.45,223.35 503.99,222.2 501.59,220.96 499.23,219.64 496.91,218.26 494.64,216.8 492.41,215.27 490.22,213.67 488.07,212.01 485.95,210.28 483.87,208.49 481.83,206.65 479.83,204.74 477.85,202.79 475.91,200.78 473.99,198.72 472.11,196.61 470.25,194.45 468.42,192.25 466.62,190.01 464.84,187.73 463.08,185.41 461.34,183.06 459.62,180.67 457.92,178.26 456.24,175.81 454.57,173.34 452.92,170.84 451.28,168.32 449.66,165.78 448.04,163.22 446.44,160.64 444.84,158.05 443.25,155.45 441.67,152.84 440.09,150.22 438.51,147.6 436.94,144.97 435.37,142.34 433.79,139.72 432.22,137.09 430.64,134.47 429.05,131.86 427.46,129.26 425.87,126.67 424.26,124.1 422.65,121.54 421.02,119 419.39,116.48 417.73,113.98 416.07,111.51 414.39,109.06 412.69,106.64 410.97,104.25 409.23,101.9 407.47,99.58 405.69,97.3 403.88,95.06 402.05,92.86 400.2,90.71 398.31,88.6 396.4,86.54 394.46,84.53 392.48,82.57 390.47,80.67 388.43,78.82 386.36,77.04 384.24,75.31 382.09,73.65 379.9,72.05 377.67,70.52 375.4,69.06 373.08,67.67 370.72,66.36 368.32,65.12 365.86,63.96 363.36,62.88 360.81,61.88 358.21,60.97 355.56,60.15 352.85,59.41 350.09,58.77 347.27,58.22 344.4,57.76 341.47,57.4 338.48,57.14 335.42,56.99 332.31,56.93 332.31,72 335.42,72.06 338.48,72.21 341.47,72.47 344.4,72.83 347.27,73.29 350.09,73.84 352.85,74.48 355.56,75.22 358.21,76.04 360.81,76.96 363.36,77.95 "
       style="fill:#b6d9e8;fill-opacity:0.55;stroke:none;stroke-width:1.07"
       id="polygon37" />
    <polygon
       points="365.86,274.91 368.32,274.91 370.72,274.91 373.08,274.91 375.4,274.91 377.67,274.91 379.9,274.91 382.09,274.91 384.24,274.91 386.36,274.91 388.43,274.91 390.47,274.91 392.48,274.91 394.46,274.91 396.4,274.91 398.31,274.91 400.2,274.91 402.05,274.91 403.88,274.91 405.69,274.91 407.47,274.91 409.23,274.91 410.97,274.91 412.69,274.91 414.39,274.91 416.07,274.91 417.73,274.91 419.39,274.91 421.02,274.91 422.65,274.91 424.26,274.91 425.87,274.91 427.46,274.91 429.05,274.91 430.64,274.91 432.22,274.91 433.79,274.91 435.37,274.91 436.94,274.91 438.51,274.91 440.09,274.91 441.67,274.91 443.25,274.91 444.84,274.91 446.44,274.91 448.04,274.91 449.66,274.91 451.28,274.91 452.92,274.91 454.57,274.91 456.24,274.91 457.92,274.91 459.62,274.91 461.34,274.91 463.08,274.91 464.84,274.91 466.62,274.91 468.42,274.91 470.25,274.91 472.11,274.91 473.99,274.91 475.91,274.91 477.85,274.91 479.83,274.91 481.83,274.91 483.87,274.91 485.95,274.91 488.07,274.91 490.22,274.91 492.41,274.91 494.64,274.91 496.91,274.91 499.23,274.91 501.59,274.91 503.99,274.91 506.45,274.91 508.95,274.91 511.5,274.91 514.1,274.91 516.75,274.91 519.46,274.91 522.22,274.91 525.03,274.91 527.91,274.91 530.84,274.91 533.83,274.91 536.88,274.91 540,274.91 540,245.45 536.88,245.45 533.83,245.45 530.84,245.45 527.91,245.45 525.03,245.45 522.22,245.45 519.46,245.45 516.75,245.45 514.1,245.45 511.5,245.45 508.95,245.45 506.45,245.45 503.99,245.45 501.59,245.45 499.23,245.45 496.91,245.45 494.64,245.45 492.41,245.45 490.22,245.45 488.07,245.45 485.95,245.45 483.87,245.45 481.83,245.45 479.83,245.45 477.85,245.45 475.91,245.45 473.99,245.45 472.11,245.45 470.25,245.45 468.42,245.45 466.62,245.45 464.84,245.45 463.08,245.45 461.34,245.45 459.62,245.45 457.92,245.45 456.24,245.45 454.57,245.45 452.92,245.45 451.28,245.45 449.66,245.45 448.04,245.45 446.44,245.45 444.84,245.45 443.25,245.45 441.67,245.45 440.09,245.45 438.51,245.45 436.94,245.45 435.37,245.45 433.79,245.45 432.22,245.45 430.64,245.45 429.05,245.45 427.46,245.45 425.87,245.45 424.26,245.45 422.65,245.45 421.02,245.45 419.39,245.45 417.73,245.45 416.07,245.45 414.39,245.45 412.69,245.45 410.97,245.45 409.23,245.45 407.47,245.45 405.69,245.45 403.88,245.45 402.05,245.45 400.2,245.45 398.31,245.45 396.4,245.45 394.46,245.45 392.48,245.45 390.47,245.45 388.43,245.45 386.36,245.45 384.24,245.45 382.09,245.45 379.9,245.45 377.67,245.45 375.4,245.45 373.08,245.45 370.72,245.45 368.32,245.45 365.86,245.45 363.36,245.45 360.81,245.45 358.21,245.45 355.56,245.45 352.85,245.45 350.09,245.45 347.27,245.45 344.4,245.45 341.47,245.45 338.48,245.45 335.42,245.45 332.31,245.45 332.31,274.91 335.42,274.91 338.48,274.91 341.47,274.91 344.4,274.91 347.27,274.91 350.09,274.91 352.85,274.91 355.56,274.91 358.21,274.91 360.81,274.91 363.36,274.91 "
       style="fill:#ffd1d1;fill-opacity:0.55;stroke:none;stroke-width:1.07"
       id="polygon39" />
    <polygon
       points="573.55,52.82 576.01,52.82 578.41,52.82 580.77,52.82 583.09,52.82 585.36,52.82 587.59,52.82 589.78,52.82 591.93,52.82 594.05,52.82 596.13,52.82 598.17,52.82 600.17,52.82 602.15,52.82 604.09,52.82 606.01,52.82 607.89,52.82 609.75,52.82 611.58,52.82 613.38,52.82 615.16,52.82 616.92,52.82 618.66,52.82 620.38,52.82 622.08,52.82 623.76,52.82 625.43,52.82 627.08,52.82 628.72,52.82 630.34,52.82 631.96,52.82 633.56,52.82 635.16,52.82 636.75,52.82 638.33,52.82 639.91,52.82 641.49,52.82 643.06,52.82 644.63,52.82 646.21,52.82 647.78,52.82 649.36,52.82 650.95,52.82 652.54,52.82 654.13,52.82 655.74,52.82 657.35,52.82 658.98,52.82 660.61,52.82 662.27,52.82 663.93,52.82 665.61,52.82 667.31,52.82 669.03,52.82 670.77,52.82 672.53,52.82 674.31,52.82 676.12,52.82 677.95,52.82 679.8,52.82 681.69,52.82 683.6,52.82 685.54,52.82 687.52,52.82 689.53,52.82 691.57,52.82 693.64,52.82 695.76,52.82 697.91,52.82 700.1,52.82 702.33,52.82 704.6,52.82 706.92,52.82 709.28,52.82 711.68,52.82 714.14,52.82 716.64,52.82 719.19,52.82 721.79,52.82 724.44,52.82 727.15,52.82 729.91,52.82 732.73,52.82 735.6,52.82 738.53,52.82 741.52,52.82 744.58,52.82 747.69,52.82 747.69,13.09 744.58,13.09 741.52,13.09 738.53,13.09 735.6,13.09 732.73,13.09 729.91,13.09 727.15,13.09 724.44,13.09 721.79,13.09 719.19,13.09 716.64,13.09 714.14,13.09 711.68,13.09 709.28,13.09 706.92,13.09 704.6,13.09 702.33,13.09 700.1,13.09 697.91,13.09 695.76,13.09 693.64,13.09 691.57,13.09 689.53,13.09 687.52,13.09 685.54,13.09 683.6,13.09 681.69,13.09 679.8,13.09 677.95,13.09 676.12,13.09 674.31,13.09 672.53,13.09 670.77,13.09 669.03,13.09 667.31,13.09 665.61,13.09 663.93,13.09 662.27,13.09 660.61,13.09 658.98,13.09 657.35,13.09 655.74,13.09 654.13,13.09 652.54,13.09 650.95,13.09 649.36,13.09 647.78,13.09 646.21,13.09 644.63,13.09 643.06,13.09 641.49,13.09 639.91,13.09 638.33,13.09 636.75,13.09 635.16,13.09 633.56,13.09 631.96,13.09 630.34,13.09 628.72,13.09 627.08,13.09 625.43,13.09 623.76,13.09 622.08,13.09 620.38,13.09 618.66,13.09 616.92,13.09 615.16,13.09 613.38,13.09 611.58,13.09 609.75,13.09 607.89,13.09 606.01,13.09 604.09,13.09 602.15,13.09 600.17,13.09 598.17,13.09 596.13,13.09 594.05,13.09 591.93,13.09 589.78,13.09 587.59,13.09 585.36,13.09 583.09,13.09 580.77,13.09 578.41,13.09 576.01,13.09 573.55,13.09 571.05,13.09 568.5,13.09 565.9,13.09 563.25,13.09 560.54,13.09 557.78,13.09 554.97,13.09 552.09,13.09 549.16,13.09 546.17,13.09 543.12,13.09 540,13.09 540,52.82 543.12,52.82 546.17,52.82 549.16,52.82 552.09,52.82 554.97,52.82 557.78,52.82 560.54,52.82 563.25,52.82 565.9,52.82 568.5,52.82 571.05,52.82 "
       style="fill:#b6d9e8;fill-opacity:0.55;stroke:none;stroke-width:1.07"
       id="polygon41" />
    <polygon
       points="573.55,213.15 576.01,213.15 578.41,213.16 580.77,213.16 583.09,213.17 585.36,213.17 587.59,213.18 589.78,213.19 591.93,213.19 594.05,213.2 596.13,213.21 598.17,213.21 600.17,213.22 602.15,213.23 604.09,213.24 606.01,213.24 607.89,213.25 609.75,213.26 611.58,213.27 613.38,213.28 615.16,213.29 616.92,213.3 618.66,213.31 620.38,213.32 622.08,213.33 623.76,213.33 625.43,213.34 627.08,213.35 628.72,213.36 630.34,213.37 631.96,213.38 633.56,213.39 635.16,213.41 636.75,213.42 638.33,213.43 639.91,213.44 641.49,213.45 643.06,213.46 644.63,213.47 646.21,213.48 647.78,213.49 649.36,213.5 650.95,213.51 652.54,213.52 654.13,213.53 655.74,213.54 657.35,213.55 658.98,213.56 660.61,213.57 662.27,213.58 663.93,213.59 665.61,213.6 667.31,213.61 669.03,213.62 670.77,213.63 672.53,213.64 674.31,213.65 676.12,213.65 677.95,213.66 679.8,213.67 681.69,213.68 683.6,213.69 685.54,213.7 687.52,213.7 689.53,213.71 691.57,213.72 693.64,213.73 695.76,213.73 697.91,213.74 700.1,213.74 702.33,213.75 704.6,213.76 706.92,213.76 709.28,213.77 711.68,213.77 714.14,213.78 716.64,213.78 719.19,213.78 721.79,213.79 724.44,213.79 727.15,213.79 729.91,213.8 732.73,213.8 735.6,213.8 738.53,213.8 741.52,213.8 744.58,213.8 747.69,213.8 747.69,57.62 744.58,57.62 741.52,57.62 738.53,57.62 735.6,57.61 732.73,57.61 729.91,57.61 727.15,57.61 724.44,57.61 721.79,57.6 719.19,57.6 716.64,57.59 714.14,57.59 711.68,57.59 709.28,57.58 706.92,57.58 704.6,57.57 702.33,57.56 700.1,57.56 697.91,57.55 695.76,57.55 693.64,57.54 691.57,57.53 689.53,57.52 687.52,57.52 685.54,57.51 683.6,57.5 681.69,57.49 679.8,57.48 677.95,57.48 676.12,57.47 674.31,57.46 672.53,57.45 670.77,57.44 669.03,57.43 667.31,57.42 665.61,57.41 663.93,57.4 662.27,57.39 660.61,57.38 658.98,57.37 657.35,57.36 655.74,57.35 654.13,57.34 652.54,57.33 650.95,57.32 649.36,57.31 647.78,57.3 646.21,57.29 644.63,57.28 643.06,57.27 641.49,57.26 639.91,57.25 638.33,57.24 636.75,57.23 635.16,57.22 633.56,57.21 631.96,57.2 630.34,57.19 628.72,57.18 627.08,57.17 625.43,57.16 623.76,57.15 622.08,57.14 620.38,57.13 618.66,57.12 616.92,57.11 615.16,57.1 613.38,57.09 611.58,57.08 609.75,57.07 607.89,57.07 606.01,57.06 604.09,57.05 602.15,57.04 600.17,57.03 598.17,57.03 596.13,57.02 594.05,57.01 591.93,57.01 589.78,57 587.59,56.99 585.36,56.99 583.09,56.98 580.77,56.98 578.41,56.97 576.01,56.97 573.55,56.96 571.05,56.96 568.5,56.95 565.9,56.95 563.25,56.95 560.54,56.94 557.78,56.94 554.97,56.94 552.09,56.94 549.16,56.93 546.17,56.93 543.12,56.93 540,56.93 540,213.12 543.12,213.12 546.17,213.12 549.16,213.12 552.09,213.12 554.97,213.12 557.78,213.13 560.54,213.13 563.25,213.13 565.9,213.14 568.5,213.14 571.05,213.14 "
       style="fill:#ffd1d1;fill-opacity:0.55;stroke:none;stroke-width:1.07"
       id="polygon43" />
    <polygon
       points="573.55,227.98 576.01,226.8 578.41,225.53 580.77,224.18 583.09,222.76 585.36,221.27 587.59,219.7 589.78,218.07 591.93,216.37 594.05,214.6 596.13,212.77 598.17,210.88 600.17,208.93 602.15,206.93 604.09,204.87 606.01,202.76 607.89,200.6 609.75,198.4 611.58,196.14 613.38,193.85 615.16,191.52 616.92,189.14 618.66,186.73 620.38,184.29 622.08,181.82 623.76,179.31 625.43,176.78 627.08,174.22 628.72,171.64 630.34,169.04 631.96,166.42 633.56,163.78 635.16,161.13 636.75,158.47 638.33,155.8 639.91,153.12 641.49,150.43 643.06,147.74 644.63,145.05 646.21,142.36 647.78,139.68 649.36,137 650.95,134.32 652.54,131.66 654.13,129.01 655.74,126.37 657.35,123.75 658.98,121.15 660.61,118.57 662.27,116.02 663.93,113.48 665.61,110.98 667.31,108.5 669.03,106.06 670.77,103.65 672.53,101.28 674.31,98.94 676.12,96.65 677.95,94.4 679.8,92.19 681.69,90.03 683.6,87.93 685.54,85.87 687.52,83.86 689.53,81.92 691.57,80.03 693.64,78.2 695.76,76.43 697.91,74.73 700.1,73.09 702.33,71.53 704.6,70.03 706.92,68.61 709.28,67.27 711.68,66 714.14,64.81 716.64,63.71 719.19,62.69 721.79,61.75 724.44,60.91 727.15,60.16 729.91,59.5 732.73,58.93 735.6,58.46 738.53,58.1 741.52,57.83 744.58,57.67 747.69,57.62 747.69,52.82 744.58,52.88 741.52,53.04 738.53,53.3 735.6,53.67 732.73,54.14 729.91,54.7 727.15,55.36 724.44,56.11 721.79,56.96 719.19,57.89 716.64,58.91 714.14,60.02 711.68,61.2 709.28,62.47 706.92,63.82 704.6,65.24 702.33,66.73 700.1,68.3 697.91,69.93 695.76,71.63 693.64,73.4 691.57,75.23 689.53,77.12 687.52,79.07 685.54,81.07 683.6,83.13 681.69,85.24 679.8,87.4 677.95,89.6 676.12,91.86 674.31,94.15 672.53,96.48 670.77,98.86 669.03,101.27 667.31,103.71 665.61,106.18 663.93,108.69 662.27,111.22 660.61,113.78 658.98,116.36 657.35,118.96 655.74,121.58 654.13,124.22 652.54,126.87 650.95,129.53 649.36,132.2 647.78,134.88 646.21,137.57 644.63,140.26 643.06,142.95 641.49,145.64 639.91,148.32 638.33,151 636.75,153.68 635.16,156.34 633.56,158.99 631.96,161.63 630.34,164.25 628.72,166.85 627.08,169.43 625.43,171.98 623.76,174.52 622.08,177.02 620.38,179.5 618.66,181.94 616.92,184.35 615.16,186.72 613.38,189.06 611.58,191.35 609.75,193.6 607.89,195.81 606.01,197.97 604.09,200.07 602.15,202.13 600.17,204.14 598.17,206.08 596.13,207.97 594.05,209.8 591.93,211.57 589.78,213.27 587.59,214.91 585.36,216.47 583.09,217.97 580.77,219.39 578.41,220.73 576.01,222 573.55,223.19 571.05,224.29 568.5,225.31 565.9,226.25 563.25,227.09 560.54,227.84 557.78,228.5 554.97,229.07 552.09,229.54 549.16,229.9 546.17,230.17 543.12,230.33 540,230.38 540,235.18 543.12,235.12 546.17,234.96 549.16,234.7 552.09,234.33 554.97,233.86 557.78,233.3 560.54,232.64 563.25,231.89 565.9,231.04 568.5,230.11 571.05,229.09 "
       style="fill:#b6d9e8;fill-opacity:0.55;stroke:none;stroke-width:1.07"
       id="polygon45" />
    <polygon
       points="573.55,250.34 576.01,250.12 578.41,249.9 580.77,249.66 583.09,249.41 585.36,249.14 587.59,248.86 589.78,248.57 591.93,248.27 594.05,247.95 596.13,247.62 598.17,247.29 600.17,246.94 602.15,246.58 604.09,246.22 606.01,245.84 607.89,245.46 609.75,245.06 611.58,244.66 613.38,244.25 615.16,243.84 616.92,243.41 618.66,242.98 620.38,242.55 622.08,242.11 623.76,241.66 625.43,241.21 627.08,240.75 628.72,240.29 630.34,239.83 631.96,239.36 633.56,238.89 635.16,238.42 636.75,237.95 638.33,237.47 639.91,236.99 641.49,236.51 643.06,236.03 644.63,235.55 646.21,235.07 647.78,234.6 649.36,234.12 650.95,233.64 652.54,233.17 654.13,232.69 655.74,232.23 657.35,231.76 658.98,231.29 660.61,230.83 662.27,230.38 663.93,229.93 665.61,229.48 667.31,229.04 669.03,228.6 670.77,228.17 672.53,227.75 674.31,227.34 676.12,226.93 677.95,226.53 679.8,226.13 681.69,225.75 683.6,225.37 685.54,225.01 687.52,224.65 689.53,224.3 691.57,223.96 693.64,223.64 695.76,223.32 697.91,223.02 700.1,222.73 702.33,222.45 704.6,222.18 706.92,221.93 709.28,221.69 711.68,221.46 714.14,221.25 716.64,221.06 719.19,220.87 721.79,220.71 724.44,220.56 727.15,220.42 729.91,220.3 732.73,220.2 735.6,220.12 738.53,220.06 741.52,220.01 744.58,219.98 747.69,219.97 747.69,213.8 744.58,213.81 741.52,213.84 738.53,213.89 735.6,213.96 732.73,214.04 729.91,214.14 727.15,214.26 724.44,214.39 721.79,214.54 719.19,214.71 716.64,214.89 714.14,215.09 711.68,215.3 709.28,215.52 706.92,215.76 704.6,216.02 702.33,216.28 700.1,216.56 697.91,216.85 695.76,217.16 693.64,217.47 691.57,217.8 689.53,218.14 687.52,218.48 685.54,218.84 683.6,219.21 681.69,219.58 679.8,219.97 677.95,220.36 676.12,220.76 674.31,221.17 672.53,221.59 670.77,222.01 669.03,222.44 667.31,222.87 665.61,223.32 663.93,223.76 662.27,224.21 660.61,224.67 658.98,225.13 657.35,225.59 655.74,226.06 654.13,226.53 652.54,227 650.95,227.48 649.36,227.95 647.78,228.43 646.21,228.91 644.63,229.39 643.06,229.87 641.49,230.35 639.91,230.83 638.33,231.3 636.75,231.78 635.16,232.26 633.56,232.73 631.96,233.2 630.34,233.66 628.72,234.13 627.08,234.59 625.43,235.04 623.76,235.5 622.08,235.94 620.38,236.38 618.66,236.82 616.92,237.25 615.16,237.67 613.38,238.09 611.58,238.5 609.75,238.9 607.89,239.29 606.01,239.67 604.09,240.05 602.15,240.42 600.17,240.77 598.17,241.12 596.13,241.46 594.05,241.78 591.93,242.1 589.78,242.4 587.59,242.69 585.36,242.97 583.09,243.24 580.77,243.49 578.41,243.73 576.01,243.96 573.55,244.17 571.05,244.37 568.5,244.55 565.9,244.72 563.25,244.87 560.54,245 557.78,245.12 554.97,245.22 552.09,245.3 549.16,245.37 546.17,245.41 543.12,245.44 540,245.45 540,251.62 543.12,251.61 546.17,251.58 549.16,251.53 552.09,251.47 554.97,251.38 557.78,251.28 560.54,251.17 563.25,251.03 565.9,250.88 568.5,250.71 571.05,250.53 "
       style="fill:#ffd1d1;fill-opacity:0.55;stroke:none;stroke-width:1.07"
       id="polygon47" />
    <polygon
       points="573.55,64.21 576.01,65.41 578.41,66.69 580.77,68.05 583.09,69.49 585.36,71 587.59,72.59 589.78,74.24 591.93,75.96 594.05,77.75 596.13,79.6 598.17,81.51 600.17,83.48 602.15,85.51 604.09,87.59 606.01,89.72 607.89,91.91 609.75,94.14 611.58,96.42 613.38,98.74 615.16,101.1 616.92,103.5 618.66,105.94 620.38,108.41 622.08,110.91 623.76,113.45 625.43,116.01 627.08,118.59 628.72,121.2 630.34,123.84 631.96,126.49 633.56,129.15 635.16,131.83 636.75,134.53 638.33,137.23 639.91,139.94 641.49,142.66 643.06,145.38 644.63,148.1 646.21,150.82 647.78,153.54 649.36,156.25 650.95,158.95 652.54,161.65 654.13,164.33 655.74,166.99 657.35,169.64 658.98,172.28 660.61,174.89 662.27,177.47 663.93,180.03 665.61,182.57 667.31,185.07 669.03,187.54 670.77,189.98 672.53,192.38 674.31,194.74 676.12,197.06 677.95,199.34 679.8,201.57 681.69,203.76 683.6,205.89 685.54,207.97 687.52,210 689.53,211.97 691.57,213.88 693.64,215.73 695.76,217.52 697.91,219.24 700.1,220.89 702.33,222.48 704.6,223.99 706.92,225.43 709.28,226.79 711.68,228.07 714.14,229.27 716.64,230.39 719.19,231.42 721.79,232.36 724.44,233.22 727.15,233.98 729.91,234.65 732.73,235.22 735.6,235.69 738.53,236.06 741.52,236.33 744.58,236.49 747.69,236.55 747.69,232.44 744.58,232.38 741.52,232.22 738.53,231.95 735.6,231.58 732.73,231.11 729.91,230.54 727.15,229.87 724.44,229.11 721.79,228.25 719.19,227.31 716.64,226.28 714.14,225.16 711.68,223.96 709.28,222.68 706.92,221.32 704.6,219.88 702.33,218.37 700.1,216.78 697.91,215.13 695.76,213.41 693.64,211.62 691.57,209.77 689.53,207.86 687.52,205.89 685.54,203.86 683.6,201.78 681.69,199.65 679.8,197.46 677.95,195.23 676.12,192.95 674.31,190.63 672.53,188.27 670.77,185.87 669.03,183.43 667.31,180.96 665.61,178.46 663.93,175.92 662.27,173.36 660.61,170.78 658.98,168.17 657.35,165.53 655.74,162.88 654.13,160.22 652.54,157.54 650.95,154.84 649.36,152.14 647.78,149.43 646.21,146.71 644.63,143.99 643.06,141.27 641.49,138.55 639.91,135.83 638.33,133.12 636.75,130.42 635.16,127.72 633.56,125.04 631.96,122.38 630.34,119.73 628.72,117.09 627.08,114.48 625.43,111.9 623.76,109.34 622.08,106.8 620.38,104.3 618.66,101.83 616.92,99.39 615.16,96.99 613.38,94.63 611.58,92.31 609.75,90.03 607.89,87.8 606.01,85.61 604.09,83.48 602.15,81.4 600.17,79.37 598.17,77.4 596.13,75.49 594.05,73.64 591.93,71.85 589.78,70.13 587.59,68.48 585.36,66.89 583.09,65.38 580.77,63.94 578.41,62.58 576.01,61.3 573.55,60.1 571.05,58.98 568.5,57.95 565.9,57.01 563.25,56.15 560.54,55.39 557.78,54.72 554.97,54.15 552.09,53.68 549.16,53.31 546.17,53.04 543.12,52.88 540,52.82 540,56.93 543.12,56.99 546.17,57.15 549.16,57.42 552.09,57.79 554.97,58.26 557.78,58.83 560.54,59.5 563.25,60.26 565.9,61.12 568.5,62.06 571.05,63.09 "
       style="fill:#b6d9e8;fill-opacity:0.55;stroke:none;stroke-width:1.07"
       id="polygon49" />
    <polygon
       points="573.55,219.28 576.01,219.51 578.41,219.75 580.77,220 583.09,220.27 585.36,220.55 587.59,220.85 589.78,221.16 591.93,221.49 594.05,221.82 596.13,222.17 598.17,222.53 600.17,222.9 602.15,223.28 604.09,223.67 606.01,224.07 607.89,224.48 609.75,224.9 611.58,225.32 613.38,225.76 615.16,226.2 616.92,226.65 618.66,227.11 620.38,227.57 622.08,228.04 623.76,228.52 625.43,229 627.08,229.48 628.72,229.97 630.34,230.47 631.96,230.97 633.56,231.47 635.16,231.97 636.75,232.47 638.33,232.98 639.91,233.49 641.49,234 643.06,234.51 644.63,235.02 646.21,235.53 647.78,236.04 649.36,236.55 650.95,237.06 652.54,237.56 654.13,238.07 655.74,238.57 657.35,239.06 658.98,239.56 660.61,240.05 662.27,240.53 663.93,241.01 665.61,241.49 667.31,241.96 669.03,242.42 670.77,242.88 672.53,243.33 674.31,243.77 676.12,244.21 677.95,244.64 679.8,245.06 681.69,245.46 683.6,245.87 685.54,246.26 687.52,246.64 689.53,247.01 691.57,247.36 693.64,247.71 695.76,248.05 697.91,248.37 700.1,248.68 702.33,248.98 704.6,249.26 706.92,249.53 709.28,249.79 711.68,250.03 714.14,250.25 716.64,250.46 719.19,250.66 721.79,250.83 724.44,250.99 727.15,251.14 729.91,251.26 732.73,251.37 735.6,251.46 738.53,251.53 741.52,251.58 744.58,251.61 747.69,251.62 747.69,246.82 744.58,246.81 741.52,246.78 738.53,246.73 735.6,246.66 732.73,246.57 729.91,246.47 727.15,246.34 724.44,246.2 721.79,246.04 719.19,245.86 716.64,245.67 714.14,245.46 711.68,245.23 709.28,244.99 706.92,244.74 704.6,244.47 702.33,244.18 700.1,243.89 697.91,243.58 695.76,243.25 693.64,242.92 691.57,242.57 689.53,242.21 687.52,241.84 685.54,241.46 683.6,241.07 681.69,240.67 679.8,240.26 677.95,239.84 676.12,239.41 674.31,238.98 672.53,238.54 670.77,238.08 669.03,237.63 667.31,237.16 665.61,236.69 663.93,236.22 662.27,235.74 660.61,235.25 658.98,234.76 657.35,234.27 655.74,233.77 654.13,233.27 652.54,232.77 650.95,232.26 649.36,231.76 647.78,231.25 646.21,230.74 644.63,230.23 643.06,229.72 641.49,229.21 639.91,228.7 638.33,228.19 636.75,227.68 635.16,227.17 633.56,226.67 631.96,226.17 630.34,225.67 628.72,225.18 627.08,224.69 625.43,224.2 623.76,223.72 622.08,223.25 620.38,222.78 618.66,222.31 616.92,221.86 615.16,221.41 613.38,220.96 611.58,220.53 609.75,220.1 607.89,219.68 606.01,219.27 604.09,218.87 602.15,218.48 600.17,218.1 598.17,217.73 596.13,217.37 594.05,217.03 591.93,216.69 589.78,216.37 587.59,216.06 585.36,215.76 583.09,215.48 580.77,215.21 578.41,214.95 576.01,214.71 573.55,214.48 571.05,214.28 568.5,214.08 565.9,213.9 563.25,213.74 560.54,213.6 557.78,213.48 554.97,213.37 552.09,213.28 549.16,213.21 546.17,213.16 543.12,213.13 540,213.12 540,217.91 543.12,217.92 546.17,217.96 549.16,218.01 552.09,218.08 554.97,218.16 557.78,218.27 560.54,218.4 563.25,218.54 565.9,218.7 568.5,218.88 571.05,219.07 "
       style="fill:#ffd1d1;fill-opacity:0.55;stroke:none;stroke-width:1.07"
       id="polygon51" />
    <polygon
       points="573.55,245.51 576.01,245.52 578.41,245.53 580.77,245.54 583.09,245.55 585.36,245.56 587.59,245.57 589.78,245.58 591.93,245.6 594.05,245.61 596.13,245.63 598.17,245.64 600.17,245.66 602.15,245.67 604.09,245.69 606.01,245.7 607.89,245.72 609.75,245.74 611.58,245.75 613.38,245.77 615.16,245.79 616.92,245.81 618.66,245.83 620.38,245.85 622.08,245.86 623.76,245.88 625.43,245.9 627.08,245.92 628.72,245.94 630.34,245.96 631.96,245.98 633.56,246 635.16,246.02 636.75,246.04 638.33,246.07 639.91,246.09 641.49,246.11 643.06,246.13 644.63,246.15 646.21,246.17 647.78,246.19 649.36,246.21 650.95,246.23 652.54,246.25 654.13,246.27 655.74,246.29 657.35,246.31 658.98,246.33 660.61,246.35 662.27,246.37 663.93,246.39 665.61,246.41 667.31,246.43 669.03,246.45 670.77,246.47 672.53,246.49 674.31,246.5 676.12,246.52 677.95,246.54 679.8,246.56 681.69,246.57 683.6,246.59 685.54,246.6 687.52,246.62 689.53,246.64 691.57,246.65 693.64,246.66 695.76,246.68 697.91,246.69 700.1,246.7 702.33,246.72 704.6,246.73 706.92,246.74 709.28,246.75 711.68,246.76 714.14,246.77 716.64,246.78 719.19,246.78 721.79,246.79 724.44,246.8 727.15,246.8 729.91,246.81 732.73,246.81 735.6,246.82 738.53,246.82 741.52,246.82 744.58,246.82 747.69,246.82 747.69,236.55 744.58,236.55 741.52,236.55 738.53,236.54 735.6,236.54 732.73,236.54 729.91,236.53 727.15,236.53 724.44,236.52 721.79,236.52 719.19,236.51 716.64,236.5 714.14,236.49 711.68,236.48 709.28,236.47 706.92,236.46 704.6,236.45 702.33,236.44 700.1,236.43 697.91,236.42 695.76,236.4 693.64,236.39 691.57,236.37 689.53,236.36 687.52,236.34 685.54,236.33 683.6,236.31 681.69,236.3 679.8,236.28 677.95,236.26 676.12,236.25 674.31,236.23 672.53,236.21 670.77,236.19 669.03,236.17 667.31,236.15 665.61,236.14 663.93,236.12 662.27,236.1 660.61,236.08 658.98,236.06 657.35,236.04 655.74,236.02 654.13,236 652.54,235.98 650.95,235.96 649.36,235.93 647.78,235.91 646.21,235.89 644.63,235.87 643.06,235.85 641.49,235.83 639.91,235.81 638.33,235.79 636.75,235.77 635.16,235.75 633.56,235.73 631.96,235.71 630.34,235.69 628.72,235.67 627.08,235.65 625.43,235.63 623.76,235.61 622.08,235.59 620.38,235.57 618.66,235.55 616.92,235.53 615.16,235.51 613.38,235.5 611.58,235.48 609.75,235.46 607.89,235.44 606.01,235.43 604.09,235.41 602.15,235.4 600.17,235.38 598.17,235.36 596.13,235.35 594.05,235.34 591.93,235.32 589.78,235.31 587.59,235.3 585.36,235.28 583.09,235.27 580.77,235.26 578.41,235.25 576.01,235.24 573.55,235.23 571.05,235.22 568.5,235.22 565.9,235.21 563.25,235.2 560.54,235.2 557.78,235.19 554.97,235.19 552.09,235.18 549.16,235.18 546.17,235.18 543.12,235.18 540,235.18 540,245.45 543.12,245.45 546.17,245.45 549.16,245.46 552.09,245.46 554.97,245.46 557.78,245.47 560.54,245.47 563.25,245.48 565.9,245.48 568.5,245.49 571.05,245.5 "
       style="fill:#b6d9e8;fill-opacity:0.55;stroke:none;stroke-width:1.07"
       id="polygon53" />
    <polygon
       points="573.55,274.91 576.01,274.91 578.41,274.91 580.77,274.91 583.09,274.91 585.36,274.91 587.59,274.91 589.78,274.91 591.93,274.91 594.05,274.91 596.13,274.91 598.17,274.91 600.17,274.91 602.15,274.91 604.09,274.91 606.01,274.91 607.89,274.91 609.75,274.91 611.58,274.91 613.38,274.91 615.16,274.91 616.92,274.91 618.66,274.91 620.38,274.91 622.08,274.91 623.76,274.91 625.43,274.91 627.08,274.91 628.72,274.91 630.34,274.91 631.96,274.91 633.56,274.91 635.16,274.91 636.75,274.91 638.33,274.91 639.91,274.91 641.49,274.91 643.06,274.91 644.63,274.91 646.21,274.91 647.78,274.91 649.36,274.91 650.95,274.91 652.54,274.91 654.13,274.91 655.74,274.91 657.35,274.91 658.98,274.91 660.61,274.91 662.27,274.91 663.93,274.91 665.61,274.91 667.31,274.91 669.03,274.91 670.77,274.91 672.53,274.91 674.31,274.91 676.12,274.91 677.95,274.91 679.8,274.91 681.69,274.91 683.6,274.91 685.54,274.91 687.52,274.91 689.53,274.91 691.57,274.91 693.64,274.91 695.76,274.91 697.91,274.91 700.1,274.91 702.33,274.91 704.6,274.91 706.92,274.91 709.28,274.91 711.68,274.91 714.14,274.91 716.64,274.91 719.19,274.91 721.79,274.91 724.44,274.91 727.15,274.91 729.91,274.91 732.73,274.91 735.6,274.91 738.53,274.91 741.52,274.91 744.58,274.91 747.69,274.91 747.69,251.62 744.58,251.62 741.52,251.62 738.53,251.62 735.6,251.62 732.73,251.62 729.91,251.62 727.15,251.62 724.44,251.62 721.79,251.62 719.19,251.62 716.64,251.62 714.14,251.62 711.68,251.62 709.28,251.62 706.92,251.62 704.6,251.62 702.33,251.62 700.1,251.62 697.91,251.62 695.76,251.62 693.64,251.62 691.57,251.62 689.53,251.62 687.52,251.62 685.54,251.62 683.6,251.62 681.69,251.62 679.8,251.62 677.95,251.62 676.12,251.62 674.31,251.62 672.53,251.62 670.77,251.62 669.03,251.62 667.31,251.62 665.61,251.62 663.93,251.62 662.27,251.62 660.61,251.62 658.98,251.62 657.35,251.62 655.74,251.62 654.13,251.62 652.54,251.62 650.95,251.62 649.36,251.62 647.78,251.62 646.21,251.62 644.63,251.62 643.06,251.62 641.49,251.62 639.91,251.62 638.33,251.62 636.75,251.62 635.16,251.62 633.56,251.62 631.96,251.62 630.34,251.62 628.72,251.62 627.08,251.62 625.43,251.62 623.76,251.62 622.08,251.62 620.38,251.62 618.66,251.62 616.92,251.62 615.16,251.62 613.38,251.62 611.58,251.62 609.75,251.62 607.89,251.62 606.01,251.62 604.09,251.62 602.15,251.62 600.17,251.62 598.17,251.62 596.13,251.62 594.05,251.62 591.93,251.62 589.78,251.62 587.59,251.62 585.36,251.62 583.09,251.62 580.77,251.62 578.41,251.62 576.01,251.62 573.55,251.62 571.05,251.62 568.5,251.62 565.9,251.62 563.25,251.62 560.54,251.62 557.78,251.62 554.97,251.62 552.09,251.62 549.16,251.62 546.17,251.62 543.12,251.62 540,251.62 540,274.91 543.12,274.91 546.17,274.91 549.16,274.91 552.09,274.91 554.97,274.91 557.78,274.91 560.54,274.91 563.25,274.91 565.9,274.91 568.5,274.91 571.05,274.91 "
       style="fill:#ffd1d1;fill-opacity:0.55;stroke:none;stroke-width:1.07"
       id="polygon55" />
    <polygon
       points="781.25,41.86 783.7,41.86 786.11,41.86 788.47,41.86 790.78,41.86 793.05,41.86 795.29,41.86 797.48,41.86 799.63,41.86 801.74,41.86 803.82,41.86 805.86,41.86 807.87,41.86 809.84,41.86 811.79,41.86 813.7,41.86 815.58,41.86 817.44,41.86 819.27,41.86 821.07,41.86 822.86,41.86 824.62,41.86 826.35,41.86 828.07,41.86 829.77,41.86 831.45,41.86 833.12,41.86 834.77,41.86 836.41,41.86 838.03,41.86 839.65,41.86 841.25,41.86 842.85,41.86 844.44,41.86 846.02,41.86 847.6,41.86 849.18,41.86 850.75,41.86 852.33,41.86 853.9,41.86 855.48,41.86 857.05,41.86 858.64,41.86 860.23,41.86 861.82,41.86 863.43,41.86 865.04,41.86 866.67,41.86 868.31,41.86 869.96,41.86 871.62,41.86 873.31,41.86 875.01,41.86 876.72,41.86 878.46,41.86 880.22,41.86 882,41.86 883.81,41.86 885.64,41.86 887.49,41.86 889.38,41.86 891.29,41.86 893.24,41.86 895.21,41.86 897.22,41.86 899.26,41.86 901.34,41.86 903.45,41.86 905.6,41.86 907.79,41.86 910.02,41.86 912.3,41.86 914.61,41.86 916.97,41.86 919.38,41.86 921.83,41.86 924.33,41.86 926.88,41.86 929.48,41.86 932.13,41.86 934.84,41.86 937.6,41.86 940.42,41.86 943.29,41.86 946.22,41.86 949.22,41.86 952.27,41.86 955.38,41.86 955.38,13.09 952.27,13.09 949.22,13.09 946.22,13.09 943.29,13.09 940.42,13.09 937.6,13.09 934.84,13.09 932.13,13.09 929.48,13.09 926.88,13.09 924.33,13.09 921.83,13.09 919.38,13.09 916.97,13.09 914.61,13.09 912.3,13.09 910.02,13.09 907.79,13.09 905.6,13.09 903.45,13.09 901.34,13.09 899.26,13.09 897.22,13.09 895.21,13.09 893.24,13.09 891.29,13.09 889.38,13.09 887.49,13.09 885.64,13.09 883.81,13.09 882,13.09 880.22,13.09 878.46,13.09 876.72,13.09 875.01,13.09 873.31,13.09 871.62,13.09 869.96,13.09 868.31,13.09 866.67,13.09 865.04,13.09 863.43,13.09 861.82,13.09 860.23,13.09 858.64,13.09 857.05,13.09 855.48,13.09 853.9,13.09 852.33,13.09 850.75,13.09 849.18,13.09 847.6,13.09 846.02,13.09 844.44,13.09 842.85,13.09 841.25,13.09 839.65,13.09 838.03,13.09 836.41,13.09 834.77,13.09 833.12,13.09 831.45,13.09 829.77,13.09 828.07,13.09 826.35,13.09 824.62,13.09 822.86,13.09 821.07,13.09 819.27,13.09 817.44,13.09 815.58,13.09 813.7,13.09 811.79,13.09 809.84,13.09 807.87,13.09 805.86,13.09 803.82,13.09 801.74,13.09 799.63,13.09 797.48,13.09 795.29,13.09 793.05,13.09 790.78,13.09 788.47,13.09 786.11,13.09 783.7,13.09 781.25,13.09 778.75,13.09 776.2,13.09 773.6,13.09 770.94,13.09 768.24,13.09 765.48,13.09 762.66,13.09 759.78,13.09 756.85,13.09 753.86,13.09 750.81,13.09 747.69,13.09 747.69,41.86 750.81,41.86 753.86,41.86 756.85,41.86 759.78,41.86 762.66,41.86 765.48,41.86 768.24,41.86 770.94,41.86 773.6,41.86 776.2,41.86 778.75,41.86 "
       style="fill:#b6d9e8;fill-opacity:0.55;stroke:none;stroke-width:1.07"
       id="polygon57" />
    <polygon
       points="781.25,116.99 783.7,116.96 786.11,116.92 788.47,116.88 790.78,116.83 793.05,116.79 795.29,116.74 797.48,116.69 799.63,116.63 801.74,116.58 803.82,116.52 805.86,116.47 807.87,116.41 809.84,116.34 811.79,116.28 813.7,116.21 815.58,116.15 817.44,116.08 819.27,116.01 821.07,115.94 822.86,115.87 824.62,115.79 826.35,115.72 828.07,115.64 829.77,115.57 831.45,115.49 833.12,115.41 834.77,115.33 836.41,115.25 838.03,115.17 839.65,115.09 841.25,115.01 842.85,114.93 844.44,114.85 846.02,114.77 847.6,114.68 849.18,114.6 850.75,114.52 852.33,114.43 853.9,114.35 855.48,114.27 857.05,114.19 858.64,114.1 860.23,114.02 861.82,113.94 863.43,113.86 865.04,113.78 866.67,113.7 868.31,113.62 869.96,113.54 871.62,113.46 873.31,113.38 875.01,113.31 876.72,113.23 878.46,113.16 880.22,113.08 882,113.01 883.81,112.94 885.64,112.87 887.49,112.8 889.38,112.74 891.29,112.67 893.24,112.61 895.21,112.55 897.22,112.49 899.26,112.43 901.34,112.37 903.45,112.32 905.6,112.26 907.79,112.21 910.02,112.16 912.3,112.12 914.61,112.07 916.97,112.03 919.38,111.99 921.83,111.96 924.33,111.92 926.88,111.89 929.48,111.86 932.13,111.84 934.84,111.81 937.6,111.79 940.42,111.78 943.29,111.76 946.22,111.75 949.22,111.74 952.27,111.74 955.38,111.74 955.38,52.14 952.27,52.14 949.22,52.14 946.22,52.15 943.29,52.16 940.42,52.18 937.6,52.2 934.84,52.22 932.13,52.24 929.48,52.27 926.88,52.29 924.33,52.33 921.83,52.36 919.38,52.4 916.97,52.44 914.61,52.48 912.3,52.52 910.02,52.57 907.79,52.62 905.6,52.67 903.45,52.72 901.34,52.77 899.26,52.83 897.22,52.89 895.21,52.95 893.24,53.01 891.29,53.07 889.38,53.14 887.49,53.2 885.64,53.27 883.81,53.34 882,53.41 880.22,53.49 878.46,53.56 876.72,53.63 875.01,53.71 873.31,53.78 871.62,53.86 869.96,53.94 868.31,54.02 866.67,54.1 865.04,54.18 863.43,54.26 861.82,54.34 860.23,54.42 858.64,54.51 857.05,54.59 855.48,54.67 853.9,54.75 852.33,54.84 850.75,54.92 849.18,55 847.6,55.09 846.02,55.17 844.44,55.25 842.85,55.33 841.25,55.41 839.65,55.5 838.03,55.58 836.41,55.66 834.77,55.74 833.12,55.82 831.45,55.89 829.77,55.97 828.07,56.05 826.35,56.12 824.62,56.2 822.86,56.27 821.07,56.34 819.27,56.41 817.44,56.48 815.58,56.55 813.7,56.62 811.79,56.68 809.84,56.75 807.87,56.81 805.86,56.87 803.82,56.93 801.74,56.98 799.63,57.04 797.48,57.09 795.29,57.14 793.05,57.19 790.78,57.23 788.47,57.28 786.11,57.32 783.7,57.36 781.25,57.4 778.75,57.43 776.2,57.46 773.6,57.49 770.94,57.52 768.24,57.54 765.48,57.56 762.66,57.58 759.78,57.59 756.85,57.6 753.86,57.61 750.81,57.62 747.69,57.62 747.69,117.22 750.81,117.21 753.86,117.21 756.85,117.2 759.78,117.19 762.66,117.17 765.48,117.16 768.24,117.14 770.94,117.11 773.6,117.09 776.2,117.06 778.75,117.03 "
       style="fill:#ffd1d1;fill-opacity:0.55;stroke:none;stroke-width:1.07"
       id="polygon59" />
    <polygon
       points="781.25,234.99 783.7,233.72 786.11,232.36 788.47,230.91 790.78,229.39 793.05,227.78 795.29,226.1 797.48,224.35 799.63,222.52 801.74,220.63 803.82,218.66 805.86,216.63 807.87,214.54 809.84,212.39 811.79,210.18 813.7,207.92 815.58,205.6 817.44,203.23 819.27,200.82 821.07,198.36 822.86,195.85 824.62,193.3 826.35,190.72 828.07,188.1 829.77,185.44 831.45,182.75 833.12,180.03 834.77,177.29 836.41,174.52 838.03,171.73 839.65,168.92 841.25,166.09 842.85,163.24 844.44,160.38 846.02,157.51 847.6,154.64 849.18,151.76 850.75,148.87 852.33,145.98 853.9,143.1 855.48,140.21 857.05,137.34 858.64,134.47 860.23,131.61 861.82,128.76 863.43,125.93 865.04,123.12 866.67,120.33 868.31,117.56 869.96,114.82 871.62,112.1 873.31,109.41 875.01,106.75 876.72,104.13 878.46,101.55 880.22,99 882,96.49 883.81,94.03 885.64,91.62 887.49,89.25 889.38,86.93 891.29,84.67 893.24,82.46 895.21,80.31 897.22,78.22 899.26,76.19 901.34,74.22 903.45,72.33 905.6,70.5 907.79,68.75 910.02,67.07 912.3,65.46 914.61,63.94 916.97,62.49 919.38,61.13 921.83,59.86 924.33,58.67 926.88,57.58 929.48,56.58 932.13,55.67 934.84,54.86 937.6,54.15 940.42,53.55 943.29,53.05 946.22,52.65 949.22,52.37 952.27,52.2 955.38,52.14 955.38,41.86 952.27,41.92 949.22,42.09 946.22,42.38 943.29,42.77 940.42,43.27 937.6,43.88 934.84,44.59 932.13,45.39 929.48,46.3 926.88,47.3 924.33,48.4 921.83,49.58 919.38,50.86 916.97,52.22 914.61,53.66 912.3,55.19 910.02,56.79 907.79,58.47 905.6,60.23 903.45,62.05 901.34,63.95 899.26,65.91 897.22,67.94 895.21,70.03 893.24,72.18 891.29,74.39 889.38,76.66 887.49,78.97 885.64,81.34 883.81,83.76 882,86.22 880.22,88.72 878.46,91.27 876.72,93.86 875.01,96.48 873.31,99.13 871.62,101.82 869.96,104.54 868.31,107.29 866.67,110.06 865.04,112.85 863.43,115.66 861.82,118.49 860.23,121.33 858.64,124.19 857.05,127.06 855.48,129.94 853.9,132.82 852.33,135.71 850.75,138.59 849.18,141.48 847.6,144.36 846.02,147.24 844.44,150.11 842.85,152.97 841.25,155.81 839.65,158.64 838.03,161.45 836.41,164.24 834.77,167.01 833.12,169.76 831.45,172.48 829.77,175.16 828.07,177.82 826.35,180.44 824.62,183.03 822.86,185.58 821.07,188.08 819.27,190.54 817.44,192.96 815.58,195.33 813.7,197.64 811.79,199.91 809.84,202.12 807.87,204.27 805.86,206.36 803.82,208.39 801.74,210.35 799.63,212.25 797.48,214.07 795.29,215.83 793.05,217.51 790.78,219.11 788.47,220.64 786.11,222.08 783.7,223.44 781.25,224.72 778.75,225.9 776.2,227 773.6,228 770.94,228.91 768.24,229.71 765.48,230.42 762.66,231.03 759.78,231.53 756.85,231.92 753.86,232.21 750.81,232.38 747.69,232.44 747.69,242.71 750.81,242.65 753.86,242.48 756.85,242.2 759.78,241.8 762.66,241.3 765.48,240.7 768.24,239.99 770.94,239.18 773.6,238.27 776.2,237.27 778.75,236.18 "
       style="fill:#b6d9e8;fill-opacity:0.55;stroke:none;stroke-width:1.07"
       id="polygon61" />
    <polygon
       points="781.25,247.52 783.7,246.61 786.11,245.65 788.47,244.62 790.78,243.54 793.05,242.41 795.29,241.21 797.48,239.97 799.63,238.68 801.74,237.33 803.82,235.94 805.86,234.5 807.87,233.02 809.84,231.5 811.79,229.93 813.7,228.33 815.58,226.68 817.44,225 819.27,223.29 821.07,221.55 822.86,219.77 824.62,217.97 826.35,216.13 828.07,214.27 829.77,212.39 831.45,210.49 833.12,208.56 834.77,206.61 836.41,204.65 838.03,202.67 839.65,200.68 841.25,198.67 842.85,196.66 844.44,194.63 846.02,192.6 847.6,190.56 849.18,188.51 850.75,186.47 852.33,184.42 853.9,182.38 855.48,180.33 857.05,178.29 858.64,176.26 860.23,174.23 861.82,172.22 863.43,170.21 865.04,168.22 866.67,166.24 868.31,164.28 869.96,162.33 871.62,160.4 873.31,158.5 875.01,156.61 876.72,154.76 878.46,152.92 880.22,151.12 882,149.34 883.81,147.6 885.64,145.88 887.49,144.21 889.38,142.56 891.29,140.96 893.24,139.39 895.21,137.87 897.22,136.39 899.26,134.95 901.34,133.56 903.45,132.21 905.6,130.92 907.79,129.67 910.02,128.48 912.3,127.35 914.61,126.26 916.97,125.24 919.38,124.28 921.83,123.37 924.33,122.53 926.88,121.76 929.48,121.05 932.13,120.4 934.84,119.83 937.6,119.33 940.42,118.9 943.29,118.54 946.22,118.27 949.22,118.06 952.27,117.94 955.38,117.9 955.38,111.74 952.27,111.78 949.22,111.9 946.22,112.1 943.29,112.38 940.42,112.73 937.6,113.16 934.84,113.67 932.13,114.24 929.48,114.88 926.88,115.59 924.33,116.37 921.83,117.21 919.38,118.11 916.97,119.08 914.61,120.1 912.3,121.18 910.02,122.32 907.79,123.51 905.6,124.75 903.45,126.05 901.34,127.39 899.26,128.78 897.22,130.22 895.21,131.7 893.24,133.23 891.29,134.79 889.38,136.4 887.49,138.04 885.64,139.72 883.81,141.43 882,143.18 880.22,144.95 878.46,146.76 876.72,148.59 875.01,150.45 873.31,152.33 871.62,154.24 869.96,156.16 868.31,158.11 866.67,160.07 865.04,162.05 863.43,164.05 861.82,166.05 860.23,168.07 858.64,170.09 857.05,172.13 855.48,174.17 853.9,176.21 852.33,178.26 850.75,180.3 849.18,182.35 847.6,184.39 846.02,186.43 844.44,188.46 842.85,190.49 841.25,192.51 839.65,194.51 838.03,196.51 836.41,198.48 834.77,200.45 833.12,202.39 831.45,204.32 829.77,206.23 828.07,208.11 826.35,209.97 824.62,211.8 822.86,213.61 821.07,215.38 819.27,217.13 817.44,218.84 815.58,220.52 813.7,222.16 811.79,223.76 809.84,225.33 807.87,226.85 805.86,228.34 803.82,229.77 801.74,231.17 799.63,232.51 797.48,233.81 795.29,235.05 793.05,236.24 790.78,237.38 788.47,238.46 786.11,239.48 783.7,240.45 781.25,241.35 778.75,242.19 776.2,242.97 773.6,243.68 770.94,244.32 768.24,244.89 765.48,245.39 762.66,245.82 759.78,246.18 756.85,246.46 753.86,246.66 750.81,246.78 747.69,246.82 747.69,252.99 750.81,252.95 753.86,252.82 756.85,252.62 759.78,252.34 762.66,251.99 765.48,251.56 768.24,251.06 770.94,250.48 773.6,249.84 776.2,249.13 778.75,248.36 "
       style="fill:#ffd1d1;fill-opacity:0.55;stroke:none;stroke-width:1.07"
       id="polygon63" />
    <polygon
       points="781.25,61.2 783.7,61.8 786.11,62.43 788.47,63.1 790.78,63.81 793.05,64.55 795.29,65.33 797.48,66.15 799.63,66.99 801.74,67.88 803.82,68.79 805.86,69.73 807.87,70.7 809.84,71.7 811.79,72.72 813.7,73.78 815.58,74.85 817.44,75.95 819.27,77.07 821.07,78.22 822.86,79.38 824.62,80.56 826.35,81.76 828.07,82.98 829.77,84.22 831.45,85.46 833.12,86.73 834.77,88 836.41,89.29 838.03,90.58 839.65,91.89 841.25,93.2 842.85,94.53 844.44,95.85 846.02,97.19 847.6,98.52 849.18,99.86 850.75,101.2 852.33,102.54 853.9,103.88 855.48,105.22 857.05,106.56 858.64,107.89 860.23,109.22 861.82,110.54 863.43,111.85 865.04,113.16 866.67,114.45 868.31,115.74 869.96,117.01 871.62,118.28 873.31,119.53 875.01,120.76 876.72,121.98 878.46,123.18 880.22,124.36 882,125.52 883.81,126.67 885.64,127.79 887.49,128.89 889.38,129.97 891.29,131.02 893.24,132.04 895.21,133.04 897.22,134.01 899.26,134.95 901.34,135.87 903.45,136.75 905.6,137.6 907.79,138.41 910.02,139.19 912.3,139.94 914.61,140.64 916.97,141.31 919.38,141.95 921.83,142.54 924.33,143.09 926.88,143.6 929.48,144.06 932.13,144.48 934.84,144.86 937.6,145.19 940.42,145.47 943.29,145.7 946.22,145.88 949.22,146.02 952.27,146.1 955.38,146.12 955.38,130.37 952.27,130.34 949.22,130.26 946.22,130.13 943.29,129.95 940.42,129.71 937.6,129.43 934.84,129.1 932.13,128.73 929.48,128.31 926.88,127.84 924.33,127.33 921.83,126.78 919.38,126.19 916.97,125.56 914.61,124.89 912.3,124.18 910.02,123.43 907.79,122.65 905.6,121.84 903.45,120.99 901.34,120.11 899.26,119.2 897.22,118.26 895.21,117.29 893.24,116.29 891.29,115.26 889.38,114.21 887.49,113.13 885.64,112.03 883.81,110.91 882,109.77 880.22,108.6 878.46,107.42 876.72,106.22 875.01,105 873.31,103.77 871.62,102.52 869.96,101.26 868.31,99.98 866.67,98.7 865.04,97.4 863.43,96.1 861.82,94.78 860.23,93.46 858.64,92.13 857.05,90.8 855.48,89.46 853.9,88.13 852.33,86.79 850.75,85.44 849.18,84.1 847.6,82.77 846.02,81.43 844.44,80.1 842.85,78.77 841.25,77.45 839.65,76.13 838.03,74.83 836.41,73.53 834.77,72.25 833.12,70.97 831.45,69.71 829.77,68.46 828.07,67.23 826.35,66.01 824.62,64.81 822.86,63.63 821.07,62.46 819.27,61.32 817.44,60.2 815.58,59.1 813.7,58.02 811.79,56.97 809.84,55.94 807.87,54.94 805.86,53.97 803.82,53.03 801.74,52.12 799.63,51.24 797.48,50.39 795.29,49.58 793.05,48.8 790.78,48.05 788.47,47.34 786.11,46.67 783.7,46.04 781.25,45.45 778.75,44.9 776.2,44.39 773.6,43.92 770.94,43.5 768.24,43.13 765.48,42.8 762.66,42.52 759.78,42.28 756.85,42.1 753.86,41.97 750.81,41.89 747.69,41.86 747.69,57.62 750.81,57.64 753.86,57.72 756.85,57.86 759.78,58.04 762.66,58.27 765.48,58.55 768.24,58.88 770.94,59.26 773.6,59.68 776.2,60.14 778.75,60.65 "
       style="fill:#b6d9e8;fill-opacity:0.55;stroke:none;stroke-width:1.07"
       id="polygon65" />
    <polygon
       points="781.25,221.31 783.7,221.53 786.11,221.76 788.47,222.01 790.78,222.28 793.05,222.56 795.29,222.85 797.48,223.15 799.63,223.47 801.74,223.8 803.82,224.14 805.86,224.49 807.87,224.85 809.84,225.22 811.79,225.61 813.7,226 815.58,226.4 817.44,226.81 819.27,227.23 821.07,227.65 822.86,228.09 824.62,228.53 826.35,228.98 828.07,229.43 829.77,229.89 831.45,230.36 833.12,230.83 834.77,231.3 836.41,231.78 838.03,232.27 839.65,232.76 841.25,233.25 842.85,233.74 844.44,234.23 846.02,234.73 847.6,235.23 849.18,235.73 850.75,236.23 852.33,236.73 853.9,237.23 855.48,237.73 857.05,238.23 858.64,238.72 860.23,239.22 861.82,239.71 863.43,240.2 865.04,240.69 866.67,241.17 868.31,241.65 869.96,242.13 871.62,242.6 873.31,243.07 875.01,243.53 876.72,243.98 878.46,244.43 880.22,244.87 882,245.3 883.81,245.73 885.64,246.15 887.49,246.56 889.38,246.96 891.29,247.35 893.24,247.73 895.21,248.11 897.22,248.47 899.26,248.82 901.34,249.16 903.45,249.49 905.6,249.81 907.79,250.11 910.02,250.4 912.3,250.68 914.61,250.94 916.97,251.19 919.38,251.43 921.83,251.65 924.33,251.86 926.88,252.05 929.48,252.22 932.13,252.38 934.84,252.52 937.6,252.64 940.42,252.74 943.29,252.83 946.22,252.9 949.22,252.95 952.27,252.98 955.38,252.99 955.38,150.23 952.27,150.22 949.22,150.19 946.22,150.14 943.29,150.08 940.42,149.99 937.6,149.88 934.84,149.76 932.13,149.62 929.48,149.46 926.88,149.29 924.33,149.1 921.83,148.9 919.38,148.68 916.97,148.44 914.61,148.19 912.3,147.93 910.02,147.65 907.79,147.36 905.6,147.05 903.45,146.74 901.34,146.41 899.26,146.07 897.22,145.72 895.21,145.35 893.24,144.98 891.29,144.6 889.38,144.21 887.49,143.8 885.64,143.39 883.81,142.98 882,142.55 880.22,142.11 878.46,141.67 876.72,141.23 875.01,140.77 873.31,140.31 871.62,139.85 869.96,139.37 868.31,138.9 866.67,138.42 865.04,137.94 863.43,137.45 861.82,136.96 860.23,136.46 858.64,135.97 857.05,135.47 855.48,134.97 853.9,134.47 852.33,133.97 850.75,133.47 849.18,132.97 847.6,132.47 846.02,131.98 844.44,131.48 842.85,130.98 841.25,130.49 839.65,130 838.03,129.51 836.41,129.03 834.77,128.55 833.12,128.07 831.45,127.6 829.77,127.14 828.07,126.68 826.35,126.22 824.62,125.78 822.86,125.33 821.07,124.9 819.27,124.47 817.44,124.06 815.58,123.64 813.7,123.24 811.79,122.85 809.84,122.47 807.87,122.1 805.86,121.73 803.82,121.38 801.74,121.04 799.63,120.71 797.48,120.4 795.29,120.09 793.05,119.8 790.78,119.52 788.47,119.26 786.11,119.01 783.7,118.77 781.25,118.55 778.75,118.35 776.2,118.16 773.6,117.98 770.94,117.83 768.24,117.69 765.48,117.56 762.66,117.46 759.78,117.37 756.85,117.3 753.86,117.26 750.81,117.23 747.69,117.22 747.69,219.97 750.81,219.98 753.86,220.01 756.85,220.06 759.78,220.13 762.66,220.21 765.48,220.32 768.24,220.44 770.94,220.58 773.6,220.74 776.2,220.91 778.75,221.1 "
       style="fill:#ffd1d1;fill-opacity:0.55;stroke:none;stroke-width:1.07"
       id="polygon67" />
    <polygon
       points="781.25,242.91 783.7,242.26 786.11,241.57 788.47,240.84 790.78,240.07 793.05,239.26 795.29,238.4 797.48,237.52 799.63,236.59 801.74,235.63 803.82,234.63 805.86,233.61 807.87,232.55 809.84,231.46 811.79,230.34 813.7,229.19 815.58,228.01 817.44,226.81 819.27,225.59 821.07,224.34 822.86,223.07 824.62,221.78 826.35,220.47 828.07,219.14 829.77,217.8 831.45,216.43 833.12,215.06 834.77,213.66 836.41,212.26 838.03,210.85 839.65,209.42 841.25,207.99 842.85,206.54 844.44,205.1 846.02,203.64 847.6,202.18 849.18,200.72 850.75,199.26 852.33,197.8 853.9,196.33 855.48,194.87 857.05,193.41 858.64,191.96 860.23,190.51 861.82,189.07 863.43,187.64 865.04,186.21 866.67,184.8 868.31,183.39 869.96,182 871.62,180.62 873.31,179.26 875.01,177.91 876.72,176.59 878.46,175.28 880.22,173.98 882,172.71 883.81,171.47 885.64,170.24 887.49,169.04 889.38,167.87 891.29,166.72 893.24,165.6 895.21,164.51 897.22,163.45 899.26,162.42 901.34,161.43 903.45,160.47 905.6,159.54 907.79,158.65 910.02,157.8 912.3,156.99 914.61,156.21 916.97,155.48 919.38,154.79 921.83,154.15 924.33,153.55 926.88,152.99 929.48,152.48 932.13,152.02 934.84,151.61 937.6,151.26 940.42,150.95 943.29,150.69 946.22,150.49 949.22,150.35 952.27,150.26 955.38,150.23 955.38,146.12 952.27,146.15 949.22,146.24 946.22,146.38 943.29,146.58 940.42,146.84 937.6,147.14 934.84,147.5 932.13,147.91 929.48,148.37 926.88,148.88 924.33,149.44 921.83,150.04 919.38,150.68 916.97,151.37 914.61,152.1 912.3,152.88 910.02,153.69 907.79,154.54 905.6,155.43 903.45,156.36 901.34,157.32 899.26,158.31 897.22,159.34 895.21,160.4 893.24,161.49 891.29,162.61 889.38,163.76 887.49,164.93 885.64,166.13 883.81,167.36 882,168.6 880.22,169.87 878.46,171.17 876.72,172.48 875.01,173.8 873.31,175.15 871.62,176.51 869.96,177.89 868.31,179.28 866.67,180.69 865.04,182.1 863.43,183.53 861.82,184.96 860.23,186.4 858.64,187.85 857.05,189.3 855.48,190.76 853.9,192.22 852.33,193.69 850.75,195.15 849.18,196.61 847.6,198.07 846.02,199.53 844.44,200.99 842.85,202.43 841.25,203.88 839.65,205.31 838.03,206.74 836.41,208.15 834.77,209.55 833.12,210.95 831.45,212.32 829.77,213.69 828.07,215.03 826.35,216.36 824.62,217.67 822.86,218.96 821.07,220.23 819.27,221.48 817.44,222.7 815.58,223.9 813.7,225.08 811.79,226.23 809.84,227.35 807.87,228.44 805.86,229.5 803.82,230.52 801.74,231.52 799.63,232.48 797.48,233.41 795.29,234.29 793.05,235.15 790.78,235.96 788.47,236.73 786.11,237.46 783.7,238.15 781.25,238.8 778.75,239.4 776.2,239.96 773.6,240.46 770.94,240.92 768.24,241.33 765.48,241.69 762.66,242 759.78,242.25 756.85,242.45 753.86,242.6 750.81,242.68 747.69,242.71 747.69,246.82 750.81,246.79 753.86,246.71 756.85,246.56 759.78,246.36 762.66,246.11 765.48,245.8 768.24,245.44 770.94,245.03 773.6,244.57 776.2,244.07 778.75,243.51 "
       style="fill:#b6d9e8;fill-opacity:0.55;stroke:none;stroke-width:1.07"
       id="polygon69" />
    <polygon
       points="781.25,274.91 783.7,274.91 786.11,274.91 788.47,274.91 790.78,274.91 793.05,274.91 795.29,274.91 797.48,274.91 799.63,274.91 801.74,274.91 803.82,274.91 805.86,274.91 807.87,274.91 809.84,274.91 811.79,274.91 813.7,274.91 815.58,274.91 817.44,274.91 819.27,274.91 821.07,274.91 822.86,274.91 824.62,274.91 826.35,274.91 828.07,274.91 829.77,274.91 831.45,274.91 833.12,274.91 834.77,274.91 836.41,274.91 838.03,274.91 839.65,274.91 841.25,274.91 842.85,274.91 844.44,274.91 846.02,274.91 847.6,274.91 849.18,274.91 850.75,274.91 852.33,274.91 853.9,274.91 855.48,274.91 857.05,274.91 858.64,274.91 860.23,274.91 861.82,274.91 863.43,274.91 865.04,274.91 866.67,274.91 868.31,274.91 869.96,274.91 871.62,274.91 873.31,274.91 875.01,274.91 876.72,274.91 878.46,274.91 880.22,274.91 882,274.91 883.81,274.91 885.64,274.91 887.49,274.91 889.38,274.91 891.29,274.91 893.24,274.91 895.21,274.91 897.22,274.91 899.26,274.91 901.34,274.91 903.45,274.91 905.6,274.91 907.79,274.91 910.02,274.91 912.3,274.91 914.61,274.91 916.97,274.91 919.38,274.91 921.83,274.91 924.33,274.91 926.88,274.91 929.48,274.91 932.13,274.91 934.84,274.91 937.6,274.91 940.42,274.91 943.29,274.91 946.22,274.91 949.22,274.91 952.27,274.91 955.38,274.91 955.38,252.99 952.27,252.99 949.22,252.99 946.22,252.99 943.29,252.99 940.42,252.99 937.6,252.99 934.84,252.99 932.13,252.99 929.48,252.99 926.88,252.99 924.33,252.99 921.83,252.99 919.38,252.99 916.97,252.99 914.61,252.99 912.3,252.99 910.02,252.99 907.79,252.99 905.6,252.99 903.45,252.99 901.34,252.99 899.26,252.99 897.22,252.99 895.21,252.99 893.24,252.99 891.29,252.99 889.38,252.99 887.49,252.99 885.64,252.99 883.81,252.99 882,252.99 880.22,252.99 878.46,252.99 876.72,252.99 875.01,252.99 873.31,252.99 871.62,252.99 869.96,252.99 868.31,252.99 866.67,252.99 865.04,252.99 863.43,252.99 861.82,252.99 860.23,252.99 858.64,252.99 857.05,252.99 855.48,252.99 853.9,252.99 852.33,252.99 850.75,252.99 849.18,252.99 847.6,252.99 846.02,252.99 844.44,252.99 842.85,252.99 841.25,252.99 839.65,252.99 838.03,252.99 836.41,252.99 834.77,252.99 833.12,252.99 831.45,252.99 829.77,252.99 828.07,252.99 826.35,252.99 824.62,252.99 822.86,252.99 821.07,252.99 819.27,252.99 817.44,252.99 815.58,252.99 813.7,252.99 811.79,252.99 809.84,252.99 807.87,252.99 805.86,252.99 803.82,252.99 801.74,252.99 799.63,252.99 797.48,252.99 795.29,252.99 793.05,252.99 790.78,252.99 788.47,252.99 786.11,252.99 783.7,252.99 781.25,252.99 778.75,252.99 776.2,252.99 773.6,252.99 770.94,252.99 768.24,252.99 765.48,252.99 762.66,252.99 759.78,252.99 756.85,252.99 753.86,252.99 750.81,252.99 747.69,252.99 747.69,274.91 750.81,274.91 753.86,274.91 756.85,274.91 759.78,274.91 762.66,274.91 765.48,274.91 768.24,274.91 770.94,274.91 773.6,274.91 776.2,274.91 778.75,274.91 "
       style="fill:#ffd1d1;fill-opacity:0.55;stroke:none;stroke-width:1.07"
       id="polygon71" />
    <polygon
       points="119.42,274.91 129.81,274.91 129.81,25.56 119.42,25.56 "
       style="fill:#bbbbbb;stroke-width:1.07"
       id="polygon73" />
    <polygon
       points="327.12,274.91 337.5,274.91 337.5,84.47 327.12,84.47 "
       style="fill:#bbbbbb;stroke-width:1.07"
       id="polygon75" />
    <polygon
       points="327.12,72 337.5,72 337.5,13.09 327.12,13.09 "
       style="fill:#bbbbbb;stroke-width:1.07"
       id="polygon77" />
    <polygon
       points="534.81,274.91 545.19,274.91 545.19,230.38 534.81,230.38 "
       style="fill:#bbbbbb;stroke-width:1.07"
       id="polygon79" />
    <polygon
       points="534.81,217.91 545.19,217.91 545.19,13.09 534.81,13.09 "
       style="fill:#bbbbbb;stroke-width:1.07"
       id="polygon81" />
    <polygon
       points="742.5,274.91 752.88,274.91 752.88,232.44 742.5,232.44 "
       style="fill:#bbbbbb;stroke-width:1.07"
       id="polygon83" />
    <polygon
       points="742.5,219.97 752.88,219.97 752.88,13.09 742.5,13.09 "
       style="fill:#bbbbbb;stroke-width:1.07"
       id="polygon85" />
    <polygon
       points="950.19,274.91 960.58,274.91 960.58,130.37 950.19,130.37 "
       style="fill:#bbbbbb;stroke-width:1.07"
       id="polygon87" />
    <polygon
       points="950.19,117.9 960.58,117.9 960.58,13.09 950.19,13.09 "
       style="fill:#bbbbbb;stroke-width:1.07"
       id="polygon89" />
    <text
       x="141.23"
       y="179.27"
       style="font-size:79.67px;font-family:Arial"
       textLength="715.08002"
       lengthAdjust="spacingAndGlyphs"
       id="text91"
       transform="matrix(0.21669025,0,0,0.21669025,105.10342,118.39282)">Microcin Hits: 364</text>
    <text
       x="348.92001"
       y="208.72"
       style="font-size:79.67px;font-family:Arial"
       textLength="862.23999"
       lengthAdjust="spacingAndGlyphs"
       id="text93"
       transform="matrix(0.21669025,0,0,0.21669025,267.61587,141.15657)">Verified Microcin: 278</text>
    <text
       x="348.92001"
       y="71.580002"
       style="font-size:79.67px;font-family:Arial"
       textLength="736.22998"
       lengthAdjust="spacingAndGlyphs"
       id="text95"
       transform="matrix(0.21669025,0,0,0.21669025,267.22179,34.022953)">Novel Microcin: 86</text>
    <text
       x="556.62"
       y="281.67999"
       style="font-size:79.67px;font-family:Arial"
       textLength="656.72998"
       lengthAdjust="spacingAndGlyphs"
       id="text97"
       transform="matrix(0.21669025,0,0,0.21669025,431.97685,198.30685)">PCAT Absent: 65</text>
    <text
       x="556.62"
       y="144.53999"
       style="font-size:79.67px;font-family:Arial"
       textLength="770.39001"
       lengthAdjust="spacingAndGlyphs"
       id="text99"
       transform="matrix(0.21669025,0,0,0.21669025,431.93083,90.883742)">Contains PCAT: 299</text>
    <text
       x="764.31"
       y="282.70999"
       style="font-size:79.67px;font-family:Arial"
       textLength="618.67999"
       lengthAdjust="spacingAndGlyphs"
       id="text101"
       transform="matrix(0.21669025,0,0,0.21669025,594.23407,199.40313)">MFP Absent: 62</text>
    <text
       x="764.31"
       y="145.56"
       style="font-size:79.67px;font-family:Arial"
       textLength="741.09998"
       lengthAdjust="spacingAndGlyphs"
       id="text103"
       transform="matrix(0.21669025,0,0,0.21669025,593.34757,91.697957)">Contains MFP: 302</text>
  </g>
  <text
     x="972"
     y="231.67"
     style="font-size:79.67px;font-family:Arial"
     textLength="578.32001"
     lengthAdjust="spacingAndGlyphs"
     id="text105"
     transform="matrix(0.21669025,0,0,0.21669025,636.09988,146.4486)">IP Absent: 211</text>
  <text
     x="972"
     y="94.529999"
     style="font-size:79.67px;font-family:Arial"
     textLength="650.04999"
     lengthAdjust="spacingAndGlyphs"
     id="text107"
     transform="matrix(0.21669025,0,0,0.21669025,636.97356,38.766498)">Contains IP: 153</text>
</svg>
